<svg width="119" height="34" viewBox="0 0 119 34" fill="none" xmlns="http://www.w3.org/2000/svg">
<g clip-path="url(#clip0_174_6204)">
<path d="M17 0C21.234 0 25.1064 1.5481 28.0824 4.10891L27.3429 4.88519C24.6546 2.5879 21.1925 1.16966 17.4016 1.07587V5.46911C20.0185 5.55864 22.4142 6.5197 24.3076 8.07106L23.752 8.65419C22.0047 7.2388 19.804 6.36102 17.4016 6.27267V10.4129C18.6991 10.4908 19.8956 10.9436 20.8841 11.6644L20.3246 12.2516C19.4862 11.6635 18.4848 11.2919 17.4016 11.2178V15.5137C17.5415 15.5514 17.6736 15.6083 17.7947 15.6814L31.3537 1.4496C31.5062 1.28935 31.7597 1.28303 31.92 1.43549C32.0802 1.58794 32.0865 1.84151 31.9341 2.00177L18.35 16.2598C18.4082 16.3657 18.4542 16.4792 18.4864 16.5984H22.7823C22.7046 15.4637 22.3004 14.4187 21.6629 13.5568L22.2242 12.9677C23.0096 13.9838 23.5053 15.2354 23.5871 16.5984H27.7273C27.6339 14.0584 26.6581 11.7437 25.0973 9.95206L25.6533 9.3684C27.366 11.3089 28.4362 13.8299 28.5309 16.5984H32.9241C32.8247 12.5795 31.2366 8.93003 28.6906 6.1804L29.4307 5.40365C32.2653 8.44088 34 12.5179 34 17C34 21.6944 32.0972 25.9444 29.0208 29.0208C25.9444 32.0972 21.6944 34 17 34C12.3056 34 8.05563 32.0972 4.97921 29.0208C1.9028 25.9444 0 21.6944 0 17C0 12.3056 1.90282 8.05561 4.97921 4.97921C8.0556 1.90283 12.3056 0 17 0ZM18.4863 17.4016C18.3442 17.9289 17.929 18.3442 17.4016 18.4863V22.7822C18.8422 22.6837 20.1381 22.0588 21.0985 21.0985C22.0588 20.1381 22.6837 18.8422 22.7822 17.4016H18.4863ZM16.5984 18.4863C16.0711 18.3442 15.6558 17.9289 15.5137 17.4016H11.2178C11.3163 18.8422 11.9412 20.1381 12.9015 21.0985C13.8619 22.0588 15.1578 22.6837 16.5984 22.7822L16.5984 18.4863ZM15.5137 16.5984C15.6558 16.0711 16.0711 15.6558 16.5984 15.5136V11.2177C15.1578 11.3163 13.8619 11.9412 12.9015 12.9015C11.9412 13.8619 11.3163 15.1578 11.2178 16.5984H15.5137ZM1.07587 16.5984H5.46911C5.54633 14.3412 6.272 12.2486 7.46553 10.5009C7.17153 10.1364 6.99542 9.67275 6.99542 9.16797C6.99542 7.99429 7.94687 7.04285 9.12054 7.04285C9.62073 7.04285 10.0805 7.21576 10.4435 7.50495C12.2027 6.28795 14.3165 5.54717 16.5984 5.4691V1.07586C12.3592 1.18075 8.53097 2.94174 5.73636 5.73635C2.94176 8.53094 1.18077 12.3592 1.07587 16.5984ZM32.9241 17.4016H28.5309C28.487 18.6857 28.2331 19.9164 27.8028 21.0608C28.0957 21.3327 28.279 21.7211 28.279 22.1522C28.279 22.9747 27.6123 23.6414 26.7898 23.6414C26.6769 23.6414 26.567 23.6288 26.4613 23.605C26.0727 24.1606 25.6366 24.6805 25.1585 25.1585C23.1587 27.1584 20.428 28.4274 17.4016 28.5309V32.9241C21.6408 32.8192 25.469 31.0582 28.2637 28.2636C31.0583 25.469 32.8192 21.6408 32.9241 17.4016ZM16.5984 32.9241V28.5309C13.572 28.4274 10.8414 27.1584 8.84149 25.1585C6.84163 23.1586 5.57264 20.428 5.46912 17.4016H1.07587C1.18077 21.6408 2.94175 25.469 5.73636 28.2636C8.53096 31.0582 12.3592 32.8192 16.5984 32.9241ZM10.3397 21.7005C10.848 21.7005 11.26 22.1125 11.26 22.6207C11.26 23.129 10.848 23.541 10.3397 23.541C9.83148 23.541 9.41946 23.129 9.41946 22.6207C9.41946 22.1125 9.83148 21.7005 10.3397 21.7005ZM26.7898 20.6631C26.8901 20.6631 26.9881 20.673 27.0828 20.692C27.4608 19.6601 27.6849 18.554 27.7273 17.4016H23.5871C23.4873 19.0639 22.7722 20.5604 21.6663 21.6663C20.5604 22.7722 19.0639 23.4873 17.4016 23.5871V27.7273C20.2063 27.6242 22.7362 26.4451 24.5907 24.5907C25.0143 24.1671 25.4025 23.7082 25.7508 23.2189C25.4731 22.9484 25.3007 22.5705 25.3007 22.1522C25.3007 21.3298 25.9674 20.6631 26.7898 20.6631ZM10.9688 8.11857C11.145 8.42814 11.2457 8.78629 11.2457 9.16797C11.2457 10.3416 10.2942 11.2931 9.12053 11.2931C8.74335 11.2931 8.38918 11.1947 8.08213 11.0224C7.00446 12.627 6.34843 14.5386 6.27267 16.5984H10.4129C10.5127 14.9361 11.2278 13.4396 12.3337 12.3337C13.4396 11.2278 14.9361 10.5127 16.5984 10.4129V6.27267C14.5156 6.34928 12.5844 7.01933 10.9688 8.11857ZM16.5984 27.7273V23.5871C14.9361 23.4873 13.4396 22.7722 12.3337 21.6663C11.2278 20.5604 10.5127 19.0639 10.4129 17.4016H6.27268C6.37583 20.2063 7.55486 22.7362 9.40933 24.5907C11.2638 26.4451 13.7937 27.6242 16.5984 27.7273Z" fill="#42E8E0"/>
</g>
<path d="M42.696 25C42.568 25 42.448 24.952 42.336 24.856C42.24 24.744 42.192 24.624 42.192 24.496C42.192 24.4 42.2 24.328 42.216 24.28L47.808 8.896C47.968 8.432 48.288 8.2 48.768 8.2H52.512C52.992 8.2 53.312 8.432 53.472 8.896L59.064 24.28C59.08 24.328 59.088 24.4 59.088 24.496C59.088 24.624 59.032 24.744 58.92 24.856C58.824 24.952 58.712 25 58.584 25H55.464C55.08 25 54.808 24.824 54.648 24.472L53.784 22.144H47.496L46.632 24.472C46.472 24.824 46.2 25 45.816 25H42.696ZM48.504 18.544H52.776L50.64 12.424L48.504 18.544ZM60.0174 25C59.8894 25 59.7694 24.952 59.6574 24.856C59.5614 24.744 59.5134 24.624 59.5134 24.496C59.5134 24.4 59.5374 24.304 59.5854 24.208L64.8174 16.432L59.9934 8.992C59.9454 8.896 59.9214 8.8 59.9214 8.704C59.9214 8.576 59.9694 8.464 60.0654 8.368C60.1774 8.256 60.2974 8.2 60.4254 8.2H64.0974C64.4494 8.2 64.7374 8.376 64.9614 8.728L67.6734 12.904L70.4814 8.728C70.7054 8.376 70.9854 8.2 71.3214 8.2H74.8254C74.9534 8.2 75.0654 8.256 75.1614 8.368C75.2734 8.464 75.3294 8.576 75.3294 8.704C75.3294 8.8 75.3054 8.896 75.2574 8.992L70.3854 16.384L75.6654 24.208C75.7134 24.304 75.7374 24.4 75.7374 24.496C75.7374 24.624 75.6814 24.744 75.5694 24.856C75.4734 24.952 75.3614 25 75.2334 25H71.4414C71.0894 25 70.8094 24.84 70.6014 24.52L67.5294 20.056L64.5294 24.52C64.3214 24.84 64.0414 25 63.6894 25H60.0174ZM78.2164 25C78.0564 25 77.9124 24.944 77.7844 24.832C77.6724 24.704 77.6164 24.56 77.6164 24.4V8.8C77.6164 8.624 77.6724 8.48 77.7844 8.368C77.9124 8.256 78.0564 8.2 78.2164 8.2H81.6484C81.8244 8.2 81.9684 8.256 82.0804 8.368C82.1924 8.48 82.2484 8.624 82.2484 8.8V24.4C82.2484 24.56 82.1924 24.704 82.0804 24.832C81.9684 24.944 81.8244 25 81.6484 25H78.2164ZM92.4748 25.24C90.2028 25.24 88.4108 24.688 87.0988 23.584C85.7868 22.48 85.0908 20.856 85.0108 18.712C84.9948 18.264 84.9868 17.576 84.9868 16.648C84.9868 15.72 84.9948 15.024 85.0108 14.56C85.0748 12.448 85.7708 10.824 87.0988 9.688C88.4428 8.536 90.2348 7.96 92.4748 7.96C94.6988 7.96 96.4748 8.536 97.8028 9.688C99.1468 10.824 99.8508 12.448 99.9148 14.56C99.9468 15.488 99.9628 16.184 99.9628 16.648C99.9628 17.128 99.9468 17.816 99.9148 18.712C99.8348 20.856 99.1388 22.48 97.8268 23.584C96.5308 24.688 94.7468 25.24 92.4748 25.24ZM92.4748 21.64C93.3068 21.64 93.9708 21.392 94.4668 20.896C94.9628 20.384 95.2268 19.608 95.2588 18.568C95.2908 17.64 95.3068 16.976 95.3068 16.576C95.3068 16.176 95.2908 15.528 95.2588 14.632C95.2268 13.592 94.9628 12.824 94.4668 12.328C93.9708 11.816 93.3068 11.56 92.4748 11.56C91.6268 11.56 90.9548 11.816 90.4588 12.328C89.9628 12.824 89.6988 13.592 89.6668 14.632C89.6508 15.08 89.6428 15.728 89.6428 16.576C89.6428 17.44 89.6508 18.104 89.6668 18.568C89.6988 19.608 89.9628 20.384 90.4588 20.896C90.9548 21.392 91.6268 21.64 92.4748 21.64ZM103.271 25C103.111 25 102.967 24.944 102.839 24.832C102.727 24.704 102.671 24.56 102.671 24.4V8.824C102.671 8.648 102.727 8.504 102.839 8.392C102.951 8.264 103.095 8.2 103.271 8.2H105.983C106.351 8.2 106.623 8.352 106.799 8.656L112.463 17.608V8.824C112.463 8.648 112.519 8.504 112.631 8.392C112.743 8.264 112.887 8.2 113.063 8.2H116.111C116.287 8.2 116.431 8.264 116.543 8.392C116.655 8.504 116.711 8.648 116.711 8.824V24.376C116.711 24.552 116.655 24.704 116.543 24.832C116.431 24.944 116.287 25 116.111 25H113.399C113.031 25 112.759 24.848 112.583 24.544L106.943 15.952V24.4C106.943 24.576 106.879 24.72 106.751 24.832C106.639 24.944 106.495 25 106.319 25H103.271Z" fill="#F2F2F2"/>
<defs>
<clipPath id="clip0_174_6204">
<rect width="34" height="34" fill="white"/>
</clipPath>
</defs>
</svg>
