<svg width="16" height="17" viewBox="0 0 16 17" fill="none" xmlns="http://www.w3.org/2000/svg">
<path fill-rule="evenodd" clip-rule="evenodd" d="M8 0.955078C3.58214 0.955078 0 4.6267 0 9.15908C0 12.7843 2.29286 15.8559 5.47143 16.9416C5.87143 17.0166 6.01786 16.7631 6.01786 16.5452C6.01786 16.3487 6.01071 15.8344 6.00714 15.1487C3.78214 15.6451 3.31071 14.0486 3.31071 14.0486C2.94643 13.1021 2.42143 12.8486 2.42143 12.8486C1.69643 12.3378 2.475 12.3485 2.475 12.3485C3.27857 12.4057 3.7 13.195 3.7 13.195C4.41429 14.4486 5.57143 14.0879 6.02857 13.8772C6.1 13.3486 6.30714 12.9843 6.53571 12.7807C4.76071 12.5735 2.89286 11.8699 2.89286 8.72692C2.89286 7.83044 3.20357 7.09826 3.71429 6.5268C3.63214 6.31965 3.35714 5.48389 3.79286 4.35526C3.79286 4.35526 4.46429 4.13382 5.99286 5.19459C6.63214 5.01243 7.31429 4.92314 7.99643 4.91957C8.675 4.92314 9.36071 5.01243 10 5.19459C11.5286 4.13382 12.1964 4.35526 12.1964 4.35526C12.6321 5.48389 12.3571 6.31965 12.275 6.5268C12.7857 7.10183 13.0964 7.83401 13.0964 8.72692C13.0964 11.8771 11.225 12.57 9.44286 12.7736C9.72857 13.0271 9.98571 13.5272 9.98571 14.2915C9.98571 15.388 9.975 16.2737 9.975 16.5416C9.975 16.7595 10.1179 17.0166 10.525 16.9345C13.7107 15.8523 16 12.7807 16 9.15908C16 4.6267 12.4179 0.955078 8 0.955078Z" fill="#94F3F0"/>
</svg>
