<svg width="18" height="18" viewBox="0 0 18 18" fill="none" xmlns="http://www.w3.org/2000/svg">
<g clip-path="url(#clip0_174_9610)">
<path d="M8.25 3H3C2.60218 3 2.22064 3.15804 1.93934 3.43934C1.65804 3.72064 1.5 4.10218 1.5 4.5V15C1.5 15.3978 1.65804 15.7794 1.93934 16.0607C2.22064 16.342 2.60218 16.5 3 16.5H13.5C13.8978 16.5 14.2794 16.342 14.5607 16.0607C14.842 15.7794 15 15.3978 15 15V9.75" stroke="#0F054C" stroke-width="2" stroke-linecap="round" stroke-linejoin="round"/>
<path d="M13.875 1.87419C14.1734 1.57582 14.578 1.4082 15 1.4082C15.422 1.4082 15.8266 1.57582 16.125 1.87419C16.4234 2.17256 16.591 2.57724 16.591 2.99919C16.591 3.42115 16.4234 3.82582 16.125 4.12419L9 11.2492L6 11.9992L6.75 8.99919L13.875 1.87419Z" stroke="#0F054C" stroke-width="2" stroke-linecap="round" stroke-linejoin="round"/>
</g>
<defs>
<clipPath id="clip0_174_9610">
<rect width="18" height="18" fill="white"/>
</clipPath>
</defs>
</svg>
