<svg width="1920" height="616" viewBox="0 0 1920 616" fill="none" xmlns="http://www.w3.org/2000/svg">
<g opacity="0.2" clip-path="url(#clip0_174_4802)">
<mask id="mask0_174_4802" style="mask-type:luminance" maskUnits="userSpaceOnUse" x="-5" y="-120" width="1926" height="1285">
<path d="M1920.72 -119.672H-4.41431V1164.33H1920.72V-119.672Z" fill="white"/>
</mask>
<g mask="url(#mask0_174_4802)">
<path d="M-94.7299 2177.78C398.729 2177.78 798.757 1777.57 798.757 1283.89C798.757 790.212 398.729 390.004 -94.7299 390.004C-588.189 390.004 -988.217 790.212 -988.217 1283.89C-988.217 1777.57 -588.189 2177.78 -94.7299 2177.78Z" fill="url(#paint0_radial_174_4802)"/>
</g>
<mask id="mask1_174_4802" style="mask-type:luminance" maskUnits="userSpaceOnUse" x="-5" y="-120" width="1926" height="1285">
<path d="M1920.72 -119.672H-4.41431V1164.33H1920.72V-119.672Z" fill="white"/>
</mask>
<g mask="url(#mask1_174_4802)">
<path d="M1800.39 777.843C1944.55 777.843 2061.42 660.922 2061.42 516.693C2061.42 372.464 1944.55 255.543 1800.39 255.543C1656.22 255.543 1539.35 372.464 1539.35 516.693C1539.35 660.922 1656.22 777.843 1800.39 777.843Z" fill="url(#paint1_linear_174_4802)"/>
<path d="M1867.41 590.658C1950.19 590.658 2017.29 523.527 2017.29 440.716C2017.29 357.905 1950.19 290.773 1867.41 290.773C1784.64 290.773 1717.54 357.905 1717.54 440.716C1717.54 523.527 1784.64 590.658 1867.41 590.658Z" fill="url(#paint2_radial_174_4802)"/>
</g>
<mask id="mask2_174_4802" style="mask-type:luminance" maskUnits="userSpaceOnUse" x="-5" y="-120" width="1926" height="1285">
<path d="M1920.72 -119.672H-4.41431V1164.33H1920.72V-119.672Z" fill="white"/>
</mask>
<g mask="url(#mask2_174_4802)">
<path d="M1869.38 207.107H1862.4V214.088H1869.38V207.107Z" fill="#F8EEE0"/>
<path d="M1869.38 176.508H1862.4V183.489H1869.38V176.508Z" fill="#F8EEE0"/>
<path d="M1869.38 145.906H1862.4V152.887H1869.38V145.906Z" fill="#F8EEE0"/>
<path d="M1869.38 115.305H1862.4V122.285H1869.38V115.305Z" fill="#F8EEE0"/>
<path d="M1869.38 84.6992H1862.4V91.68H1869.38V84.6992Z" fill="#F8EEE0"/>
<path d="M1869.38 54.0977H1862.4V61.0785H1869.38V54.0977Z" fill="#F8EEE0"/>
<path d="M1869.38 23.4961H1862.4V30.4769H1869.38V23.4961Z" fill="#F8EEE0"/>
<path d="M1838.79 207.107H1831.81V214.088H1838.79V207.107Z" fill="#F8EEE0"/>
<path d="M1838.79 176.508H1831.81V183.489H1838.79V176.508Z" fill="#F8EEE0"/>
<path d="M1838.79 145.906H1831.81V152.887H1838.79V145.906Z" fill="#F8EEE0"/>
<path d="M1838.79 115.305H1831.81V122.285H1838.79V115.305Z" fill="#F8EEE0"/>
<path d="M1838.79 84.6992H1831.81V91.68H1838.79V84.6992Z" fill="#F8EEE0"/>
<path d="M1838.79 54.0977H1831.81V61.0785H1838.79V54.0977Z" fill="#F8EEE0"/>
<path d="M1838.79 23.4961H1831.81V30.4769H1838.79V23.4961Z" fill="#F8EEE0"/>
<path d="M1808.2 207.107H1801.23V214.088H1808.2V207.107Z" fill="#F8EEE0"/>
<path d="M1808.2 176.506H1801.23V183.487H1808.2V176.506Z" fill="#F8EEE0"/>
<path d="M1808.2 145.904H1801.23V152.885H1808.2V145.904Z" fill="#F8EEE0"/>
<path d="M1808.2 115.303H1801.23V122.284H1808.2V115.303Z" fill="#F8EEE0"/>
<path d="M1808.2 84.7012H1801.23V91.682H1808.2V84.7012Z" fill="#F8EEE0"/>
<path d="M1808.2 54.0996H1801.23V61.0804H1808.2V54.0996Z" fill="#F8EEE0"/>
<path d="M1808.2 23.4961H1801.23V30.4769H1808.2V23.4961Z" fill="#F8EEE0"/>
<path d="M1777.61 54.0977H1770.64V61.0785H1777.61V54.0977Z" fill="#F8EEE0"/>
<path d="M1777.61 23.498H1770.64V30.4789H1777.61V23.498Z" fill="#F8EEE0"/>
<path d="M1747.03 54.0977H1740.05V61.0785H1747.03V54.0977Z" fill="#F8EEE0"/>
<path d="M1747.03 23.4961H1740.05V30.4769H1747.03V23.4961Z" fill="#F8EEE0"/>
<path d="M1716.44 54.0977H1709.46V61.0785H1716.44V54.0977Z" fill="#F8EEE0"/>
<path d="M1716.44 23.4961H1709.46V30.4769H1716.44V23.4961Z" fill="#F8EEE0"/>
<path d="M1685.85 54.0977H1678.87V61.0785H1685.85V54.0977Z" fill="#F8EEE0"/>
<path d="M1685.85 23.498H1678.87V30.4789H1685.85V23.498Z" fill="#F8EEE0"/>
<path d="M1869.38 421.32H1862.4V428.301H1869.38V421.32Z" fill="#F8EEE0"/>
<path d="M1869.38 390.719H1862.4V397.7H1869.38V390.719Z" fill="#F8EEE0"/>
<path d="M1869.38 360.117H1862.4V367.098H1869.38V360.117Z" fill="#F8EEE0"/>
<path d="M1869.38 329.516H1862.4V336.496H1869.38V329.516Z" fill="#F8EEE0"/>
<path d="M1869.38 298.914H1862.4V305.895H1869.38V298.914Z" fill="#F8EEE0"/>
<path d="M1869.38 268.312H1862.4V275.293H1869.38V268.312Z" fill="#F8EEE0"/>
<path d="M1869.38 237.711H1862.4V244.692H1869.38V237.711Z" fill="#F8EEE0"/>
<path d="M1838.79 329.516H1831.81V336.496H1838.79V329.516Z" fill="#F8EEE0"/>
<path d="M1838.79 298.914H1831.81V305.895H1838.79V298.914Z" fill="#F8EEE0"/>
<path d="M1838.79 268.312H1831.81V275.293H1838.79V268.312Z" fill="#F8EEE0"/>
<path d="M1838.79 237.711H1831.81V244.692H1838.79V237.711Z" fill="#F8EEE0"/>
<path d="M1808.2 329.516H1801.23V336.496H1808.2V329.516Z" fill="#F8EEE0"/>
<path d="M1808.2 298.914H1801.23V305.895H1808.2V298.914Z" fill="#F8EEE0"/>
<path d="M1808.2 268.312H1801.23V275.293H1808.2V268.312Z" fill="#F8EEE0"/>
<path d="M1808.2 237.711H1801.23V244.692H1808.2V237.711Z" fill="#F8EEE0"/>
</g>
<mask id="mask3_174_4802" style="mask-type:luminance" maskUnits="userSpaceOnUse" x="-5" y="-120" width="1926" height="1285">
<path d="M1920.72 -119.672H-4.41431V1164.33H1920.72V-119.672Z" fill="white"/>
</mask>
<g mask="url(#mask3_174_4802)">
<path d="M122.251 75.3086L265.541 497.282" stroke="#F8EEE0" stroke-width="0.75" stroke-miterlimit="10" stroke-linecap="round" stroke-linejoin="round"/>
<path d="M266 498.632C148.782 538.472 21.476 475.701 -18.3458 358.431C-58.1675 241.16 4.57433 113.797 121.792 73.957" stroke="#F8EEE0" stroke-width="0.75" stroke-miterlimit="10" stroke-linecap="round" stroke-linejoin="round"/>
<path d="M121.792 73.957C23.7319 119.235 -28.3873 238.52 9.1569 349.083C46.7011 459.646 160.664 522.484 266 498.632" stroke="#F8EEE0" stroke-width="0.75" stroke-miterlimit="10" stroke-linecap="round" stroke-linejoin="round"/>
<path d="M121.792 73.957C47.1844 123.213 9.07879 233.267 44.3452 337.123C79.6118 440.979 176.841 505.036 266 498.632" stroke="#F8EEE0" stroke-width="0.75" stroke-miterlimit="10" stroke-linecap="round" stroke-linejoin="round"/>
<path d="M121.792 73.957C73.4613 126.232 51.5297 226.321 84.5188 323.469C117.508 420.618 195.842 486.629 266 498.632" stroke="#F8EEE0" stroke-width="0.75" stroke-miterlimit="10" stroke-linecap="round" stroke-linejoin="round"/>
<path d="M121.793 73.957C121.793 73.957 78.55 134.439 136.715 305.729C194.88 477.019 266 498.632 266 498.632" stroke="#F8EEE0" stroke-width="0.75" stroke-miterlimit="10" stroke-linecap="round" stroke-linejoin="round"/>
<path d="M266 498.631C383.218 458.791 445.96 331.428 406.138 214.157C366.316 96.8868 239.011 34.1164 121.792 73.9564" stroke="#F8EEE0" stroke-width="0.75" stroke-miterlimit="10" stroke-linecap="round" stroke-linejoin="round"/>
<path d="M121.792 73.9572C219.069 52.8444 326.451 117.918 363.995 228.482C401.539 339.045 356.001 456.094 266 498.632" stroke="#F8EEE0" stroke-width="0.75" stroke-miterlimit="10" stroke-linecap="round" stroke-linejoin="round"/>
<path d="M121.792 73.9559C199.127 71.5702 286.585 138.948 321.851 242.804C357.118 346.66 328.784 453.393 266 498.631" stroke="#F8EEE0" stroke-width="0.75" stroke-miterlimit="10" stroke-linecap="round" stroke-linejoin="round"/>
<path d="M121.792 73.957C179.186 90.2982 246.719 159.98 279.708 257.129C312.697 354.277 301.567 450.696 266 498.632" stroke="#F8EEE0" stroke-width="0.75" stroke-miterlimit="10" stroke-linecap="round" stroke-linejoin="round"/>
<path d="M121.792 73.957C159.245 109.025 206.853 181.011 237.565 271.453C268.276 361.894 274.35 447.997 266 498.632" stroke="#F8EEE0" stroke-width="0.75" stroke-miterlimit="10" stroke-linecap="round" stroke-linejoin="round"/>
<path d="M-18.3457 358.429L406.138 214.156" stroke="#F8EEE0" stroke-width="0.75" stroke-miterlimit="10" stroke-linecap="round" stroke-linejoin="round"/>
<path d="M8.84766 159.712L264.168 72.9336" stroke="#F8EEE0" stroke-width="0.75" stroke-miterlimit="10" stroke-linecap="round" stroke-linejoin="round"/>
<path d="M-19.1748 216.605L320.733 101.078" stroke="#F8EEE0" stroke-width="0.75" stroke-miterlimit="10" stroke-linecap="round" stroke-linejoin="round"/>
<path d="M-29.5266 267.49L359.636 135.223" stroke="#F8EEE0" stroke-width="0.75" stroke-miterlimit="10" stroke-linecap="round" stroke-linejoin="round"/>
<path d="M-28.5205 314.519L387.472 173.133" stroke="#F8EEE0" stroke-width="0.75" stroke-miterlimit="10" stroke-linecap="round" stroke-linejoin="round"/>
<path d="M378.944 412.875L123.624 499.653" stroke="#F8EEE0" stroke-width="0.75" stroke-miterlimit="10" stroke-linecap="round" stroke-linejoin="round"/>
<path d="M406.967 355.982L67.0596 471.509" stroke="#F8EEE0" stroke-width="0.75" stroke-miterlimit="10" stroke-linecap="round" stroke-linejoin="round"/>
<path d="M417.319 305.094L28.1562 437.361" stroke="#F8EEE0" stroke-width="0.75" stroke-miterlimit="10" stroke-linecap="round" stroke-linejoin="round"/>
<path d="M416.313 258.068L0.320312 399.455" stroke="#F8EEE0" stroke-width="0.75" stroke-miterlimit="10" stroke-linecap="round" stroke-linejoin="round"/>
<path d="M529.136 24.3527C581.979 24.3527 624.816 -18.5041 624.816 -71.3705C624.816 -124.237 581.979 -167.094 529.136 -167.094C476.294 -167.094 433.456 -124.237 433.456 -71.3705C433.456 -18.5041 476.294 24.3527 529.136 24.3527Z" stroke="#F8EEE0" stroke-width="0.75" stroke-miterlimit="10" stroke-linecap="round" stroke-linejoin="round"/>
<path d="M882.755 1721.62C1103.28 1501 1007.7 1047.66 669.254 709.065C330.812 370.471 -122.322 274.84 -342.851 495.468C-563.379 716.095 -467.791 1169.43 -129.35 1508.03C209.092 1846.62 662.227 1942.25 882.755 1721.62Z" stroke="#F8EEE0" stroke-width="0.5" stroke-miterlimit="10" stroke-linecap="round" stroke-linejoin="round"/>
<path d="M981.283 26.2937C1201.81 246.921 1654.95 151.291 1993.39 -187.303C2331.83 -525.898 2427.42 -979.236 2206.89 -1199.86C1986.36 -1420.49 1533.23 -1324.86 1194.78 -986.267C856.342 -647.673 760.754 -194.334 981.283 26.2937Z" stroke="#F8EEE0" stroke-width="0.5" stroke-miterlimit="10" stroke-linecap="round" stroke-linejoin="round"/>
</g>
</g>
<defs>
<radialGradient id="paint0_radial_174_4802" cx="0" cy="0" r="1" gradientUnits="userSpaceOnUse" gradientTransform="translate(-94.7299 1283.89) scale(893.505 893.907)">
<stop stop-color="#F8EEE0"/>
<stop offset="1" stop-color="#F8EEE0" stop-opacity="0"/>
</radialGradient>
<linearGradient id="paint1_linear_174_4802" x1="1615.81" y1="701.354" x2="1985.13" y2="332.198" gradientUnits="userSpaceOnUse">
<stop offset="0.157924" stop-color="#0F054C"/>
<stop offset="0.160291" stop-color="#0F054C"/>
<stop offset="0.297186" stop-color="#2E1BA3"/>
<stop offset="0.41483" stop-color="#5761D7"/>
<stop offset="0.507466" stop-color="#A09FFD"/>
<stop offset="0.563575" stop-color="#A9A6FD"/>
<stop offset="0.581559" stop-color="#ADAAFB"/>
<stop offset="0.765808" stop-color="#D6CFED"/>
<stop offset="0.911622" stop-color="white"/>
<stop offset="1" stop-color="white"/>
</linearGradient>
<radialGradient id="paint2_radial_174_4802" cx="0" cy="0" r="1" gradientUnits="userSpaceOnUse" gradientTransform="translate(1867.41 440.716) scale(149.878 149.945)">
<stop offset="0.225178" stop-color="#F8EEE0"/>
<stop offset="1" stop-color="#F8EEE0" stop-opacity="0"/>
</radialGradient>
<clipPath id="clip0_174_4802">
<rect width="1920" height="616" fill="white"/>
</clipPath>
</defs>
</svg>
