<svg width="1920" height="891" viewBox="0 0 1920 891" fill="none" xmlns="http://www.w3.org/2000/svg">
<mask id="mask0_322_2" style="mask-type:luminance" maskUnits="userSpaceOnUse" x="-2" y="0" width="1951" height="1301">
<path d="M-1.7196 0.128906H1949V1300.61H-1.7196V0.128906Z" fill="white"/>
</mask>
<g mask="url(#mask0_322_2)">
<path d="M680.495 1969.31C311.181 1969.31 11.7924 1669.92 11.7924 1300.61C11.7924 931.294 311.181 631.906 680.495 631.906C1049.81 631.906 1349.2 931.294 1349.2 1300.61C1349.2 1669.92 1049.81 1969.31 680.495 1969.31Z" fill="url(#paint0_radial_322_2)"/>
</g>
<g opacity="0.2">
<mask id="mask1_322_2" style="mask-type:luminance" maskUnits="userSpaceOnUse" x="-2" y="0" width="1951" height="1301">
<path d="M-1.7196 0.128906H1949V1300.61H-1.7196V0.128906Z" fill="white"/>
</mask>
<g mask="url(#mask1_322_2)">
<path d="M1235.28 660.885C1018.92 660.885 843.525 485.492 843.525 269.134C843.525 52.7758 1018.92 -122.617 1235.28 -122.617C1451.63 -122.617 1627.03 52.7758 1627.03 269.134C1627.03 485.492 1451.63 660.885 1235.28 660.885Z" fill="url(#paint1_radial_322_2)"/>
</g>
</g>
<mask id="mask2_322_2" style="mask-type:luminance" maskUnits="userSpaceOnUse" x="-2" y="0" width="1951" height="1301">
<path d="M-1.7196 0.128906H1949V1300.61H-1.7196V0.128906Z" fill="white"/>
</mask>
<g mask="url(#mask2_322_2)">
<path d="M1996.22 1375.93C1779.87 1375.93 1604.47 1200.53 1604.47 984.175C1604.47 767.817 1779.87 592.424 1996.22 592.424C2212.58 592.424 2387.98 767.817 2387.98 984.175C2387.98 1200.53 2212.58 1375.93 1996.22 1375.93Z" fill="url(#paint2_radial_322_2)"/>
</g>
<mask id="mask3_322_2" style="mask-type:luminance" maskUnits="userSpaceOnUse" x="-2" y="0" width="1951" height="1301">
<path d="M-1.7196 0.128906H1949V1300.61H-1.7196V0.128906Z" fill="white"/>
</mask>
<g mask="url(#mask3_322_2)">
<path d="M-23.5892 1571.55C-346.491 1571.55 -608.255 1309.79 -608.255 986.883C-608.255 663.981 -346.491 402.217 -23.5892 402.217C299.313 402.217 561.077 663.981 561.077 986.883C561.077 1309.79 299.313 1571.55 -23.5892 1571.55Z" fill="url(#paint3_radial_322_2)"/>
</g>
<g opacity="0.2">
<mask id="mask4_322_2" style="mask-type:luminance" maskUnits="userSpaceOnUse" x="-2" y="0" width="1951" height="1301">
<path d="M-1.7196 0.128906H1949V1300.61H-1.7196V0.128906Z" fill="white"/>
</mask>
<g mask="url(#mask4_322_2)">
<path d="M1889.91 745.602H1896.98V752.672H1889.91V745.602Z" fill="#0F054C"/>
<path d="M1889.91 776.596H1896.98V783.666H1889.91V776.596Z" fill="#0F054C"/>
<path d="M1889.91 807.59H1896.98V814.66H1889.91V807.59Z" fill="#0F054C"/>
<path d="M1889.91 838.586H1896.98V845.656H1889.91V838.586Z" fill="#0F054C"/>
<path d="M1889.91 869.58H1896.98V876.65H1889.91V869.58Z" fill="#0F054C"/>
<path d="M1858.91 838.586H1865.98V845.656H1858.91V838.586Z" fill="#0F054C"/>
<path d="M1858.91 869.58H1865.98V876.65H1858.91V869.58Z" fill="#0F054C"/>
<path d="M1827.92 838.586H1834.99V845.656H1827.92V838.586Z" fill="#0F054C"/>
<path d="M1827.92 869.58H1834.99V876.65H1827.92V869.58Z" fill="#0F054C"/>
<path d="M50.3041 331.105H57.3745V338.176H50.3041V331.105Z" fill="#0F054C"/>
<path d="M50.3041 300.109H57.3745V307.18H50.3041V300.109Z" fill="#0F054C"/>
<path d="M50.3041 269.115H57.3745V276.186H50.3041V269.115Z" fill="#0F054C"/>
<path d="M50.3041 238.121H57.3745V245.192H50.3041V238.121Z" fill="#0F054C"/>
<path d="M50.3041 207.125H57.3745V214.195H50.3041V207.125Z" fill="#0F054C"/>
<path d="M50.3041 176.131H57.3745V183.201H50.3041V176.131Z" fill="#0F054C"/>
<path d="M50.3041 145.137H57.3745V152.207H50.3041V145.137Z" fill="#0F054C"/>
<path d="M50.3041 114.143H57.3745V121.213H50.3041V114.143Z" fill="#0F054C"/>
<path d="M50.3041 83.1465H57.3745V90.217H50.3041V83.1465Z" fill="#0F054C"/>
<path d="M50.3041 52.1523H57.3745V59.2228H50.3041V52.1523Z" fill="#0F054C"/>
<path d="M81.2973 331.105H88.3677V338.176H81.2973V331.105Z" fill="#0F054C"/>
<path d="M81.2973 300.109H88.3677V307.18H81.2973V300.109Z" fill="#0F054C"/>
<path d="M81.2973 269.115H88.3677V276.186H81.2973V269.115Z" fill="#0F054C"/>
<path d="M81.2973 238.121H88.3677V245.192H81.2973V238.121Z" fill="#0F054C"/>
<path d="M81.2973 207.125H88.3677V214.195H81.2973V207.125Z" fill="#0F054C"/>
<path d="M81.2973 176.131H88.3677V183.201H81.2973V176.131Z" fill="#0F054C"/>
<path d="M81.2973 145.137H88.3677V152.207H81.2973V145.137Z" fill="#0F054C"/>
<path d="M81.2973 114.143H88.3677V121.213H81.2973V114.143Z" fill="#0F054C"/>
<path d="M81.2973 83.1465H88.3677V90.217H81.2973V83.1465Z" fill="#0F054C"/>
<path d="M81.2973 52.1523H88.3677V59.2228H81.2973V52.1523Z" fill="#0F054C"/>
<path d="M112.293 331.105H119.363V338.176H112.293V331.105Z" fill="#0F054C"/>
<path d="M112.293 300.109H119.363V307.18H112.293V300.109Z" fill="#0F054C"/>
<path d="M112.293 269.115H119.363V276.186H112.293V269.115Z" fill="#0F054C"/>
<path d="M112.293 238.121H119.363V245.192H112.293V238.121Z" fill="#0F054C"/>
<path d="M112.293 207.125H119.363V214.195H112.293V207.125Z" fill="#0F054C"/>
<path d="M112.293 176.131H119.363V183.201H112.293V176.131Z" fill="#0F054C"/>
<path d="M112.293 145.137H119.363V152.207H112.293V145.137Z" fill="#0F054C"/>
<path d="M112.293 114.143H119.363V121.213H112.293V114.143Z" fill="#0F054C"/>
<path d="M112.293 83.1465H119.363V90.217H112.293V83.1465Z" fill="#0F054C"/>
<path d="M112.293 52.1523H119.363V59.2228H112.293V52.1523Z" fill="#0F054C"/>
<path d="M143.287 176.131H150.357V183.201H143.287V176.131Z" fill="#0F054C"/>
<path d="M143.287 145.137H150.357V152.207H143.287V145.137Z" fill="#0F054C"/>
<path d="M143.287 114.143H150.357V121.213H143.287V114.143Z" fill="#0F054C"/>
<path d="M143.287 83.1465H150.357V90.217H143.287V83.1465Z" fill="#0F054C"/>
<path d="M143.287 52.1523H150.357V59.2228H143.287V52.1523Z" fill="#0F054C"/>
<path d="M174.282 176.131H181.352V183.201H174.282V176.131Z" fill="#0F054C"/>
<path d="M174.282 145.137H181.352V152.207H174.282V145.137Z" fill="#0F054C"/>
<path d="M174.282 114.143H181.352V121.213H174.282V114.143Z" fill="#0F054C"/>
<path d="M174.282 83.1465H181.352V90.217H174.282V83.1465Z" fill="#0F054C"/>
<path d="M174.282 52.1523H181.352V59.2228H174.282V52.1523Z" fill="#0F054C"/>
<path d="M205.277 176.131H212.348V183.201H205.277V176.131Z" fill="#0F054C"/>
<path d="M205.277 145.137H212.348V152.207H205.277V145.137Z" fill="#0F054C"/>
<path d="M205.277 114.143H212.348V121.213H205.277V114.143Z" fill="#0F054C"/>
<path d="M205.277 83.1465H212.348V90.217H205.277V83.1465Z" fill="#0F054C"/>
<path d="M205.277 52.1523H212.348V59.2228H205.277V52.1523Z" fill="#0F054C"/>
<path d="M236.271 176.131H243.342V183.201H236.271V176.131Z" fill="#0F054C"/>
<path d="M236.271 145.137H243.342V152.207H236.271V145.137Z" fill="#0F054C"/>
<path d="M236.271 114.143H243.342V121.213H236.271V114.143Z" fill="#0F054C"/>
<path d="M236.271 83.1465H243.342V90.217H236.271V83.1465Z" fill="#0F054C"/>
<path d="M236.271 52.1523H243.342V59.2228H236.271V52.1523Z" fill="#0F054C"/>
<path d="M267.266 114.143H274.336V121.213H267.266V114.143Z" fill="#0F054C"/>
<path d="M267.266 83.1465H274.336V90.217H267.266V83.1465Z" fill="#0F054C"/>
<path d="M267.266 52.1523H274.336V59.2228H267.266V52.1523Z" fill="#0F054C"/>
<path d="M298.262 114.143H305.332V121.213H298.262V114.143Z" fill="#0F054C"/>
<path d="M298.262 83.1465H305.332V90.217H298.262V83.1465Z" fill="#0F054C"/>
<path d="M298.262 52.1523H305.332V59.2228H298.262V52.1523Z" fill="#0F054C"/>
<path d="M329.256 114.143H336.326V121.213H329.256V114.143Z" fill="#0F054C"/>
<path d="M50.3041 548.066H57.3745V555.137H50.3041V548.066Z" fill="#0F054C"/>
<path d="M50.3041 517.072H57.3745V524.143H50.3041V517.072Z" fill="#0F054C"/>
<path d="M50.3041 486.078H57.3745V493.149H50.3041V486.078Z" fill="#0F054C"/>
<path d="M50.3041 455.082H57.3745V462.152H50.3041V455.082Z" fill="#0F054C"/>
<path d="M50.3041 424.088H57.3745V431.158H50.3041V424.088Z" fill="#0F054C"/>
<path d="M50.3041 393.094H57.3745V400.164H50.3041V393.094Z" fill="#0F054C"/>
<path d="M50.3041 362.1H57.3745V369.17H50.3041V362.1Z" fill="#0F054C"/>
<path d="M81.2973 455.082H88.3677V462.152H81.2973V455.082Z" fill="#0F054C"/>
<path d="M81.2973 424.088H88.3677V431.158H81.2973V424.088Z" fill="#0F054C"/>
<path d="M81.2973 393.094H88.3677V400.164H81.2973V393.094Z" fill="#0F054C"/>
<path d="M81.2973 362.1H88.3677V369.17H81.2973V362.1Z" fill="#0F054C"/>
<path d="M112.293 455.082H119.363V462.152H112.293V455.082Z" fill="#0F054C"/>
<path d="M112.293 424.088H119.363V431.158H112.293V424.088Z" fill="#0F054C"/>
<path d="M112.293 393.094H119.363V400.164H112.293V393.094Z" fill="#0F054C"/>
<path d="M112.293 362.1H119.363V369.17H112.293V362.1Z" fill="#0F054C"/>
<path d="M329.256 83.1465H336.326V90.217H329.256V83.1465Z" fill="#0F054C"/>
<path d="M329.256 52.1523H336.326V59.2228H329.256V52.1523Z" fill="#0F054C"/>
<path d="M360.25 114.143H367.321V121.213H360.25V114.143Z" fill="#0F054C"/>
<path d="M360.25 83.1465H367.321V90.217H360.25V83.1465Z" fill="#0F054C"/>
<path d="M360.25 52.1523H367.321V59.2228H360.25V52.1523Z" fill="#0F054C"/>
<path d="M391.246 114.143H398.316V121.213H391.246V114.143Z" fill="#0F054C"/>
<path d="M391.246 83.1465H398.316V90.217H391.246V83.1465Z" fill="#0F054C"/>
<path d="M391.246 52.1523H398.316V59.2228H391.246V52.1523Z" fill="#0F054C"/>
<path d="M422.24 114.143H429.311V121.213H422.24V114.143Z" fill="#0F054C"/>
<path d="M422.24 83.1465H429.311V90.217H422.24V83.1465Z" fill="#0F054C"/>
<path d="M422.24 52.1523H429.311V59.2228H422.24V52.1523Z" fill="#0F054C"/>
<path d="M453.234 114.143H460.305V121.213H453.234V114.143Z" fill="#0F054C"/>
<path d="M453.234 83.1465H460.305V90.217H453.234V83.1465Z" fill="#0F054C"/>
<path d="M453.234 52.1523H460.305V59.2228H453.234V52.1523Z" fill="#0F054C"/>
<path d="M484.229 114.143H491.299V121.213H484.229V114.143Z" fill="#0F054C"/>
<path d="M484.229 83.1465H491.299V90.217H484.229V83.1465Z" fill="#0F054C"/>
<path d="M484.229 52.1523H491.299V59.2228H484.229V52.1523Z" fill="#0F054C"/>
<path d="M515.223 52.1523H522.293V59.2228H515.223V52.1523Z" fill="#0F054C"/>
<path d="M546.219 52.1523H553.289V59.2228H546.219V52.1523Z" fill="#0F054C"/>
<path d="M577.213 52.1523H584.284V59.2228H577.213V52.1523Z" fill="#0F054C"/>
<path d="M608.207 52.1523H615.278V59.2228H608.207V52.1523Z" fill="#0F054C"/>
<path d="M639.202 52.1523H646.272V59.2228H639.202V52.1523Z" fill="#0F054C"/>
<path d="M670.198 52.1523H677.268V59.2228H670.198V52.1523Z" fill="#0F054C"/>
<path d="M701.192 52.1523H708.262V59.2228H701.192V52.1523Z" fill="#0F054C"/>
</g>
</g>
<mask id="mask5_322_2" style="mask-type:luminance" maskUnits="userSpaceOnUse" x="-2" y="0" width="1951" height="1301">
<path d="M-1.71985 0.128906H1949V1300.61H-1.71985V0.128906Z" fill="white"/>
</mask>
<g mask="url(#mask5_322_2)">
<path d="M1050.04 1865.06C826.58 1641.6 923.438 1182.44 1266.38 839.503C1609.32 496.563 2068.48 399.705 2291.93 623.165C2515.39 846.624 2418.54 1305.78 2075.6 1648.72C1732.66 1991.66 1273.5 2088.52 1050.04 1865.06Z" fill="url(#paint4_radial_322_2)"/>
<path d="M950.203 147.969C726.744 371.428 267.587 274.57 -75.3534 -68.3697C-418.293 -411.31 -515.151 -870.467 -291.692 -1093.93C-68.2327 -1317.39 390.925 -1220.53 733.865 -877.588C1076.8 -534.648 1173.66 -75.4903 950.203 147.969Z" fill="url(#paint5_radial_322_2)"/>
</g>
<defs>
<radialGradient id="paint0_radial_322_2" cx="0" cy="0" r="1" gradientUnits="userSpaceOnUse" gradientTransform="translate(680.495 1300.61) rotate(180) scale(668.716 668.716)">
<stop stop-color="white"/>
<stop offset="0.043321" stop-color="white"/>
<stop offset="0.106467" stop-color="white"/>
<stop offset="0.181764" stop-color="white"/>
<stop offset="0.266415" stop-color="#9199EB"/>
<stop offset="0.35767" stop-color="#596AF1"/>
<stop offset="0.433036" stop-color="#5472D8"/>
<stop offset="1" stop-color="#AAA9FC" stop-opacity="0"/>
</radialGradient>
<radialGradient id="paint1_radial_322_2" cx="0" cy="0" r="1" gradientUnits="userSpaceOnUse" gradientTransform="translate(1235.28 269.134) rotate(180) scale(391.759 391.759)">
<stop stop-color="#E2E8EB"/>
<stop offset="0.254216" stop-color="#B8DEFF"/>
<stop offset="0.532974" stop-color="#D6E5F1" stop-opacity="0.626222"/>
<stop offset="0.823381" stop-color="white" stop-opacity="0.28"/>
<stop offset="1" stop-color="white" stop-opacity="0"/>
</radialGradient>
<radialGradient id="paint2_radial_322_2" cx="0" cy="0" r="1" gradientUnits="userSpaceOnUse" gradientTransform="translate(1996.22 984.175) rotate(180) scale(391.759 391.759)">
<stop stop-color="#E2E8EB"/>
<stop offset="0.254216" stop-color="#B8DEFF"/>
<stop offset="0.532974" stop-color="#D6E5F1" stop-opacity="0.626222"/>
<stop offset="0.823381" stop-color="#EFECE4" stop-opacity="0.236823"/>
<stop offset="1" stop-color="#F8EEE0" stop-opacity="0"/>
</radialGradient>
<radialGradient id="paint3_radial_322_2" cx="0" cy="0" r="1" gradientUnits="userSpaceOnUse" gradientTransform="translate(-23.5892 986.883) rotate(90) scale(584.666 584.666)">
<stop stop-color="#0F054C"/>
<stop offset="1" stop-color="#5B43F1" stop-opacity="0"/>
</radialGradient>
<radialGradient id="paint4_radial_322_2" cx="0" cy="0" r="1" gradientUnits="userSpaceOnUse" gradientTransform="translate(1670.99 1244.11) rotate(135) scale(878.152 572.203)">
<stop stop-color="#42E8E0"/>
<stop offset="1" stop-color="white" stop-opacity="0"/>
</radialGradient>
<radialGradient id="paint5_radial_322_2" cx="0" cy="0" r="1" gradientUnits="userSpaceOnUse" gradientTransform="translate(329.256 -472.979) rotate(45) scale(878.153 572.203)">
<stop stop-color="#5472D8"/>
<stop offset="1" stop-color="#0F054C" stop-opacity="0"/>
</radialGradient>
</defs>
</svg>
