<svg width="372" height="325" viewBox="0 0 372 325" fill="none" xmlns="http://www.w3.org/2000/svg">
<g clip-path="url(#clip0_174_7793)">
<path d="M371.832 146.413C369.451 114.161 339.305 98.7938 324.449 91.8278C288.169 74.8159 215.183 65.6876 104.002 112.269C22.7161 146.325 2.45908 191.724 0.615173 225.551C-0.832611 252.112 0.537476 281.075 41.4268 308.016C78.549 332.474 149.283 337.266 200.93 276.14C266.938 198.017 376.881 214.793 371.832 146.413Z" fill="url(#paint0_radial_174_7793)"/>
<path d="M353.737 130.502C351.828 116.892 335.77 104.768 321.312 98.6526C286.003 83.7177 201.028 59.0927 96.2699 107.311C19.6803 142.563 1.88245 186.492 1.29929 218.763C0.841522 244.102 15.2779 267.407 38.0152 278.573C76.183 297.315 152.742 320.215 200.026 260.22C260.458 183.543 364.197 205.094 353.737 130.502Z" fill="url(#paint1_radial_174_7793)"/>
<path d="M119.146 288.134C144.278 288.134 170.232 279.45 191.055 253.03C215.911 221.492 251.198 206.289 279.551 194.073C313.552 179.423 340.409 167.852 333.857 136.355C331.407 124.578 315.548 112.074 301.869 106.289C266.695 91.4088 193.95 72.7713 101.958 115.114C32.1463 147.248 16.8869 187.535 16.3788 215.673C15.9667 238.484 29.0329 259.77 49.6663 269.903C67.3242 278.572 92.7833 288.134 119.146 288.134ZM332.667 136.602C339.016 167.127 312.562 178.525 279.07 192.955C250.59 205.226 215.146 220.497 190.1 252.277C147.963 305.742 84.3634 285.585 50.203 268.81C29.9899 258.885 17.1909 238.036 17.5947 215.694C18.0957 187.905 33.2267 148.089 102.466 116.219C194.033 74.0741 266.404 92.6093 301.397 107.409C314.977 113.153 330.387 125.644 332.667 136.602Z" fill="url(#paint2_linear_174_7793)"/>
<g opacity="0.11">
<path d="M169.003 177.368C172.78 175.236 177.432 175.234 181.21 177.362L253.964 218.333C255.109 218.98 255.109 220.596 253.964 221.242L180.604 262.65C177.271 264.532 173.165 264.532 169.832 262.65L96.3594 221.281C95.2141 220.635 95.2141 219.019 96.3594 218.372L169.003 177.368Z" fill="url(#paint3_linear_174_7793)"/>
</g>
<g opacity="0.11">
<path d="M169.003 165.385C172.78 163.254 177.432 163.252 181.21 165.379L253.964 206.351C255.109 206.997 255.109 208.613 253.964 209.26L180.604 250.668C177.271 252.549 173.165 252.549 169.832 250.668L96.3594 209.299C95.2141 208.652 95.2141 207.036 96.3594 206.39L169.003 165.385Z" fill="url(#paint4_linear_174_7793)"/>
</g>
<g opacity="0.11">
<path d="M169.003 153.403C172.78 151.271 177.432 151.269 181.21 153.397L253.964 194.368C255.109 195.015 255.109 196.631 253.964 197.277L180.604 238.686C177.271 240.567 173.165 240.567 169.832 238.686L96.3594 197.316C95.2141 196.67 95.2141 195.054 96.3594 194.407L169.003 153.403Z" fill="url(#paint5_linear_174_7793)"/>
</g>
<g opacity="0.11">
<path d="M169.003 141.421C172.78 139.289 177.432 139.287 181.21 141.415L253.964 182.386C255.109 183.032 255.109 184.649 253.964 185.295L180.604 226.703C177.271 228.584 173.165 228.584 169.832 226.703L96.3594 185.334C95.2141 184.687 95.2141 183.071 96.3594 182.425L169.003 141.421Z" fill="url(#paint6_linear_174_7793)"/>
</g>
<path opacity="0.11" d="M96.3593 182.425L169.003 141.421C172.78 139.289 177.432 139.287 181.21 141.415L253.964 182.386C254.536 182.709 254.823 183.275 254.823 183.84V219.788C254.823 220.353 254.536 220.919 253.964 221.242L180.604 262.65C177.271 264.532 173.165 264.532 169.832 262.65L96.3593 221.281C95.7867 220.958 95.5004 220.392 95.5004 219.826V183.879C95.5003 183.314 95.7867 182.748 96.3593 182.425Z" fill="url(#paint7_linear_174_7793)"/>
<g opacity="0.11">
<path d="M169.003 127.798C172.78 125.666 177.432 125.664 181.21 127.792L253.964 168.763C255.109 169.409 255.109 171.025 253.964 171.672L180.604 213.08C177.271 214.961 173.165 214.961 169.832 213.08L96.3594 171.711C95.2141 171.064 95.2141 169.448 96.3594 168.802L169.003 127.798Z" fill="url(#paint8_linear_174_7793)"/>
</g>
<g opacity="0.11">
<path d="M169.003 115.815C172.78 113.684 177.432 113.681 181.21 115.809L253.964 156.78C255.109 157.427 255.109 159.043 253.964 159.69L180.604 201.098C177.271 202.979 173.165 202.979 169.832 201.098L96.3594 159.729C95.2141 159.082 95.2141 157.466 96.3594 156.819L169.003 115.815Z" fill="url(#paint9_linear_174_7793)"/>
</g>
<g opacity="0.11">
<path d="M169.003 103.833C172.78 101.701 177.432 101.699 181.21 103.827L253.964 144.798C255.109 145.444 255.109 147.061 253.964 147.707L180.604 189.115C177.271 190.997 173.165 190.997 169.832 189.115L96.3594 147.746C95.2141 147.1 95.2141 145.483 96.3594 144.837L169.003 103.833Z" fill="url(#paint10_linear_174_7793)"/>
</g>
<g opacity="0.11">
<path d="M169.003 91.8503C172.78 89.7186 177.432 89.7165 181.21 91.8444L253.964 132.816C255.109 133.462 255.109 135.078 253.964 135.725L180.604 177.133C177.271 179.014 173.165 179.014 169.832 177.133L96.3594 135.764C95.2141 135.117 95.2141 133.501 96.3594 132.855L169.003 91.8503Z" fill="url(#paint11_linear_174_7793)"/>
</g>
<path opacity="0.5" d="M96.3593 132.855L169.003 91.8504C172.78 89.7187 177.432 89.7164 181.21 91.8443L253.964 132.816C254.536 133.139 254.823 133.705 254.823 134.27V170.217C254.823 170.783 254.536 171.349 253.964 171.672L180.604 213.08C177.271 214.961 173.165 214.961 169.832 213.08L96.3593 171.711C95.7867 171.388 95.5004 170.822 95.5004 170.256V134.309C95.5003 133.743 95.7867 133.178 96.3593 132.855Z" fill="url(#paint12_linear_174_7793)"/>
<g opacity="0.11">
<path d="M169.003 91.8503C172.78 89.7186 177.432 89.7165 181.21 91.8444L253.964 132.816C255.109 133.462 255.109 135.078 253.964 135.725L180.604 177.133C177.271 179.014 173.165 179.014 169.832 177.133L96.3594 135.764C95.2141 135.117 95.2141 133.501 96.3594 132.855L169.003 91.8503Z" fill="url(#paint13_linear_174_7793)"/>
</g>
<path d="M96.3593 134.109L169.832 175.479C173.165 177.36 177.271 177.36 180.604 175.479L253.964 134.07C254.246 133.911 254.458 133.692 254.601 133.443C255.038 134.202 254.827 135.239 253.964 135.725L180.604 177.134C177.271 179.015 173.165 179.015 169.832 177.134L96.3593 135.764C95.4965 135.277 95.2851 134.241 95.7222 133.482C95.8653 133.731 96.0768 133.95 96.3593 134.109Z" fill="url(#paint14_linear_174_7793)"/>
<path d="M246.269 146.768L244.461 147.789V146.605L246.269 145.584V146.768Z" fill="#FD9B38"/>
<path d="M246.269 154.779L244.461 155.8V148.868L246.269 147.848V154.779Z" fill="#FD9B38"/>
<path d="M246.269 158.611L244.461 159.632V156.88L246.269 155.859V158.611Z" fill="#FD9B38"/>
<path d="M246.269 162.584L244.461 163.604V160.853L246.269 159.832V162.584Z" fill="#FD9B38"/>
<path d="M248.965 149.078L247.157 150.098V147.347L248.965 146.326V149.078Z" fill="#FD9B38"/>
<path d="M248.965 154.337L247.157 155.358V151.317L248.965 150.297V154.337Z" fill="#FD9B38"/>
<path d="M248.965 159.181L247.157 160.201V156.735L248.965 155.715V159.181Z" fill="#FD9B38"/>
<path d="M246.269 166.552L244.461 167.573V164.821L246.269 163.801V166.552Z" fill="#FD9B38"/>
<path d="M248.965 145.247L247.157 146.267V145.083L248.965 144.062V145.247Z" fill="#FD9B38"/>
<path d="M247.617 169.645L244.461 171.427V170.277L247.617 168.496V169.645Z" fill="#FD9B38"/>
<path opacity="0.2" d="M202.781 149.987C187.527 158.597 162.796 158.597 147.542 149.986C132.288 141.376 132.288 127.417 147.542 118.807C162.795 110.197 187.526 110.197 202.78 118.807C218.034 127.417 218.034 141.377 202.781 149.987Z" fill="#180D5B"/>
<path d="M174.96 116.23L174.884 116.573L174.777 116.345C174.777 116.345 174.243 118.123 174.701 119.011C175.158 119.899 175.834 120.997 176.801 122.24C177.766 123.483 179.312 126.067 179.719 126.564C180.126 127.061 182.485 128.99 185.434 129.288C188.382 129.587 189.135 127.936 188.891 127.042C188.647 126.147 187.061 123.781 185.332 121.852C183.603 119.924 182.281 117.438 182.281 117.438L174.96 116.23Z" fill="#160A5B"/>
<path d="M183.822 108.401C183.822 108.401 183.73 110.25 183.929 111.011C184.127 111.771 188.459 112.01 189.999 112.204C191.54 112.398 194.224 113.471 195.063 113.874C195.902 114.277 201.53 114.858 202.217 112.83C202.903 110.802 199.395 109.102 197.016 108.565C194.636 108.028 190.747 106.865 190.747 106.865L183.822 108.401Z" fill="#160A5B"/>
<path d="M168.798 71.7761C168.798 71.7761 168.645 76.9655 170.415 84.1232C172.184 91.2809 171.97 96.2914 171.97 96.2914C171.97 96.2914 170.12 104.394 171.747 109.921C173.374 115.449 174.756 116.999 174.756 116.999C174.756 116.999 178.01 121.214 182.281 117.437C182.281 117.437 179.881 109.842 179.597 103.797C179.597 103.797 181.712 99.3554 182.444 95.3928C182.444 95.3928 183.054 101.69 183.42 104.235C183.42 104.235 183.054 107.973 184.071 109.484C185.088 110.995 189.684 111.432 191.148 108.808C192.612 106.183 189.928 107.468 190.741 95.3928C190.741 95.3928 194.971 90.2372 195.582 80.7531C196.192 71.269 196.131 67.5113 195.582 65.6621C195.032 63.8131 185.657 57.1523 185.657 57.1523L180.369 63.7534L168.798 71.7761Z" fill="#24126A"/>
<path d="M182.678 97.7321C182.937 96.8629 183.169 95.9656 183.33 95.0898C183.33 95.0898 183.94 101.387 184.307 103.932C184.307 103.932 183.94 107.67 184.957 109.181C185.611 110.153 187.746 110.675 189.576 110.229C187.617 111.147 184.835 110.619 184.071 109.484C183.054 107.973 183.42 104.235 183.42 104.235C183.199 102.696 182.889 99.7929 182.678 97.7321Z" fill="url(#paint15_linear_174_7793)"/>
<path d="M168.798 71.7761L180.37 63.7534L185.657 57.1523C185.657 57.1523 185.806 57.2581 186.066 57.4456L181.256 63.4503L169.684 71.4731C169.684 71.4731 169.532 76.6625 171.301 83.8203C173.07 90.978 172.857 95.9884 172.857 95.9884C172.857 95.9884 171.006 104.091 172.633 109.618C174.26 115.145 175.643 116.696 175.643 116.696C175.643 116.696 177.642 119.265 180.558 118.573C177.167 120.105 174.757 116.999 174.757 116.999C174.757 116.999 173.374 115.449 171.747 109.921C170.12 104.394 171.971 96.2914 171.971 96.2914C171.971 96.2914 172.184 91.2809 170.415 84.1232C168.645 76.9655 168.798 71.7761 168.798 71.7761Z" fill="url(#paint16_linear_174_7793)"/>
<path d="M189.664 82.3652C191.189 80.5756 192.046 74.9688 192.046 74.9688C192.046 74.9688 189.664 79.6809 187.956 81.0528C186.247 82.4247 184.783 85.1686 184.478 86.9581C184.173 88.7476 182.444 95.3943 182.444 95.3943C182.444 95.3943 183.054 101.691 183.421 104.236C183.421 104.236 183.054 107.974 184.071 109.485C184.276 109.79 184.632 110.048 185.073 110.249C185.071 110.177 184.815 101.914 185.073 98.4106C185.332 94.8914 188.139 84.1546 189.664 82.3652Z" fill="#160A5B"/>
<path d="M154.718 33.5273C154.718 33.5273 150.678 41.248 150.271 41.8445C149.864 42.4409 142.299 51.8654 141.567 57.3133C141.567 57.3133 140.998 59.4209 143.601 61.2897C146.204 63.1586 159.341 71.3107 160.155 71.43C160.968 71.5492 165.727 69.2826 165.931 64.1927C165.931 64.1927 155.64 59.5003 153.403 57.1541C153.403 57.1541 157.41 50.573 159.372 48.6345C159.862 48.1498 160.152 47.2619 160.31 46.2028C160.954 41.8801 159.218 37.5419 155.918 34.5974L154.718 33.5273Z" fill="#4846A5"/>
<path d="M184.935 15.4399C184.935 15.4399 191.189 17.7065 193.324 16.931C195.46 16.1556 200.707 15.4996 204.306 13.5312C207.906 11.5627 223.626 7.59621 225.955 7.45703C225.955 7.45703 225.996 7.54658 225.609 7.70571C225.223 7.86461 223.606 8.00379 223.169 9.7931C222.731 11.5827 223.697 13.73 223.962 13.8792C224.226 14.0282 224.379 13.3919 225.884 12.716C227.389 12.0399 228.314 12.0798 228.314 12.0798L228.883 12.7854L229.229 13.3025C229.229 13.3025 228.487 15.4697 226.473 15.6189C224.46 15.7679 211.526 21.0469 210.712 21.2855C209.899 21.524 199.039 26.1011 197.005 26.8149C194.972 27.5287 193.385 28.4432 193.385 28.4432C193.385 28.4432 187.04 24.3076 186.837 24.3076C186.633 24.3076 184.935 15.4399 184.935 15.4399Z" fill="#24126A"/>
<path d="M241.482 4.88035C241.218 4.94008 237.944 6.01377 237.944 6.01377C237.944 6.01377 239.245 6.6699 239.367 7.24659C239.489 7.82291 239.103 11.0638 238.981 11.2626C238.859 11.4615 238.188 11.899 237.984 12.0183C237.781 12.1375 237.272 13.2511 236.805 13.1118C236.337 12.9727 236.194 12.396 236.194 12.396C236.194 12.396 235.829 12.2171 235.717 12.1475C235.605 12.078 233.266 12.2866 232.493 12.7738C231.72 13.2609 229.951 13.5195 229.229 13.3007C228.507 13.0821 227.438 12.5645 227.206 12.4357C227.206 12.4357 226.402 12.5552 225.955 12.7836C225.507 13.0124 224.084 13.9469 223.871 14.0264C223.657 14.1059 220.738 8.50898 225.955 7.45525C225.955 7.45525 228.121 7.26642 229.056 6.82892C229.992 6.39129 232.636 4.40318 233.612 4.3634C234.588 4.32373 235.584 4.64189 235.584 4.64189C235.584 4.64189 241.482 2.99151 241.97 3.50846C242.458 4.02554 241.747 4.82085 241.482 4.88035ZM237.214 8.71787C236.52 8.73771 236.024 8.01928 236.024 8.01928C235.567 8.31018 235.117 7.95224 235.117 7.95224C235.117 8.05663 234.308 8.20567 234.308 8.20567C234.308 8.20567 233.942 8.50411 233.485 8.832C233.027 9.16012 233.637 10.1294 233.637 10.1294C234.08 10.1666 234.598 9.95045 235.033 9.74922C235.467 9.54787 235.857 9.57025 236.154 9.45832C236.451 9.34651 237.214 8.71787 237.214 8.71787Z" fill="#FCD1C5"/>
<path d="M195.582 65.6621C195.033 63.8131 185.657 57.1523 185.657 57.1523L183.031 60.4313L180.776 69.0024L168.801 72.6463C168.802 72.6566 169.437 78.5056 179.19 77.8304C188.952 77.1543 190.091 69.7581 190.091 69.7581C190.091 69.7581 191.174 72.1876 195.981 72.8221C196.091 68.9027 195.941 66.8731 195.582 65.6621Z" fill="#160A5B"/>
<path d="M166.581 20.2491L164.934 24.3848C164.934 24.3848 156.996 31.0989 154.718 33.5246C154.718 33.5246 158.64 40.8775 159.372 48.6317C159.372 48.6317 163.002 51.5246 164.1 52.8567C165.198 54.1888 167.974 60.3526 168.859 62.3806C169.744 64.4087 167.273 70.5225 167.273 70.5225C167.273 70.5225 170.649 76.6165 176.079 76.4177C181.509 76.2189 185.21 72.9779 185.901 67.212C186.593 61.4461 186.39 60.6111 186.39 60.6111C186.39 60.6111 188.83 67.6893 192.531 67.6893C196.232 67.6893 202.11 61.5455 202.11 61.5455C202.11 61.5455 206.076 58.0262 205.71 56.4356C205.343 54.8451 196.375 41.0861 195.887 38.8195C195.399 36.5529 193.385 28.4408 193.385 28.4408L184.935 15.4375L179.782 15.676L166.581 20.2491Z" fill="#453C9E"/>
<path d="M176.304 74.9627C181.498 74.7723 185.08 71.7709 185.989 66.4648C185.961 66.7082 185.933 66.9499 185.901 67.2132C185.21 72.9791 181.508 76.2201 176.079 76.4189C170.649 76.6177 167.273 70.5237 167.273 70.5237C167.273 70.5237 167.452 70.0763 167.695 69.3939C168.48 70.6441 171.626 75.134 176.304 74.9627Z" fill="url(#paint17_linear_174_7793)"/>
<path d="M166.581 20.25C166.581 20.25 166.541 22.7154 167.537 25.1612C168.534 27.6068 171.787 41.3854 179.17 46.0975L182.007 47.8572V39.0888C182.007 39.0888 181.956 33.6906 180.695 30.271C179.434 26.8511 179.475 22.6757 179.475 22.6757C179.475 22.6757 177.406 22.119 177.403 22.1588C177.401 22.1986 166.581 20.25 166.581 20.25Z" fill="#F0F6FF"/>
<path d="M175.677 26.6534C175.677 26.6534 176.989 27.1753 177.553 26.3402C178.117 25.5053 178.697 23.8201 178.544 23.0447C178.544 23.0447 182.037 23.2137 182.729 21.4243C183.42 19.6348 182.668 19.1677 182.556 18.6109C182.444 18.0542 182.342 16.5929 181.874 15.5292L181.824 15.0718C181.824 15.0718 182.535 14.4753 182.21 13.849C181.884 13.2227 179.976 11.2742 179.782 10.9463C179.587 10.6182 179.831 8.20232 179.088 6.99955C178.346 5.79641 176.912 4.12645 176.912 4.12645C176.912 4.12645 169.469 -1.55015 163.612 4.12645C157.755 9.80281 166.581 20.2512 166.581 20.2512C166.581 20.2512 167.288 23.6263 168.996 24.9685C170.704 26.3106 175.677 26.6534 175.677 26.6534Z" fill="#FCD1C5"/>
<path d="M170.234 12.829C170.238 12.6197 170.211 12.4099 170.141 12.2123C169.921 11.5912 169.55 9.91162 171.34 8.63913C173.577 7.04838 177.523 5.61688 177.401 4.02636C177.278 2.43573 171.055 -1.5012 166.459 0.606508C161.863 2.71397 157.551 8.04261 160.683 13.6892C163.815 19.336 166.581 20.2505 166.581 20.2505C166.581 20.2505 167.517 20.0617 166.678 19.1222C165.839 18.1827 164.314 15.8118 165.58 15.0662C166.846 14.3206 169.042 15.9311 169.332 16.2889C169.444 16.4271 169.558 16.6011 169.656 16.7624C169.819 17.0303 170.16 17.1368 170.449 17.0049L170.557 16.9556C170.847 16.8231 170.986 16.4956 170.875 16.2015L170.325 14.7403C170.243 14.5221 170.204 14.2906 170.208 14.0581L170.234 12.829Z" fill="#AA8383"/>
<path d="M175.489 28.2441C175.489 28.2441 173.831 29.3974 172.855 31.6045C172.855 31.6045 174.625 29.8149 175.631 29.457C175.631 29.457 177.584 30.3517 177.584 30.9484C177.584 31.5448 177.767 35.1214 178.224 37.046C178.682 38.9709 178.628 45.7308 178.628 45.7308L179.863 46.5289L180.451 43.5638L180.226 37.2411L179.078 31.485C179.078 31.485 178.865 29.3081 178.773 29.1886C178.682 29.0694 175.489 28.2441 175.489 28.2441Z" fill="#C4CCD6"/>
<path d="M175.489 28.2448C175.489 28.2448 177.38 26.2765 178.336 26.2366C179.292 26.1969 179.805 26.7015 179.823 26.8153C179.842 26.9291 180.741 30.0095 180.741 30.0095C180.741 30.0095 182.525 35.3827 182.342 41.6458C182.159 47.9089 182.007 47.8591 182.007 47.8591L179.662 46.4045C179.662 46.4045 180.298 41.9242 179.017 36.7347C177.736 31.5454 178.865 30.77 178.255 30.233C177.644 29.6961 175.194 28.881 175.489 28.2448Z" fill="#FD9B38"/>
<path d="M164.1 52.8578C165.198 54.1899 167.916 60.3446 168.801 62.3726C168.944 62.7005 169.056 63.1454 169.048 63.6438C169.27 63.7855 169.408 63.8729 169.408 63.8729L170.595 62.7395C170.595 62.7395 169.53 58.9817 167.822 54.3292C166.114 49.6767 159.372 48.6328 159.372 48.6328C159.372 48.6328 163.002 51.5257 164.1 52.8578Z" fill="#24126A"/>
<path d="M165.93 64.3499C165.93 64.3499 167.862 61.6061 168.472 61.248C168.472 61.248 168.33 62.0235 169.428 62.5007C170.527 62.978 176.272 65.1549 176.47 65.4086C176.668 65.662 176.455 65.9752 176.089 66.0499C176.089 66.0499 177.278 66.4475 177.766 66.4375C178.255 66.4275 178.905 67.0339 178.58 67.5509C178.255 68.0679 177.98 68.028 177.98 68.028C177.98 68.028 178.122 68.6047 177.766 68.7339C177.41 68.8632 176.556 68.8831 176.556 68.8831C176.556 68.8831 176.729 69.4596 176.251 69.6884C175.773 69.9169 173.445 70.1655 173.445 70.1655C173.445 70.1655 171.625 69.9766 171.106 69.9667C170.587 69.9568 168.218 70.5233 167.212 70.3843C166.205 70.245 162.88 69.0918 162.544 68.898C162.209 68.7041 165.93 64.3499 165.93 64.3499Z" fill="#FCD1C5"/>
<path d="M164.558 25.7285L164.802 29.4265L166.846 30.0528L165.473 31.1564C165.473 31.1564 171.015 43.4737 178.092 47.3707C178.092 47.3707 171.34 45.0246 164.954 31.2658C164.954 31.2658 165.625 30.4903 165.829 30.2717L164.405 29.6552L164.558 25.7285Z" fill="#24126A"/>
<path d="M182.647 25.3398C182.647 25.3398 185.157 37.9058 183.017 47.3699C183.017 47.3699 185.589 42.8169 183.264 25.3398H182.647Z" fill="#24126A"/>
<path d="M239.233 6.97628C238.872 6.48281 237.943 6.01367 237.943 6.01367C237.943 6.01367 235.269 7.07726 234.812 7.28616C234.812 7.28616 237.555 7.00475 239.233 6.97628Z" fill="#E2B1A6"/>
<path d="M223.871 14.0274C223.98 13.9866 224.407 13.7213 224.858 13.4417C223.083 11.1056 225.033 7.72908 225.041 7.7168C221.108 9.21339 223.671 14.1017 223.871 14.0274Z" fill="#E2B1A6"/>
<path d="M162.544 68.8985C162.793 69.0423 164.688 69.7139 166.06 70.1078C166.06 70.1078 166.947 66.7115 166.746 65.5742C166.546 64.437 166.061 64.168 166.061 64.168C165.981 64.2794 165.93 64.3503 165.93 64.3503C165.93 64.3503 162.209 68.7046 162.544 68.8985Z" fill="#E2B1A6"/>
<path d="M165.93 64.1914C165.93 64.1914 166.525 66.1548 165.168 67.6759C163.81 69.1969 163.659 69.3914 163.659 69.3914H162.102C162.102 69.3914 161.294 66.9898 161.416 66.9303C161.537 66.8706 165.93 64.1914 165.93 64.1914Z" fill="#4846A5"/>
<path d="M180.451 29.0117C180.451 29.0117 181.946 37.628 181.611 40.7893C181.275 43.9507 181.397 47.3705 181.397 47.3705L181.87 47.7724L182.007 47.8576C182.007 47.8576 182.16 47.9074 182.343 41.6443C182.526 35.3812 180.741 30.008 180.741 30.008C180.741 30.008 180.612 29.5663 180.451 29.0117Z" fill="#3C2148"/>
<path d="M180.939 118.39C181.373 118.153 181.821 117.844 182.282 117.437C182.282 117.437 179.882 109.841 179.597 103.797C179.597 103.797 181.712 99.3552 182.444 95.3926C182.241 96.1788 179.78 100.437 178.668 104.791C177.556 109.145 180.939 118.39 180.939 118.39Z" fill="#160A5B"/>
<path d="M170.022 18.8614C170.021 18.8533 170.018 18.8398 170.018 18.8398C170.018 18.8398 170.02 18.8484 170.022 18.8614Z" fill="#E2B1A6"/>
<path d="M170.022 18.8613C170.066 19.0768 170.705 22.1439 171.971 23.5826C173.282 25.0736 174.294 26.5113 174.294 26.5113C175.11 26.6152 175.677 26.6544 175.677 26.6544C175.677 26.6544 176.989 27.1763 177.553 26.3412C178.118 25.5063 178.697 23.8211 178.545 23.0457C178.545 23.0457 173.831 22.5687 172.032 21.3457C170.361 20.2103 170.057 19.0252 170.022 18.8613Z" fill="#E2B1A6"/>
<path d="M168.32 61.2771C168.32 61.2771 168.573 61.7996 168.618 61.8407C168.664 61.882 168.729 61.4402 168.729 61.4402C168.729 61.4402 168.519 61.0137 168.507 61.0137C168.496 61.0137 168.32 61.2771 168.32 61.2771Z" fill="#1B2B3A"/>
<path d="M182.007 47.8574C182.007 47.8574 185.295 58.1248 186.39 60.6123L186.324 63.0817C186.324 63.0817 182.139 50.3329 182.007 47.8574Z" fill="#24126A"/>
<path d="M185.184 51.518C185.37 52.117 185.06 52.7394 184.492 52.9084C183.923 53.0775 183.311 52.7291 183.125 52.1301C182.938 51.5314 183.248 50.909 183.817 50.74C184.385 50.5709 184.997 50.9191 185.184 51.518Z" fill="#24126A"/>
<path d="M186.851 55.9479C187.037 56.5466 186.728 57.1693 186.159 57.3381C185.591 57.5074 184.979 57.1588 184.792 56.56C184.606 55.9611 184.916 55.3387 185.484 55.1696C186.053 55.0006 186.665 55.349 186.851 55.9479Z" fill="#24126A"/>
<path d="M170.325 14.741C170.243 14.5227 170.204 14.2912 170.208 14.0587L170.234 12.8296C170.239 12.6204 170.211 12.4105 170.141 12.2129C170.078 12.0347 170.004 11.7672 169.971 11.4492C169.971 11.4492 164.851 15.0937 161.606 15.2381C164.339 19.5079 166.581 20.2511 166.581 20.2511C166.581 20.2511 167.517 20.0623 166.678 19.1228C165.839 18.1833 164.314 15.8125 165.58 15.0668C166.846 14.3212 169.042 15.9317 169.332 16.2895C169.444 16.4277 169.558 16.6017 169.656 16.763C169.819 17.0309 170.16 17.1374 170.449 17.0057L170.557 16.9562C170.848 16.8237 170.986 16.496 170.875 16.2021L170.325 14.741Z" fill="#936D6D"/>
<path d="M160.636 149.018C160.636 149.018 162.947 149.574 165.186 149.661C167.424 149.746 173.507 150.94 173.357 153.159C173.205 155.391 170.025 158.593 166.042 159.067C162.054 159.541 156.928 158.42 154.324 158.489C151.72 158.558 149.94 155.962 150.959 153.475C151.973 151.004 160.636 149.018 160.636 149.018Z" fill="#160A5B"/>
<path d="M147.208 143.048C147.208 143.048 146.356 144.391 146.773 145.213C147.191 146.037 148.306 148.086 151.949 146.103C155.574 144.13 162.575 141.307 162.575 141.307C162.575 141.307 166.588 139.219 166.368 136.756C166.15 134.309 162.457 134.674 162.457 134.674L147.208 143.048Z" fill="#160A5B"/>
<path d="M170.851 108.114C170.851 108.114 169.304 124.11 166.016 130.173C162.674 136.335 161.752 147.622 161.055 149.777C160.353 151.943 158.19 155.057 154.778 155.718C151.361 156.38 150.804 154.11 150.973 152.746C151.141 151.387 152.087 149.189 152.1 147.715C152.112 146.246 151.763 145.558 151.71 144.883C151.71 144.883 147.802 146.009 147.208 143.048C147.208 143.048 147.525 142.187 147.577 141.746C147.629 141.306 147.243 130.596 147.148 129.299C147.053 128.006 147.768 121.005 148.854 117.555C149.929 114.136 149.572 106.86 149.572 106.86L160.697 105.344L170.851 108.114Z" fill="#24126A"/>
<path d="M148.853 117.557C149.929 114.138 149.571 106.863 149.571 106.863L150.544 106.73C150.587 107.738 150.817 114.124 149.833 117.265C148.752 120.713 148.047 127.708 148.144 129C148.24 130.296 148.64 140.998 148.589 141.437C148.537 141.877 148.222 142.738 148.222 142.738C148.82 145.696 152.724 144.572 152.724 144.572C152.778 145.247 153.128 145.934 153.117 147.401C153.107 148.874 152.163 151.071 151.997 152.428C151.83 153.791 152.39 156.059 155.805 155.398C155.911 155.377 156.006 155.334 156.11 155.309C155.688 155.484 155.247 155.63 154.778 155.72C151.361 156.382 150.804 154.112 150.972 152.749C151.14 151.389 152.087 149.192 152.1 147.717C152.112 146.248 151.76 145.427 151.708 144.752C151.708 144.752 147.802 146.011 147.208 143.05C147.208 143.05 147.525 142.189 147.577 141.749C147.629 141.308 147.243 130.599 147.148 129.301C147.053 128.009 147.768 121.008 148.853 117.557Z" fill="url(#paint18_linear_174_7793)"/>
<path d="M152.866 108.022C152.866 108.022 152.913 110.519 153.977 112.619C153.977 112.619 153.956 121.12 154.849 125.426C154.849 125.426 153.409 134.071 152.502 136.795C151.588 139.538 151.71 144.885 151.71 144.885C151.71 144.885 151.265 145.046 150.628 145.069C149.99 145.092 149.945 134.501 150.924 132.632C151.898 130.773 152.637 122.518 152.269 120.002C151.903 117.503 152.029 110.349 151.546 109.087C151.064 107.828 152.152 107.16 152.152 107.16L152.866 108.022Z" fill="#160A5B"/>
<path d="M162.232 50.3164C162.232 50.3164 165.463 52.6019 165.3 56.5496L162.899 56.0442C162.899 56.0442 163.613 51.6741 162.232 50.3164Z" fill="#FD9B38"/>
<path d="M160.974 111.504C153.599 111.725 149.62 108.531 149.62 108.531C149.604 107.52 149.572 106.86 149.572 106.86L160.697 105.344L170.851 108.114C170.851 108.114 170.545 111.268 169.917 115.307C168.108 115.498 166.332 111.155 166.332 111.155L161.274 111.468C161.274 111.468 168.345 111.284 160.974 111.504Z" fill="#160A5B"/>
<path d="M169.429 108.354C169.429 108.354 153.395 114.753 145.644 102.615C145.423 102.27 145.32 101.847 145.335 101.422L145.434 98.5927C145.446 98.2331 145.393 97.8769 145.278 97.5441C145.03 96.8256 144.975 96.0452 145.119 95.2851C145.719 92.1237 147.345 83.5288 147.726 81.1432C148.19 78.2348 146.613 66.5912 143.953 61.5492C141.332 56.5795 148.065 45.4019 148.065 45.4019C148.065 45.4019 149.716 42.7922 152.95 43.6867C152.95 43.6867 149.865 45.7958 151.554 48.0228C153.253 50.2647 158.321 52.0544 158.321 52.0544C158.321 52.0544 167.694 56.8089 170.902 62.5942C170.902 62.5942 172.004 65.6022 172.102 69.4078C172.2 73.2549 171.765 82.49 171.929 83.7731C172.094 85.0607 172.592 93.8595 172.54 94.2707C172.487 94.6823 169.429 108.354 169.429 108.354Z" fill="#453C9E"/>
<path d="M151.441 45.299C151.186 44.6659 151.263 44.0583 151.499 43.5251C151.944 43.5101 152.417 43.5382 152.95 43.6855C152.95 43.6855 151.998 44.3383 151.441 45.299Z" fill="url(#paint19_linear_174_7793)"/>
<path d="M164.569 109.662C164.569 109.662 155.127 84.7344 155.575 75.6862C156.013 66.8641 169.359 93.5599 169.359 93.5599L169.428 108.354C169.428 108.354 166.401 109.445 164.569 109.662Z" fill="#24126A"/>
<path d="M145.541 95.1027C145.655 95.4333 145.708 95.787 145.696 96.1443L145.599 98.9545C145.584 99.3772 145.686 99.797 145.907 100.14C153.635 112.195 169.613 105.84 169.613 105.84C169.613 105.84 171.811 96.0347 172.499 92.8594C172.534 93.6343 172.551 94.1754 172.539 94.2686C172.487 94.6801 169.428 108.352 169.428 108.352C169.428 108.352 153.394 114.751 145.643 102.613C145.422 102.268 145.32 101.845 145.335 101.42L145.433 98.5906C145.446 98.231 145.393 97.8746 145.278 97.542C145.03 96.8234 144.974 96.043 145.119 95.2829C145.181 94.9538 145.257 94.5538 145.339 94.1188C145.373 94.4532 145.431 94.7854 145.541 95.1027Z" fill="url(#paint20_linear_174_7793)"/>
<path d="M144.207 59.3437C146.86 64.3535 148.436 75.9218 147.974 78.8112C147.932 79.0774 147.872 79.4291 147.802 79.8325C147.814 75.6611 146.313 66.022 143.953 61.548C143.218 60.1537 143.236 58.2574 143.622 56.2617C143.592 57.4158 143.75 58.4797 144.207 59.3437Z" fill="url(#paint21_linear_174_7793)"/>
<path d="M169.664 80.2118C169.322 78.1787 169.122 76.1373 169.099 74.0986C169.058 70.5531 168.038 64.6723 161.477 65.6936C152.202 67.1375 156.17 79.8399 157.187 82.0585C158.21 84.291 162.268 94.3526 162.481 94.924C162.682 95.4612 169.095 108.022 171.386 111.034C171.596 111.31 171.964 111.351 172.222 111.137C173.15 110.364 175.237 108.521 175.51 107.356C175.86 105.857 174.521 100.422 174.521 100.422C174.521 100.422 170.908 86.8439 170.604 86.2117C170.376 85.7386 170.218 83.508 169.664 80.2118Z" fill="#4846A5"/>
<path d="M162.073 50.6023C162.073 50.6023 162.809 48.9642 164.511 48.7949C166.213 48.6256 167.178 48.1637 167.349 47.5476C167.52 46.9327 167.529 46.188 167.94 45.2709C168.351 44.3563 168.7 42.1086 168.693 42.0542C168.687 41.9999 169.979 41.6201 170.042 41.0637C170.105 40.5083 169.435 38.5233 169.508 38.3701C169.582 38.2168 170.275 37.0005 170.182 36.0539C170.088 35.1099 169.963 33.7422 169.447 32.5828C168.933 31.4275 165.328 24.3949 155.948 28.0175C146.464 31.6799 153.678 39.4583 152.74 44.5012C152.74 44.5012 151.897 45.563 153.442 47.3678C154.996 49.1823 159.485 49.5751 162.073 50.6023Z" fill="#FCD1C5"/>
<path d="M153.442 47.3683C151.897 45.5636 152.74 44.5018 152.74 44.5018C152.87 43.8009 152.839 43.0451 152.721 42.2556L156.433 42.948C156.433 42.948 161.914 38.1818 161.525 40.734C161.133 43.3057 162.463 43.7488 162.463 43.7488L161.339 45.1481C161.051 45.5075 161.222 45.9298 161.457 46.3253C163.021 48.9556 166.82 48.165 166.829 48.1657C166.355 48.4681 165.578 48.6892 164.511 48.7955C162.809 48.9648 162.073 50.6029 162.073 50.6029C159.485 49.5757 154.996 49.1828 153.442 47.3683Z" fill="#E2B1A6"/>
<path d="M169.852 29.9092C169.852 29.9092 170.508 31.7907 169.447 32.5823C168.383 33.3758 167.421 34.1242 167.421 34.1242L167.426 36.5106C167.426 36.8547 167.325 37.1914 167.134 37.4791L165.797 39.4942C165.539 39.8835 165.399 40.34 165.396 40.8084L165.39 41.7844C165.388 42.0711 165.172 42.3108 164.887 42.3421L164.536 42.3805C164.226 42.4145 163.948 42.1903 163.914 41.88L163.768 40.5246C163.768 40.5246 163.067 39.4349 161.525 40.733L160.141 41.2882C159.754 41.4435 159.45 41.7523 159.305 42.1434C158.917 43.1867 158.087 45.2471 157.467 45.5889C156.628 46.0515 153.383 44.4117 152.95 43.6859C152.517 42.9619 151.423 38.1261 150.745 35.8208C150.071 33.5314 150.467 27.8663 157.455 26.4196C164.413 24.9794 168.891 27.8604 169.852 29.9092Z" fill="#AA8383"/>
<path d="M152.95 43.6864C152.517 42.9624 151.423 38.1266 150.745 35.8213C150.745 35.8213 153.448 37.5815 156.955 38.1048C160.467 38.6287 167.422 34.7617 167.422 34.7617L167.426 36.5111C167.427 36.8552 167.325 37.192 167.134 37.4796L165.797 39.4947C165.539 39.884 165.399 40.3405 165.396 40.8089L165.39 41.7849C165.388 42.0717 165.172 42.3113 164.887 42.3426L164.536 42.3811C164.226 42.415 163.948 42.1908 163.914 41.8805L163.768 40.5251C163.768 40.5251 163.067 39.4354 161.525 40.7335L159.523 41.5369C159.523 41.5369 158.305 45.1275 157.467 45.5895C156.628 46.052 153.383 44.4122 152.95 43.6864Z" fill="#936D6D"/>
<path d="M152.812 43.916C152.812 43.916 150.095 45.5522 151.449 47.8731C152.813 50.2102 162.661 54.3599 163.148 54.9742C163.148 54.9742 163.536 51.4925 162.232 50.3164C162.232 50.3164 154.69 48.88 153.519 46.9974C152.354 45.125 152.812 43.916 152.812 43.916Z" fill="#F0F6FF"/>
<path d="M152.812 43.916C152.812 43.916 152.354 45.125 153.519 46.9974C154.405 48.4215 158.936 49.5901 161.091 50.0749C161.091 50.0749 160.29 50.519 158.95 52.7497C155.921 51.2134 152.245 49.2365 151.449 47.8731C150.095 45.5522 152.812 43.916 152.812 43.916Z" fill="#C4CCD6"/>
<path d="M150.975 51.3418C150.975 51.3418 155.362 53.8003 157.5 54.9104C159.645 56.0245 161.983 57.5044 161.983 57.5044L162.804 56.7036L163.789 58.8205C163.789 58.8205 167.157 60.7992 168.734 62.4479C170.318 64.1045 171.512 66.2672 171.683 66.7604C171.683 66.7604 167.476 61.3659 164.162 59.7635L163.27 59.3233L162.766 57.647L161.952 58.4887C161.952 58.4887 152.312 52.8052 150.975 51.3418Z" fill="#24126A"/>
<path d="M162.289 124.121L162.289 124.118L162.29 124.119C162.428 123.734 162.633 123.396 162.877 123.196L180.925 108.382C181.4 107.992 181.86 108.29 181.952 109.048L184.063 126.295C184.16 127.09 183.845 128.069 183.359 128.481L168.201 141.295L168.726 146.282L164.195 144.243L164.194 144.233C163.99 144.109 163.84 143.821 163.8 143.39L162.115 125.364C162.077 124.963 162.148 124.517 162.289 124.121Z" fill="url(#paint22_linear_174_7793)"/>
<path d="M185.84 110.083L181.574 108.28L181.437 108.223C181.282 108.186 181.104 108.235 180.925 108.382L162.877 123.196C162.633 123.396 162.427 123.733 162.289 124.118L162.934 124.423L166.609 126.16L182.428 112.936L185.84 110.083Z" fill="#453C9E"/>
<path d="M187.801 130.414L169.346 146.135C168.84 146.566 168.362 146.236 168.279 145.4L166.485 127.282C166.406 126.486 166.743 125.511 167.236 125.103L185.243 110.215C185.717 109.824 186.18 110.122 186.277 110.884L188.494 128.218C188.596 129.017 188.286 130.001 187.801 130.414Z" fill="#24126A"/>
<path d="M165.985 144.338L164.247 126.269C164.171 125.475 164.51 124.503 165.004 124.096L183.032 109.247C183.179 109.126 183.325 109.071 183.458 109.076C183.287 109.006 183.085 109.046 182.881 109.214L164.851 124.062C164.357 124.469 164.018 125.441 164.094 126.235L165.828 144.303C165.883 144.878 166.112 145.235 166.424 145.246C166.19 145.145 166.031 144.812 165.985 144.338Z" fill="#160A5B"/>
<path d="M172.594 117.738L171.651 117.277C171.437 117.173 171.234 117.137 171.062 117.174L170.987 117.191C170.893 117.211 170.844 117.31 170.859 117.451L170.877 117.619L173.534 118.917L173.515 118.749C173.5 118.607 173.423 118.446 173.313 118.327L173.225 118.23C173.025 118.012 172.808 117.842 172.594 117.738Z" fill="#160A5B"/>
<path d="M172.259 119.97L173.534 118.917L170.899 117.248L169.642 118.276L172.259 119.97Z" fill="#160A5B"/>
<path d="M171.32 118.788L170.376 118.326C170.162 118.222 169.959 118.186 169.787 118.223L169.711 118.24C169.617 118.26 169.568 118.359 169.583 118.501L169.6 118.669L172.259 119.97L172.241 119.802C172.226 119.66 172.148 119.499 172.039 119.379L171.951 119.282C171.751 119.063 171.534 118.893 171.32 118.788Z" fill="url(#paint23_linear_174_7793)"/>
<path d="M170.754 119.235L170.674 118.473L170.754 118.512L170.835 119.274L170.754 119.235Z" fill="#722318"/>
<path d="M170.674 118.471L171.984 117.439L172.053 117.473L170.754 118.51L170.674 118.471Z" fill="#722318"/>
<path d="M178.326 113.023L177.385 112.568C177.172 112.466 176.971 112.431 176.8 112.467L176.725 112.483C176.632 112.503 176.584 112.601 176.6 112.74L176.619 112.906L179.269 114.188L179.25 114.021C179.233 113.882 179.155 113.723 179.046 113.605L178.958 113.51C178.757 113.294 178.54 113.126 178.326 113.023Z" fill="#160A5B"/>
<path d="M178.01 115.227L179.269 114.187L176.638 112.539L175.397 113.554L178.01 115.227Z" fill="#160A5B"/>
<path d="M177.068 114.06L176.127 113.604C175.913 113.501 175.712 113.466 175.541 113.502L175.465 113.519C175.372 113.538 175.324 113.637 175.34 113.776L175.358 113.942L178.01 115.228L177.991 115.061C177.975 114.921 177.897 114.762 177.787 114.643L177.699 114.548C177.499 114.331 177.281 114.163 177.068 114.06Z" fill="url(#paint24_linear_174_7793)"/>
<path d="M176.509 114.498L176.423 113.746L176.504 113.785L176.59 114.537L176.509 114.498Z" fill="#722318"/>
<path d="M176.424 113.749L177.719 112.73L177.787 112.764L176.504 113.788L176.424 113.749Z" fill="#722318"/>
<path d="M170.165 114.859L170.505 118.076L171.359 117.374L171.025 114.249C170.976 113.794 171.205 113.206 171.535 112.936L175.21 109.932C175.538 109.664 175.845 109.812 175.896 110.263L176.248 113.354L177.091 112.662L176.726 109.491C176.612 108.499 175.935 108.173 175.213 108.762L171.295 111.959C170.565 112.555 170.059 113.852 170.165 114.859Z" fill="#453C9E"/>
<path d="M176.497 109.717L174.983 109.566L170.607 113.557L170.418 116.019L170.505 118.077L171.485 118.556L171.515 115.991L171.568 114.237L172.475 112.969C172.475 112.969 174.116 111.673 174.133 111.636C174.15 111.6 176.497 109.717 176.497 109.717Z" fill="#453C9E"/>
<path d="M177.226 113.827L176.249 113.354L175.989 111.076L176.922 111.148L177.198 111.195L177.226 113.827Z" fill="#453C9E"/>
<path d="M177.192 109.013L176.141 108.51L176.422 109.066L176.774 109.184L177.192 109.013Z" fill="#453C9E"/>
<path d="M171.141 115.334L171.485 118.555L172.338 117.852L172 114.723C171.951 114.267 172.179 113.678 172.509 113.408L176.182 110.401C176.51 110.133 176.817 110.281 176.869 110.732L177.226 113.827L178.068 113.133L177.699 109.959C177.583 108.965 176.905 108.64 176.183 109.229L172.267 112.431C171.538 113.027 171.033 114.325 171.141 115.334Z" fill="#160A5B"/>
<path d="M175.248 107.225C175.248 107.225 175.871 110.37 175.695 111.159C175.519 111.95 173.98 113.473 173.053 113.752C172.125 114.032 172.504 112.951 172.295 112.271C172.086 111.593 172.123 110.115 172.123 110.115L175.248 107.225Z" fill="#FCD1C5"/>
<path d="M172.123 110.115L175.248 107.225C175.248 107.225 175.376 107.869 175.499 108.647C175.497 108.652 174.337 110.988 172.216 111.912C172.098 111.176 172.123 110.115 172.123 110.115Z" fill="#E2B1A6"/>
<path d="M175.481 107.461C175.481 107.461 174.373 110.848 171.597 111.169L172.539 107.461C172.539 107.461 174.885 106.813 174.957 106.805C175.028 106.796 175.481 107.461 175.481 107.461Z" fill="#4846A5"/>
<path d="M157.41 67.6895C154.837 75.3504 161.282 87.2612 162.209 90.7372C163.146 94.2491 172.946 110.506 172.948 110.51C172.945 110.513 172.942 110.515 172.938 110.518C172.994 110.615 173.031 110.679 173.031 110.679C172.825 110.833 172.58 111.004 172.391 111.105C172.13 111.202 172.245 111.194 171.951 111.264C171.742 111.305 171.531 111.225 171.386 111.034C169.096 108.022 162.682 95.4613 162.482 94.9243C162.268 94.353 158.211 84.2912 157.187 82.0588C156.371 80.2789 153.649 71.7112 157.41 67.6895Z" fill="url(#paint25_linear_174_7793)"/>
<path d="M262.024 141.398C262.702 141.398 263.352 141.261 263.848 140.98L304.866 117.828C305.395 117.53 305.687 117.101 305.686 116.621C305.686 116.067 305.287 115.524 304.591 115.132L264.124 92.2894C262.886 91.5907 261.066 91.5221 259.982 92.1351L218.965 115.287C218.435 115.586 218.144 116.015 218.144 116.495C218.144 117.049 218.544 117.592 219.239 117.984L259.706 140.826C260.378 141.205 261.22 141.398 262.024 141.398ZM263.531 140.442C262.653 140.938 261.047 140.867 260.024 140.288L219.556 117.446C219.07 117.171 218.78 116.815 218.78 116.494C218.779 116.176 219.053 115.954 219.282 115.825L260.3 92.6731C261.176 92.1795 262.782 92.2507 263.807 92.8274L304.274 115.67C304.761 115.945 305.051 116.3 305.051 116.622C305.051 116.94 304.777 117.161 304.548 117.29L263.531 140.442Z" fill="#FD9B38"/>
<path d="M218.462 99.614V104.535L262.021 129.122L305.581 104.534V99.6133L218.462 99.614Z" fill="url(#paint26_linear_174_7793)"/>
<path d="M262.021 124.202L305.581 99.6142L262.022 75.0273L218.462 99.6149L262.021 124.202Z" fill="#BCBEFF"/>
<path d="M262.021 123.626L305.071 99.3262L305.581 99.6135L262.021 124.201L218.462 99.6143L218.971 99.3269L262.021 123.626Z" fill="white"/>
<path d="M262.021 118.531L295.524 99.6196L262.022 80.709L228.519 99.6201L262.021 118.531Z" fill="#0F054C"/>
<path opacity="0.5" d="M262.021 118.531L295.525 99.62L262.022 80.709L228.518 99.6204L262.021 118.531Z" fill="url(#paint27_linear_174_7793)"/>
<path opacity="0.5" d="M262.022 75.9395L228.518 94.8509V99.6194L262.022 80.708V75.9395Z" fill="url(#paint28_linear_174_7793)"/>
<path opacity="0.5" d="M262.021 80.708L295.525 99.6189V94.8503L262.022 75.9395L262.021 80.708Z" fill="url(#paint29_linear_174_7793)"/>
<path opacity="0.5" d="M262.021 113.762L295.525 94.8503L262.022 75.9395L228.518 94.8509L262.021 113.762Z" fill="url(#paint30_linear_174_7793)"/>
<path opacity="0.5" d="M262.021 102.408L275.409 94.8514L262.022 87.2949L248.634 94.8515L262.021 102.408Z" fill="#42E8E0"/>
<path opacity="0.5" d="M262.022 87.9902L249.25 95.1992L248.634 94.8516L262.022 87.2949L275.409 94.8514L274.793 95.1991L262.022 87.9902Z" fill="#42E8E0"/>
<path opacity="0.5" d="M262.021 113.763V118.531L228.518 99.6201V94.8516L262.021 113.763Z" fill="url(#paint31_linear_174_7793)"/>
<path opacity="0.5" d="M295.525 94.8516V99.6202L262.021 118.532V113.763L295.525 94.8516Z" fill="url(#paint32_linear_174_7793)"/>
<path opacity="0.8" d="M262.021 113.241L295.064 94.5898L295.525 94.8501L262.021 113.762L228.518 94.8507L228.979 94.5904L262.021 113.241Z" fill="#42E8E0"/>
<path d="M262.024 253.101C262.702 253.101 263.352 252.964 263.848 252.683L304.866 229.532C305.395 229.233 305.687 228.804 305.686 228.324C305.686 227.77 305.287 227.227 304.591 226.835L264.124 203.993C262.886 203.294 261.066 203.225 259.982 203.838L218.965 226.99C218.435 227.289 218.144 227.718 218.144 228.198C218.144 228.752 218.544 229.295 219.239 229.687L259.706 252.529C260.378 252.908 261.22 253.101 262.024 253.101ZM263.531 252.145C262.653 252.641 261.047 252.57 260.024 251.991L219.556 229.149C219.07 228.874 218.78 228.519 218.78 228.197C218.779 227.879 219.053 227.657 219.282 227.528L260.3 204.376C261.176 203.883 262.782 203.954 263.807 204.531L304.274 227.373C304.761 227.648 305.051 228.003 305.051 228.325C305.051 228.643 304.777 228.864 304.548 228.994L263.531 252.145Z" fill="#FD9B38"/>
<path d="M218.462 211.317V216.238L262.021 240.825L305.581 216.238V211.316L218.462 211.317Z" fill="url(#paint33_linear_174_7793)"/>
<path d="M262.021 235.905L305.581 211.317L262.022 186.73L218.462 211.318L262.021 235.905Z" fill="#BCBEFF"/>
<path d="M262.021 235.329L305.071 211.029L305.581 211.317L262.021 235.904L218.462 211.318L218.971 211.03L262.021 235.329Z" fill="white"/>
<path d="M262.021 230.234L295.524 211.323L262.022 192.412L228.519 211.323L262.021 230.234Z" fill="#0F054C"/>
<path opacity="0.5" d="M262.021 230.235L295.525 211.323L262.022 192.412L228.518 211.324L262.021 230.235Z" fill="url(#paint34_linear_174_7793)"/>
<path opacity="0.5" d="M262.022 187.643L228.518 206.554V211.323L262.022 192.411V187.643Z" fill="url(#paint35_linear_174_7793)"/>
<path opacity="0.5" d="M262.021 192.411L295.525 211.322V206.554L262.022 187.643L262.021 192.411Z" fill="url(#paint36_linear_174_7793)"/>
<path opacity="0.5" d="M262.021 225.465L295.525 206.554L262.022 187.643L228.518 206.554L262.021 225.465Z" fill="url(#paint37_linear_174_7793)"/>
<path opacity="0.5" d="M262.021 214.111L275.409 206.554L262.022 198.998L248.634 206.555L262.021 214.111Z" fill="#42E8E0"/>
<path opacity="0.5" d="M262.022 199.693L249.25 206.902L248.634 206.555L262.022 198.998L275.409 206.555L274.793 206.902L262.022 199.693Z" fill="#42E8E0"/>
<path opacity="0.5" d="M262.021 225.466V230.234L228.518 211.323V206.555L262.021 225.466Z" fill="url(#paint38_linear_174_7793)"/>
<path opacity="0.5" d="M295.525 206.553V211.321L262.021 230.233V225.464L295.525 206.553Z" fill="url(#paint39_linear_174_7793)"/>
<path opacity="0.8" d="M262.021 224.944L295.064 206.293L295.525 206.553L262.021 225.465L228.518 206.554L228.979 206.294L262.021 224.944Z" fill="#42E8E0"/>
<path d="M87.4237 253.101C88.1021 253.101 88.7523 252.964 89.2481 252.683L130.265 229.532C130.795 229.233 131.087 228.804 131.086 228.324C131.086 227.77 130.687 227.227 129.991 226.835L89.5239 203.993C88.2855 203.294 86.4662 203.225 85.3822 203.838L44.3647 226.99C43.8352 227.289 43.5435 227.718 43.5444 228.198C43.5444 228.752 43.9434 229.295 44.639 229.687L85.1062 252.529C85.7779 252.908 86.6199 253.101 87.4237 253.101ZM88.9308 252.145C88.0533 252.641 86.4471 252.57 85.4234 251.991L44.9564 229.149C44.4697 228.874 44.1797 228.519 44.1797 228.197C44.1788 227.879 44.4531 227.657 44.6821 227.528L85.6995 204.376C86.5761 203.883 88.1822 203.954 89.2067 204.531L129.674 227.373C130.161 227.648 130.451 228.003 130.451 228.325C130.451 228.643 130.177 228.864 129.948 228.994L88.9308 252.145Z" fill="#FD9B38"/>
<path d="M43.8619 211.317V216.238L87.4205 240.825L130.98 216.238V211.316L43.8619 211.317Z" fill="url(#paint40_linear_174_7793)"/>
<path d="M87.4205 235.905L130.98 211.317L87.4218 186.73L43.8619 211.318L87.4205 235.905Z" fill="#BCBEFF"/>
<path d="M87.4206 235.329L130.471 211.029L130.98 211.317L87.4206 235.904L43.8619 211.318L44.3711 211.03L87.4206 235.329Z" fill="white"/>
<path d="M87.4209 230.234L120.924 211.323L87.4219 192.412L53.9186 211.323L87.4209 230.234Z" fill="#0F054C"/>
<path opacity="0.5" d="M87.4208 230.235L120.925 211.323L87.4218 192.412L53.9177 211.324L87.4208 230.235Z" fill="url(#paint41_linear_174_7793)"/>
<path opacity="0.5" d="M87.4219 187.643L53.9178 206.554V211.323L87.4219 192.411V187.643Z" fill="url(#paint42_linear_174_7793)"/>
<path opacity="0.5" d="M87.4208 192.411L120.925 211.322V206.554L87.4218 187.643L87.4208 192.411Z" fill="url(#paint43_linear_174_7793)"/>
<path opacity="0.5" d="M87.4208 225.465L120.925 206.554L87.4218 187.643L53.9177 206.554L87.4208 225.465Z" fill="url(#paint44_linear_174_7793)"/>
<path opacity="0.5" d="M87.4212 214.111L100.809 206.554L87.4215 198.998L74.0341 206.555L87.4212 214.111Z" fill="#42E8E0"/>
<path opacity="0.5" d="M87.4215 199.693L74.65 206.902L74.0341 206.555L87.4215 198.998L100.809 206.555L100.193 206.902L87.4215 199.693Z" fill="#42E8E0"/>
<path opacity="0.5" d="M87.4209 225.466V230.234L53.9178 211.323V206.555L87.4209 225.466Z" fill="url(#paint45_linear_174_7793)"/>
<path opacity="0.5" d="M120.925 206.553V211.321L87.4208 230.233V225.464L120.925 206.553Z" fill="url(#paint46_linear_174_7793)"/>
<path opacity="0.8" d="M87.4208 224.944L120.464 206.293L120.925 206.553L87.4208 225.465L53.9177 206.554L54.3788 206.294L87.4208 224.944Z" fill="#42E8E0"/>
</g>
<defs>
<radialGradient id="paint0_radial_174_7793" cx="0" cy="0" r="1" gradientUnits="userSpaceOnUse" gradientTransform="translate(53.9955 313.276) rotate(-177.91) scale(237.858 239.201)">
<stop stop-color="#42E8E0"/>
<stop offset="1" stop-color="#180D5B"/>
</radialGradient>
<radialGradient id="paint1_radial_174_7793" cx="0" cy="0" r="1" gradientUnits="userSpaceOnUse" gradientTransform="translate(125.477 93.6153) rotate(180) scale(217.01 217.142)">
<stop stop-color="#2B237C"/>
<stop offset="1" stop-color="#180D5B"/>
</radialGradient>
<linearGradient id="paint2_linear_174_7793" x1="334.847" y1="188.612" x2="16.3693" y2="188.612" gradientUnits="userSpaceOnUse">
<stop stop-color="#180D5B"/>
<stop offset="0.0960556" stop-color="#311A49"/>
<stop offset="0.261623" stop-color="#5E3745"/>
<stop offset="0.476771" stop-color="#834E42"/>
<stop offset="0.733219" stop-color="#B16E32"/>
<stop offset="1" stop-color="#F2994A"/>
</linearGradient>
<linearGradient id="paint3_linear_174_7793" x1="254.823" y1="219.914" x2="95.5004" y2="219.914" gradientUnits="userSpaceOnUse">
<stop stop-color="#5761D7"/>
<stop offset="0.0725764" stop-color="#5472D8"/>
<stop offset="0.279069" stop-color="#4E9CDB"/>
<stop offset="0.480102" stop-color="#49BDDD"/>
<stop offset="0.671509" stop-color="#45D5DF"/>
<stop offset="0.849265" stop-color="#43E3E0"/>
<stop offset="1" stop-color="#42E8E0"/>
</linearGradient>
<linearGradient id="paint4_linear_174_7793" x1="254.823" y1="207.932" x2="95.5004" y2="207.932" gradientUnits="userSpaceOnUse">
<stop stop-color="#5761D7"/>
<stop offset="0.0725764" stop-color="#5472D8"/>
<stop offset="0.279069" stop-color="#4E9CDB"/>
<stop offset="0.480102" stop-color="#49BDDD"/>
<stop offset="0.671509" stop-color="#45D5DF"/>
<stop offset="0.849265" stop-color="#43E3E0"/>
<stop offset="1" stop-color="#42E8E0"/>
</linearGradient>
<linearGradient id="paint5_linear_174_7793" x1="254.823" y1="195.95" x2="95.5004" y2="195.95" gradientUnits="userSpaceOnUse">
<stop stop-color="#5761D7"/>
<stop offset="0.0725764" stop-color="#5472D8"/>
<stop offset="0.279069" stop-color="#4E9CDB"/>
<stop offset="0.480102" stop-color="#49BDDD"/>
<stop offset="0.671509" stop-color="#45D5DF"/>
<stop offset="0.849265" stop-color="#43E3E0"/>
<stop offset="1" stop-color="#42E8E0"/>
</linearGradient>
<linearGradient id="paint6_linear_174_7793" x1="254.823" y1="183.967" x2="95.5004" y2="183.967" gradientUnits="userSpaceOnUse">
<stop stop-color="#5761D7"/>
<stop offset="0.0725764" stop-color="#5472D8"/>
<stop offset="0.279069" stop-color="#4E9CDB"/>
<stop offset="0.480102" stop-color="#49BDDD"/>
<stop offset="0.671509" stop-color="#45D5DF"/>
<stop offset="0.849265" stop-color="#43E3E0"/>
<stop offset="1" stop-color="#42E8E0"/>
</linearGradient>
<linearGradient id="paint7_linear_174_7793" x1="254.823" y1="201.941" x2="95.5004" y2="201.941" gradientUnits="userSpaceOnUse">
<stop stop-color="#5761D7"/>
<stop offset="0.0725764" stop-color="#5472D8"/>
<stop offset="0.279069" stop-color="#4E9CDB"/>
<stop offset="0.480102" stop-color="#49BDDD"/>
<stop offset="0.671509" stop-color="#45D5DF"/>
<stop offset="0.849265" stop-color="#43E3E0"/>
<stop offset="1" stop-color="#42E8E0"/>
</linearGradient>
<linearGradient id="paint8_linear_174_7793" x1="254.823" y1="170.344" x2="95.5004" y2="170.344" gradientUnits="userSpaceOnUse">
<stop stop-color="#5761D7"/>
<stop offset="0.0725764" stop-color="#5472D8"/>
<stop offset="0.279069" stop-color="#4E9CDB"/>
<stop offset="0.480102" stop-color="#49BDDD"/>
<stop offset="0.671509" stop-color="#45D5DF"/>
<stop offset="0.849265" stop-color="#43E3E0"/>
<stop offset="1" stop-color="#42E8E0"/>
</linearGradient>
<linearGradient id="paint9_linear_174_7793" x1="254.823" y1="158.362" x2="95.5004" y2="158.362" gradientUnits="userSpaceOnUse">
<stop stop-color="#5761D7"/>
<stop offset="0.0725764" stop-color="#5472D8"/>
<stop offset="0.279069" stop-color="#4E9CDB"/>
<stop offset="0.480102" stop-color="#49BDDD"/>
<stop offset="0.671509" stop-color="#45D5DF"/>
<stop offset="0.849265" stop-color="#43E3E0"/>
<stop offset="1" stop-color="#42E8E0"/>
</linearGradient>
<linearGradient id="paint10_linear_174_7793" x1="254.823" y1="146.379" x2="95.5004" y2="146.379" gradientUnits="userSpaceOnUse">
<stop stop-color="#5761D7"/>
<stop offset="0.0725764" stop-color="#5472D8"/>
<stop offset="0.279069" stop-color="#4E9CDB"/>
<stop offset="0.480102" stop-color="#49BDDD"/>
<stop offset="0.671509" stop-color="#45D5DF"/>
<stop offset="0.849265" stop-color="#43E3E0"/>
<stop offset="1" stop-color="#42E8E0"/>
</linearGradient>
<linearGradient id="paint11_linear_174_7793" x1="254.823" y1="134.397" x2="95.5004" y2="134.397" gradientUnits="userSpaceOnUse">
<stop stop-color="#5761D7"/>
<stop offset="0.0725764" stop-color="#5472D8"/>
<stop offset="0.279069" stop-color="#4E9CDB"/>
<stop offset="0.480102" stop-color="#49BDDD"/>
<stop offset="0.671509" stop-color="#45D5DF"/>
<stop offset="0.849265" stop-color="#43E3E0"/>
<stop offset="1" stop-color="#42E8E0"/>
</linearGradient>
<linearGradient id="paint12_linear_174_7793" x1="254.823" y1="152.37" x2="95.5004" y2="152.37" gradientUnits="userSpaceOnUse">
<stop stop-color="#5761D7"/>
<stop offset="0.0725764" stop-color="#5472D8"/>
<stop offset="0.279069" stop-color="#4E9CDB"/>
<stop offset="0.480102" stop-color="#49BDDD"/>
<stop offset="0.671509" stop-color="#45D5DF"/>
<stop offset="0.849265" stop-color="#43E3E0"/>
<stop offset="1" stop-color="#42E8E0"/>
</linearGradient>
<linearGradient id="paint13_linear_174_7793" x1="254.823" y1="134.397" x2="95.5004" y2="134.397" gradientUnits="userSpaceOnUse">
<stop stop-color="#5761D7"/>
<stop offset="0.0725764" stop-color="#5472D8"/>
<stop offset="0.279069" stop-color="#4E9CDB"/>
<stop offset="0.480102" stop-color="#49BDDD"/>
<stop offset="0.671509" stop-color="#45D5DF"/>
<stop offset="0.849265" stop-color="#43E3E0"/>
<stop offset="1" stop-color="#42E8E0"/>
</linearGradient>
<linearGradient id="paint14_linear_174_7793" x1="254.822" y1="155.994" x2="95.5014" y2="155.994" gradientUnits="userSpaceOnUse">
<stop stop-color="#5761D7"/>
<stop offset="0.0725764" stop-color="#5472D8"/>
<stop offset="0.279069" stop-color="#4E9CDB"/>
<stop offset="0.480102" stop-color="#49BDDD"/>
<stop offset="0.671509" stop-color="#45D5DF"/>
<stop offset="0.849265" stop-color="#43E3E0"/>
<stop offset="1" stop-color="#42E8E0"/>
</linearGradient>
<linearGradient id="paint15_linear_174_7793" x1="189.576" y1="102.894" x2="182.678" y2="102.894" gradientUnits="userSpaceOnUse">
<stop stop-color="#5761D7"/>
<stop offset="0.0725764" stop-color="#5472D8"/>
<stop offset="0.279069" stop-color="#4E9CDB"/>
<stop offset="0.480102" stop-color="#49BDDD"/>
<stop offset="0.671509" stop-color="#45D5DF"/>
<stop offset="0.849265" stop-color="#43E3E0"/>
<stop offset="1" stop-color="#42E8E0"/>
</linearGradient>
<linearGradient id="paint16_linear_174_7793" x1="186.066" y1="88.075" x2="168.795" y2="88.075" gradientUnits="userSpaceOnUse">
<stop stop-color="#5761D7"/>
<stop offset="0.0725764" stop-color="#5472D8"/>
<stop offset="0.279069" stop-color="#4E9CDB"/>
<stop offset="0.480102" stop-color="#49BDDD"/>
<stop offset="0.671509" stop-color="#45D5DF"/>
<stop offset="0.849265" stop-color="#43E3E0"/>
<stop offset="1" stop-color="#42E8E0"/>
</linearGradient>
<linearGradient id="paint17_linear_174_7793" x1="185.989" y1="71.4443" x2="167.273" y2="71.4443" gradientUnits="userSpaceOnUse">
<stop stop-color="#5761D7"/>
<stop offset="0.0725764" stop-color="#5472D8"/>
<stop offset="0.279069" stop-color="#4E9CDB"/>
<stop offset="0.480102" stop-color="#49BDDD"/>
<stop offset="0.671509" stop-color="#45D5DF"/>
<stop offset="0.849265" stop-color="#43E3E0"/>
<stop offset="1" stop-color="#42E8E0"/>
</linearGradient>
<linearGradient id="paint18_linear_174_7793" x1="158.167" y1="131.825" x2="146.919" y2="130.84" gradientUnits="userSpaceOnUse">
<stop stop-color="#5761D7"/>
<stop offset="0.0725764" stop-color="#5472D8"/>
<stop offset="0.279069" stop-color="#4E9CDB"/>
<stop offset="0.480102" stop-color="#49BDDD"/>
<stop offset="0.671509" stop-color="#45D5DF"/>
<stop offset="0.849265" stop-color="#43E3E0"/>
<stop offset="1" stop-color="#42E8E0"/>
</linearGradient>
<linearGradient id="paint19_linear_174_7793" x1="152.877" y1="44.5146" x2="151.285" y2="44.3752" gradientUnits="userSpaceOnUse">
<stop stop-color="#5761D7"/>
<stop offset="0.0725764" stop-color="#5472D8"/>
<stop offset="0.279069" stop-color="#4E9CDB"/>
<stop offset="0.480102" stop-color="#49BDDD"/>
<stop offset="0.671509" stop-color="#45D5DF"/>
<stop offset="0.849265" stop-color="#43E3E0"/>
<stop offset="1" stop-color="#42E8E0"/>
</linearGradient>
<linearGradient id="paint20_linear_174_7793" x1="171.864" y1="101.982" x2="144.717" y2="99.6049" gradientUnits="userSpaceOnUse">
<stop stop-color="#5761D7"/>
<stop offset="0.0725764" stop-color="#5472D8"/>
<stop offset="0.279069" stop-color="#4E9CDB"/>
<stop offset="0.480102" stop-color="#49BDDD"/>
<stop offset="0.671509" stop-color="#45D5DF"/>
<stop offset="0.849265" stop-color="#43E3E0"/>
<stop offset="1" stop-color="#42E8E0"/>
</linearGradient>
<linearGradient id="paint21_linear_174_7793" x1="148.904" y1="68.3271" x2="142.528" y2="67.7687" gradientUnits="userSpaceOnUse">
<stop stop-color="#5761D7"/>
<stop offset="0.0725764" stop-color="#5472D8"/>
<stop offset="0.279069" stop-color="#4E9CDB"/>
<stop offset="0.480102" stop-color="#49BDDD"/>
<stop offset="0.671509" stop-color="#45D5DF"/>
<stop offset="0.849265" stop-color="#43E3E0"/>
<stop offset="1" stop-color="#42E8E0"/>
</linearGradient>
<linearGradient id="paint22_linear_174_7793" x1="183.966" y1="128.029" x2="162.01" y2="126.106" gradientUnits="userSpaceOnUse">
<stop stop-color="#5761D7"/>
<stop offset="0.0725764" stop-color="#5472D8"/>
<stop offset="0.279069" stop-color="#4E9CDB"/>
<stop offset="0.480102" stop-color="#49BDDD"/>
<stop offset="0.671509" stop-color="#45D5DF"/>
<stop offset="0.849265" stop-color="#43E3E0"/>
<stop offset="1" stop-color="#42E8E0"/>
</linearGradient>
<linearGradient id="paint23_linear_174_7793" x1="172.327" y1="119.196" x2="169.535" y2="118.952" gradientUnits="userSpaceOnUse">
<stop stop-color="#5761D7"/>
<stop offset="0.0725764" stop-color="#5472D8"/>
<stop offset="0.279069" stop-color="#4E9CDB"/>
<stop offset="0.480102" stop-color="#49BDDD"/>
<stop offset="0.671509" stop-color="#45D5DF"/>
<stop offset="0.849265" stop-color="#43E3E0"/>
<stop offset="1" stop-color="#42E8E0"/>
</linearGradient>
<linearGradient id="paint24_linear_174_7793" x1="178.077" y1="114.465" x2="175.292" y2="114.221" gradientUnits="userSpaceOnUse">
<stop stop-color="#5761D7"/>
<stop offset="0.0725764" stop-color="#5472D8"/>
<stop offset="0.279069" stop-color="#4E9CDB"/>
<stop offset="0.480102" stop-color="#49BDDD"/>
<stop offset="0.671509" stop-color="#45D5DF"/>
<stop offset="0.849265" stop-color="#43E3E0"/>
<stop offset="1" stop-color="#42E8E0"/>
</linearGradient>
<linearGradient id="paint25_linear_174_7793" x1="174.809" y1="90.376" x2="154.115" y2="88.5637" gradientUnits="userSpaceOnUse">
<stop stop-color="#5761D7"/>
<stop offset="0.0725764" stop-color="#5472D8"/>
<stop offset="0.279069" stop-color="#4E9CDB"/>
<stop offset="0.480102" stop-color="#49BDDD"/>
<stop offset="0.671509" stop-color="#45D5DF"/>
<stop offset="0.849265" stop-color="#43E3E0"/>
<stop offset="1" stop-color="#42E8E0"/>
</linearGradient>
<linearGradient id="paint26_linear_174_7793" x1="327.118" y1="114.368" x2="215.482" y2="114.368" gradientUnits="userSpaceOnUse">
<stop stop-color="#5761D7"/>
<stop offset="0.164464" stop-color="#5E67DA"/>
<stop offset="0.405065" stop-color="#727AE2"/>
<stop offset="0.692353" stop-color="#9297EE"/>
<stop offset="1" stop-color="#BCBEFF"/>
</linearGradient>
<linearGradient id="paint27_linear_174_7793" x1="295.525" y1="99.6202" x2="228.518" y2="99.6202" gradientUnits="userSpaceOnUse">
<stop stop-color="#42E8E0"/>
<stop offset="0.150735" stop-color="#43E3E0"/>
<stop offset="0.328491" stop-color="#45D5DF"/>
<stop offset="0.519898" stop-color="#49BDDD"/>
<stop offset="0.720931" stop-color="#4E9CDB"/>
<stop offset="0.927424" stop-color="#5472D8"/>
<stop offset="1" stop-color="#5761D7"/>
</linearGradient>
<linearGradient id="paint28_linear_174_7793" x1="262.022" y1="87.7794" x2="228.518" y2="87.7794" gradientUnits="userSpaceOnUse">
<stop stop-color="#42E8E0"/>
<stop offset="0.150735" stop-color="#43E3E0"/>
<stop offset="0.328491" stop-color="#45D5DF"/>
<stop offset="0.519898" stop-color="#49BDDD"/>
<stop offset="0.720931" stop-color="#4E9CDB"/>
<stop offset="0.927424" stop-color="#5472D8"/>
<stop offset="1" stop-color="#5761D7"/>
</linearGradient>
<linearGradient id="paint29_linear_174_7793" x1="295.525" y1="87.7792" x2="262.021" y2="87.7792" gradientUnits="userSpaceOnUse">
<stop stop-color="#42E8E0"/>
<stop offset="0.150735" stop-color="#43E3E0"/>
<stop offset="0.328491" stop-color="#45D5DF"/>
<stop offset="0.519898" stop-color="#49BDDD"/>
<stop offset="0.720931" stop-color="#4E9CDB"/>
<stop offset="0.927424" stop-color="#5472D8"/>
<stop offset="1" stop-color="#5761D7"/>
</linearGradient>
<linearGradient id="paint30_linear_174_7793" x1="295.525" y1="94.8507" x2="228.518" y2="94.8507" gradientUnits="userSpaceOnUse">
<stop stop-color="#42E8E0"/>
<stop offset="0.150735" stop-color="#43E3E0"/>
<stop offset="0.328491" stop-color="#45D5DF"/>
<stop offset="0.519898" stop-color="#49BDDD"/>
<stop offset="0.720931" stop-color="#4E9CDB"/>
<stop offset="0.927424" stop-color="#5472D8"/>
<stop offset="1" stop-color="#5761D7"/>
</linearGradient>
<linearGradient id="paint31_linear_174_7793" x1="262.021" y1="106.691" x2="228.518" y2="106.691" gradientUnits="userSpaceOnUse">
<stop stop-color="#42E8E0"/>
<stop offset="0.150735" stop-color="#43E3E0"/>
<stop offset="0.328491" stop-color="#45D5DF"/>
<stop offset="0.519898" stop-color="#49BDDD"/>
<stop offset="0.720931" stop-color="#4E9CDB"/>
<stop offset="0.927424" stop-color="#5472D8"/>
<stop offset="1" stop-color="#5761D7"/>
</linearGradient>
<linearGradient id="paint32_linear_174_7793" x1="295.525" y1="106.692" x2="262.021" y2="106.692" gradientUnits="userSpaceOnUse">
<stop stop-color="#42E8E0"/>
<stop offset="0.150735" stop-color="#43E3E0"/>
<stop offset="0.328491" stop-color="#45D5DF"/>
<stop offset="0.519898" stop-color="#49BDDD"/>
<stop offset="0.720931" stop-color="#4E9CDB"/>
<stop offset="0.927424" stop-color="#5472D8"/>
<stop offset="1" stop-color="#5761D7"/>
</linearGradient>
<linearGradient id="paint33_linear_174_7793" x1="327.118" y1="226.071" x2="215.482" y2="226.071" gradientUnits="userSpaceOnUse">
<stop stop-color="#5761D7"/>
<stop offset="0.164464" stop-color="#5E67DA"/>
<stop offset="0.405065" stop-color="#727AE2"/>
<stop offset="0.692353" stop-color="#9297EE"/>
<stop offset="1" stop-color="#BCBEFF"/>
</linearGradient>
<linearGradient id="paint34_linear_174_7793" x1="295.525" y1="211.323" x2="228.518" y2="211.323" gradientUnits="userSpaceOnUse">
<stop stop-color="#42E8E0"/>
<stop offset="0.150735" stop-color="#43E3E0"/>
<stop offset="0.328491" stop-color="#45D5DF"/>
<stop offset="0.519898" stop-color="#49BDDD"/>
<stop offset="0.720931" stop-color="#4E9CDB"/>
<stop offset="0.927424" stop-color="#5472D8"/>
<stop offset="1" stop-color="#5761D7"/>
</linearGradient>
<linearGradient id="paint35_linear_174_7793" x1="262.022" y1="199.483" x2="228.518" y2="199.483" gradientUnits="userSpaceOnUse">
<stop stop-color="#42E8E0"/>
<stop offset="0.150735" stop-color="#43E3E0"/>
<stop offset="0.328491" stop-color="#45D5DF"/>
<stop offset="0.519898" stop-color="#49BDDD"/>
<stop offset="0.720931" stop-color="#4E9CDB"/>
<stop offset="0.927424" stop-color="#5472D8"/>
<stop offset="1" stop-color="#5761D7"/>
</linearGradient>
<linearGradient id="paint36_linear_174_7793" x1="295.525" y1="199.482" x2="262.021" y2="199.482" gradientUnits="userSpaceOnUse">
<stop stop-color="#42E8E0"/>
<stop offset="0.150735" stop-color="#43E3E0"/>
<stop offset="0.328491" stop-color="#45D5DF"/>
<stop offset="0.519898" stop-color="#49BDDD"/>
<stop offset="0.720931" stop-color="#4E9CDB"/>
<stop offset="0.927424" stop-color="#5472D8"/>
<stop offset="1" stop-color="#5761D7"/>
</linearGradient>
<linearGradient id="paint37_linear_174_7793" x1="295.525" y1="206.554" x2="228.518" y2="206.554" gradientUnits="userSpaceOnUse">
<stop stop-color="#42E8E0"/>
<stop offset="0.150735" stop-color="#43E3E0"/>
<stop offset="0.328491" stop-color="#45D5DF"/>
<stop offset="0.519898" stop-color="#49BDDD"/>
<stop offset="0.720931" stop-color="#4E9CDB"/>
<stop offset="0.927424" stop-color="#5472D8"/>
<stop offset="1" stop-color="#5761D7"/>
</linearGradient>
<linearGradient id="paint38_linear_174_7793" x1="262.021" y1="218.394" x2="228.518" y2="218.394" gradientUnits="userSpaceOnUse">
<stop stop-color="#42E8E0"/>
<stop offset="0.150735" stop-color="#43E3E0"/>
<stop offset="0.328491" stop-color="#45D5DF"/>
<stop offset="0.519898" stop-color="#49BDDD"/>
<stop offset="0.720931" stop-color="#4E9CDB"/>
<stop offset="0.927424" stop-color="#5472D8"/>
<stop offset="1" stop-color="#5761D7"/>
</linearGradient>
<linearGradient id="paint39_linear_174_7793" x1="295.525" y1="218.393" x2="262.021" y2="218.393" gradientUnits="userSpaceOnUse">
<stop stop-color="#42E8E0"/>
<stop offset="0.150735" stop-color="#43E3E0"/>
<stop offset="0.328491" stop-color="#45D5DF"/>
<stop offset="0.519898" stop-color="#49BDDD"/>
<stop offset="0.720931" stop-color="#4E9CDB"/>
<stop offset="0.927424" stop-color="#5472D8"/>
<stop offset="1" stop-color="#5761D7"/>
</linearGradient>
<linearGradient id="paint40_linear_174_7793" x1="152.518" y1="226.071" x2="40.8817" y2="226.071" gradientUnits="userSpaceOnUse">
<stop stop-color="#5761D7"/>
<stop offset="0.164464" stop-color="#5E67DA"/>
<stop offset="0.405065" stop-color="#727AE2"/>
<stop offset="0.692353" stop-color="#9297EE"/>
<stop offset="1" stop-color="#BCBEFF"/>
</linearGradient>
<linearGradient id="paint41_linear_174_7793" x1="120.925" y1="211.323" x2="53.9177" y2="211.323" gradientUnits="userSpaceOnUse">
<stop stop-color="#42E8E0"/>
<stop offset="0.150735" stop-color="#43E3E0"/>
<stop offset="0.328491" stop-color="#45D5DF"/>
<stop offset="0.519898" stop-color="#49BDDD"/>
<stop offset="0.720931" stop-color="#4E9CDB"/>
<stop offset="0.927424" stop-color="#5472D8"/>
<stop offset="1" stop-color="#5761D7"/>
</linearGradient>
<linearGradient id="paint42_linear_174_7793" x1="87.4219" y1="199.483" x2="53.9178" y2="199.483" gradientUnits="userSpaceOnUse">
<stop stop-color="#42E8E0"/>
<stop offset="0.150735" stop-color="#43E3E0"/>
<stop offset="0.328491" stop-color="#45D5DF"/>
<stop offset="0.519898" stop-color="#49BDDD"/>
<stop offset="0.720931" stop-color="#4E9CDB"/>
<stop offset="0.927424" stop-color="#5472D8"/>
<stop offset="1" stop-color="#5761D7"/>
</linearGradient>
<linearGradient id="paint43_linear_174_7793" x1="120.925" y1="199.482" x2="87.4208" y2="199.482" gradientUnits="userSpaceOnUse">
<stop stop-color="#42E8E0"/>
<stop offset="0.150735" stop-color="#43E3E0"/>
<stop offset="0.328491" stop-color="#45D5DF"/>
<stop offset="0.519898" stop-color="#49BDDD"/>
<stop offset="0.720931" stop-color="#4E9CDB"/>
<stop offset="0.927424" stop-color="#5472D8"/>
<stop offset="1" stop-color="#5761D7"/>
</linearGradient>
<linearGradient id="paint44_linear_174_7793" x1="120.925" y1="206.554" x2="53.9177" y2="206.554" gradientUnits="userSpaceOnUse">
<stop stop-color="#42E8E0"/>
<stop offset="0.150735" stop-color="#43E3E0"/>
<stop offset="0.328491" stop-color="#45D5DF"/>
<stop offset="0.519898" stop-color="#49BDDD"/>
<stop offset="0.720931" stop-color="#4E9CDB"/>
<stop offset="0.927424" stop-color="#5472D8"/>
<stop offset="1" stop-color="#5761D7"/>
</linearGradient>
<linearGradient id="paint45_linear_174_7793" x1="87.4209" y1="218.394" x2="53.9178" y2="218.394" gradientUnits="userSpaceOnUse">
<stop stop-color="#42E8E0"/>
<stop offset="0.150735" stop-color="#43E3E0"/>
<stop offset="0.328491" stop-color="#45D5DF"/>
<stop offset="0.519898" stop-color="#49BDDD"/>
<stop offset="0.720931" stop-color="#4E9CDB"/>
<stop offset="0.927424" stop-color="#5472D8"/>
<stop offset="1" stop-color="#5761D7"/>
</linearGradient>
<linearGradient id="paint46_linear_174_7793" x1="120.925" y1="218.393" x2="87.4208" y2="218.393" gradientUnits="userSpaceOnUse">
<stop stop-color="#42E8E0"/>
<stop offset="0.150735" stop-color="#43E3E0"/>
<stop offset="0.328491" stop-color="#45D5DF"/>
<stop offset="0.519898" stop-color="#49BDDD"/>
<stop offset="0.720931" stop-color="#4E9CDB"/>
<stop offset="0.927424" stop-color="#5472D8"/>
<stop offset="1" stop-color="#5761D7"/>
</linearGradient>
<clipPath id="clip0_174_7793">
<rect width="372" height="325" fill="white" transform="matrix(-1 0 0 1 372 0)"/>
</clipPath>
</defs>
</svg>
