<svg width="377" height="325" viewBox="0 0 377 325" fill="none" xmlns="http://www.w3.org/2000/svg">
<g clip-path="url(#clip0_174_7462)">
<path d="M0.886853 144.396C3.29764 111.78 33.8132 96.2394 48.851 89.1948C85.5755 71.9908 159.457 62.7594 272.001 109.867C354.284 144.308 374.789 190.219 376.656 224.428C378.121 251.288 376.735 280.579 335.344 307.824C297.766 332.558 226.165 337.403 173.885 275.587C107.067 196.583 -4.22421 213.548 0.886853 144.396Z" fill="url(#paint0_radial_174_7462)"/>
<path d="M19.204 128.307C21.1359 114.544 37.3914 102.282 52.0266 96.0978C87.768 80.9942 173.786 56.0913 279.828 104.854C357.357 140.504 375.373 184.929 375.963 217.564C376.427 243.189 361.813 266.758 338.797 278.049C300.161 297.003 222.663 320.161 174.799 259.489C113.626 181.947 8.6152 203.741 19.204 128.307Z" fill="url(#paint1_radial_174_7462)"/>
<path d="M256.671 287.718C231.232 287.718 204.96 278.937 183.881 252.218C158.721 220.325 123.001 204.95 94.2997 192.596C59.8814 177.781 32.6954 166.079 39.3279 134.227C41.8075 122.317 57.8609 109.672 71.7075 103.82C107.312 88.7735 180.949 69.9244 274.07 112.745C344.737 145.24 360.183 185.982 360.699 214.439C361.116 237.506 347.89 259.034 327.003 269.282C309.129 278.05 283.359 287.718 256.671 287.718ZM40.5322 134.476C34.1053 165.346 60.8839 176.873 94.7864 191.465C123.615 203.875 159.494 219.318 184.847 251.456C227.501 305.524 291.881 285.142 326.46 268.176C346.921 258.139 359.877 237.054 359.468 214.46C358.96 186.356 343.642 146.091 273.556 113.863C180.862 71.2401 107.604 89.9872 72.186 104.955C58.439 110.763 42.84 123.395 40.5322 134.476Z" fill="url(#paint2_linear_174_7462)"/>
<path d="M110.761 141.398C110.082 141.398 109.432 141.261 108.936 140.98L67.8928 117.828C67.3628 117.53 67.0709 117.101 67.0718 116.621C67.0718 116.067 67.4711 115.524 68.1673 115.132L108.66 92.2894C109.899 91.5907 111.719 91.5221 112.804 92.1351L153.847 115.287C154.377 115.586 154.669 116.015 154.668 116.495C154.668 117.049 154.269 117.592 153.572 117.984L113.08 140.826C112.408 141.205 111.565 141.398 110.761 141.398ZM109.253 140.442C110.131 140.938 111.738 140.867 112.763 140.288L153.255 117.446C153.742 117.171 154.032 116.815 154.032 116.494C154.033 116.176 153.758 115.954 153.529 115.825L112.486 92.6731C111.609 92.1795 110.002 92.2507 108.977 92.8274L68.4847 115.67C67.9978 115.945 67.7076 116.3 67.7076 116.622C67.7067 116.94 67.9812 117.161 68.2102 117.29L109.253 140.442Z" fill="#FD9B38"/>
<path d="M154.351 99.614V104.535L110.765 129.122L67.1777 104.534V99.6133L154.351 99.614Z" fill="url(#paint3_linear_174_7462)"/>
<path d="M110.765 124.202L67.1777 99.6142L110.763 75.0273L154.351 99.6149L110.765 124.202Z" fill="#BCBEFF"/>
<path d="M110.765 123.626L67.6873 99.3262L67.1777 99.6135L110.765 124.201L154.351 99.6143L153.841 99.3269L110.765 123.626Z" fill="white"/>
<path d="M110.764 118.531L77.2402 99.6196L110.763 80.709L144.288 99.6201L110.764 118.531Z" fill="#0F054C"/>
<path opacity="0.5" d="M110.765 118.531L77.2397 99.62L110.764 80.709L144.289 99.6204L110.765 118.531Z" fill="url(#paint4_linear_174_7462)"/>
<path opacity="0.5" d="M110.764 75.9395L144.289 94.8509V99.6194L110.764 80.708V75.9395Z" fill="url(#paint5_linear_174_7462)"/>
<path opacity="0.5" d="M110.765 80.708L77.2397 99.6189V94.8503L110.764 75.9395L110.765 80.708Z" fill="url(#paint6_linear_174_7462)"/>
<path opacity="0.5" d="M110.765 113.762L77.2397 94.8503L110.764 75.9395L144.289 94.8509L110.765 113.762Z" fill="url(#paint7_linear_174_7462)"/>
<path opacity="0.5" d="M110.765 102.408L97.3687 94.8514L110.764 87.2949L124.16 94.8515L110.765 102.408Z" fill="#42E8E0"/>
<path opacity="0.5" d="M110.764 87.9902L123.544 95.1992L124.16 94.8516L110.764 87.2949L97.3687 94.8514L97.9849 95.1991L110.764 87.9902Z" fill="#42E8E0"/>
<path opacity="0.5" d="M110.765 113.763V118.531L144.289 99.6201V94.8516L110.765 113.763Z" fill="url(#paint8_linear_174_7462)"/>
<path opacity="0.5" d="M77.2397 94.8516V99.6202L110.765 118.532V113.763L77.2397 94.8516Z" fill="url(#paint9_linear_174_7462)"/>
<path opacity="0.8" d="M110.765 113.241L77.7011 94.5898L77.2397 94.8501L110.765 113.762L144.289 94.8507L143.827 94.5904L110.765 113.241Z" fill="#42E8E0"/>
<path d="M110.761 253.101C110.082 253.101 109.432 252.964 108.936 252.683L67.8928 229.532C67.3628 229.233 67.0709 228.804 67.0718 228.324C67.0718 227.77 67.4711 227.227 68.1673 226.835L108.66 203.993C109.899 203.294 111.719 203.225 112.804 203.838L153.847 226.99C154.377 227.289 154.669 227.718 154.668 228.198C154.668 228.752 154.269 229.295 153.572 229.687L113.08 252.529C112.408 252.908 111.565 253.101 110.761 253.101ZM109.253 252.145C110.131 252.641 111.738 252.57 112.763 251.991L153.255 229.149C153.742 228.874 154.032 228.519 154.032 228.197C154.033 227.879 153.758 227.657 153.529 227.528L112.486 204.376C111.609 203.883 110.002 203.954 108.977 204.531L68.4847 227.373C67.9978 227.648 67.7076 228.003 67.7076 228.325C67.7067 228.643 67.9812 228.864 68.2102 228.994L109.253 252.145Z" fill="#FD9B38"/>
<path d="M154.351 211.317V216.238L110.765 240.825L67.1777 216.238V211.316L154.351 211.317Z" fill="url(#paint10_linear_174_7462)"/>
<path d="M110.765 235.905L67.1777 211.317L110.763 186.73L154.351 211.318L110.765 235.905Z" fill="#BCBEFF"/>
<path d="M110.765 235.329L67.6873 211.029L67.1777 211.317L110.765 235.904L154.351 211.318L153.841 211.03L110.765 235.329Z" fill="white"/>
<path d="M110.764 230.234L77.2402 211.323L110.763 192.412L144.288 211.323L110.764 230.234Z" fill="#0F054C"/>
<path opacity="0.5" d="M110.765 230.235L77.2397 211.323L110.764 192.412L144.289 211.324L110.765 230.235Z" fill="url(#paint11_linear_174_7462)"/>
<path opacity="0.5" d="M110.764 187.643L144.289 206.554V211.323L110.764 192.411V187.643Z" fill="url(#paint12_linear_174_7462)"/>
<path opacity="0.5" d="M110.765 192.411L77.2397 211.322V206.554L110.764 187.643L110.765 192.411Z" fill="url(#paint13_linear_174_7462)"/>
<path opacity="0.5" d="M110.765 225.465L77.2397 206.554L110.764 187.643L144.289 206.554L110.765 225.465Z" fill="url(#paint14_linear_174_7462)"/>
<path opacity="0.5" d="M110.765 214.111L97.3687 206.554L110.764 198.998L124.16 206.555L110.765 214.111Z" fill="#42E8E0"/>
<path opacity="0.5" d="M110.764 199.693L123.544 206.902L124.16 206.555L110.764 198.998L97.3687 206.555L97.9849 206.902L110.764 199.693Z" fill="#42E8E0"/>
<path opacity="0.5" d="M110.765 225.466V230.234L144.289 211.323V206.555L110.765 225.466Z" fill="url(#paint15_linear_174_7462)"/>
<path opacity="0.5" d="M77.2397 206.553V211.321L110.765 230.233V225.464L77.2397 206.553Z" fill="url(#paint16_linear_174_7462)"/>
<path opacity="0.8" d="M110.765 224.944L77.7011 206.293L77.2397 206.553L110.765 225.465L144.289 206.554L143.827 206.294L110.765 224.944Z" fill="#42E8E0"/>
<path d="M329.245 269.65C328.566 269.65 327.915 269.513 327.419 269.232L286.376 246.08C285.846 245.781 285.554 245.353 285.555 244.873C285.555 244.319 285.954 243.776 286.651 243.384L327.143 220.541C328.382 219.843 330.203 219.774 331.287 220.387L372.33 243.539C372.86 243.838 373.152 244.267 373.151 244.747C373.151 245.301 372.752 245.844 372.056 246.235L331.564 269.078C330.891 269.457 330.049 269.65 329.245 269.65ZM327.737 268.694C328.615 269.189 330.222 269.118 331.246 268.54L371.738 245.697C372.225 245.423 372.516 245.067 372.516 244.746C372.516 244.428 372.242 244.206 372.013 244.077L330.97 220.925C330.093 220.431 328.486 220.503 327.46 221.079L286.968 243.922C286.481 244.197 286.191 244.552 286.191 244.873C286.19 245.192 286.465 245.413 286.694 245.542L327.737 268.694Z" fill="#FD9B38"/>
<path d="M372.834 227.866V232.787L329.248 257.374L285.661 232.787V227.865L372.834 227.866Z" fill="url(#paint17_linear_174_7462)"/>
<path d="M329.248 252.454L285.661 227.866L329.247 203.279L372.834 227.867L329.248 252.454Z" fill="#BCBEFF"/>
<path d="M329.248 251.878L286.171 227.578L285.661 227.866L329.248 252.453L372.834 227.866L372.324 227.579L329.248 251.878Z" fill="white"/>
<path d="M329.248 246.783L295.724 227.871L329.247 208.961L362.771 227.872L329.248 246.783Z" fill="#0F054C"/>
<path opacity="0.5" d="M329.248 246.783L295.723 227.872L329.247 208.961L362.772 227.872L329.248 246.783Z" fill="url(#paint18_linear_174_7462)"/>
<path opacity="0.5" d="M329.247 204.191L362.772 223.103V227.871L329.247 208.96V204.191Z" fill="url(#paint19_linear_174_7462)"/>
<path opacity="0.5" d="M329.248 208.96L295.723 227.871V223.102L329.247 204.191L329.248 208.96Z" fill="url(#paint20_linear_174_7462)"/>
<path opacity="0.5" d="M329.248 242.014L295.723 223.102L329.247 204.191L362.772 223.103L329.248 242.014Z" fill="url(#paint21_linear_174_7462)"/>
<path opacity="0.5" d="M329.248 230.66L315.852 223.103L329.247 215.547L342.643 223.104L329.248 230.66Z" fill="#42E8E0"/>
<path opacity="0.5" d="M329.247 216.242L342.027 223.451L342.643 223.104L329.247 215.547L315.852 223.103L316.468 223.451L329.247 216.242Z" fill="#42E8E0"/>
<path opacity="0.5" d="M329.248 242.013V246.781L362.772 227.87V223.102L329.248 242.013Z" fill="url(#paint22_linear_174_7462)"/>
<path opacity="0.5" d="M295.723 223.102V227.87L329.248 246.782V242.013L295.723 223.102Z" fill="url(#paint23_linear_174_7462)"/>
<path opacity="0.8" d="M329.248 241.493L296.185 222.842L295.723 223.102L329.248 242.014L362.772 223.103L362.311 222.842L329.248 241.493Z" fill="#42E8E0"/>
<g clip-path="url(#clip1_174_7462)">
<path d="M318.298 187.029L311.606 186.063L195.673 118.907C194.343 118.136 192.331 118.053 191.179 118.72L122.132 158.716L117.883 158.103V163.762L117.896 163.764C117.903 164.271 118.263 164.803 118.983 165.22L240.508 235.615C241.838 236.386 243.85 236.469 245.002 235.802L317.521 193.795C318.051 193.488 318.293 193.074 318.286 192.644L318.298 192.646V187.029Z" fill="url(#paint24_linear_174_7462)"/>
<path d="M118.983 159.594L240.508 229.99C241.838 230.76 243.85 230.844 245.002 230.176L317.521 188.169C318.673 187.502 318.528 186.336 317.198 185.566L195.673 115.171C194.343 114.4 192.331 114.316 191.179 114.984L118.661 156.991C117.509 157.658 117.653 158.824 118.983 159.594Z" fill="url(#paint25_linear_174_7462)"/>
<path opacity="0.3" d="M129.506 160.974L238.128 223.894C239.317 224.583 241.115 224.658 242.145 224.061L306.963 186.514C307.993 185.918 307.864 184.876 306.675 184.187L198.053 121.267C196.865 120.578 195.066 120.504 194.036 121.1L129.218 158.647C128.188 159.243 128.318 160.285 129.506 160.974Z" fill="#24126A"/>
<path d="M317.521 187.558L245.003 229.565C243.851 230.232 241.838 230.149 240.508 229.378L118.983 158.983C118.4 158.645 118.059 158.231 117.941 157.816C117.757 158.411 118.108 159.088 118.983 159.595L240.508 229.99C241.838 230.761 243.851 230.844 245.003 230.177L317.521 188.17C318.168 187.795 318.391 187.264 318.24 186.733C318.145 187.042 317.914 187.33 317.521 187.558Z" fill="white"/>
<path d="M195.455 93.223L210.817 1.78041L209.582 1.25848L211.438 0.190956L211.435 0.201842C211.795 -0.0387912 212.304 -0.0240824 212.865 0.300862L335.639 71.4192C336.647 72.0032 337.41 73.501 337.233 74.5481L321.749 166.718C321.667 167.198 321.431 167.516 321.102 167.656L321.104 167.656L319.287 168.709L318.975 167.008L319.079 167.04L197.049 96.352C196.041 95.768 195.278 94.2702 195.455 93.223Z" fill="url(#paint26_linear_174_7462)"/>
<path d="M334.954 73.9195L336.973 73.0234C337.199 73.542 337.31 74.0876 337.233 74.5478L321.748 166.717C321.667 167.198 321.431 167.516 321.102 167.656L321.104 167.656L319.287 168.709L318.975 167.008L319.079 167.039L312.904 163.462L334.954 73.9195Z" fill="url(#paint27_linear_174_7462)"/>
<path d="M195.123 97.4595L317.896 168.578C318.844 169.127 319.656 168.81 319.822 167.825L335.306 75.6557C335.483 74.6085 334.72 73.1106 333.712 72.5267L210.939 1.40835C209.991 0.859277 209.179 1.17645 209.013 2.1611L193.529 94.3306C193.351 95.3778 194.114 96.8755 195.123 97.4595Z" fill="#24126A"/>
<g opacity="0.51">
<path d="M210.526 3.12305L333.876 74.5429L318.298 166.947L195.028 95.5733L210.526 3.12305Z" fill="#453C9E"/>
</g>
<path d="M117.947 141.096L124.647 144.607L191.832 105.69C192.956 105.038 194.919 105.12 196.217 105.872L312.092 172.994C313.201 172.372 318.256 169.932 318.256 169.932L315.804 173.932L315.794 173.924C315.692 174.209 315.474 174.475 315.108 174.687L244.349 215.675C243.225 216.326 241.262 216.245 239.964 215.493L121.388 146.806C120.855 146.497 120.528 146.123 120.393 145.745L120.384 145.751L117.947 141.096Z" fill="url(#paint28_linear_174_7462)"/>
<path d="M118.983 142.202L240.508 212.597C241.838 213.368 243.85 213.451 245.002 212.784L317.521 170.776C318.673 170.109 318.528 168.944 317.198 168.173L195.673 97.7781C194.343 97.0075 192.331 96.9238 191.179 97.5912L118.661 139.598C117.509 140.266 117.653 141.431 118.983 142.202Z" fill="url(#paint29_linear_174_7462)"/>
<path d="M118.983 141.656L240.508 212.051C241.838 212.822 243.85 212.905 245.002 212.238L317.521 170.231C317.926 169.996 318.162 169.698 318.251 169.378C318.38 169.896 318.152 170.411 317.521 170.777L245.002 212.784C243.85 213.451 241.838 213.368 240.508 212.597L118.983 142.202C118.121 141.703 117.766 141.039 117.93 140.451C118.036 140.879 118.382 141.308 118.983 141.656Z" fill="white"/>
<g opacity="0.15">
<mask id="mask0_174_7462" style="mask-type:luminance" maskUnits="userSpaceOnUse" x="195" y="3" width="139" height="164">
<path d="M333.876 74.5429L210.526 3.12305L195.028 95.5733L318.298 166.947L333.876 74.5429Z" fill="white"/>
</mask>
<g mask="url(#mask0_174_7462)">
<path d="M194.972 96.866L201.672 100.377L268.857 61.4591C269.981 60.808 271.944 60.8897 273.242 61.6415L389.117 128.764C390.226 128.141 395.281 125.702 395.281 125.702L392.829 129.701L392.819 129.694C392.717 129.979 392.499 130.245 392.133 130.457L321.374 171.445C320.25 172.096 318.287 172.014 316.989 171.263L198.413 102.575C197.88 102.267 197.553 101.893 197.418 101.514L197.409 101.52L194.972 96.866Z" fill="url(#paint30_linear_174_7462)"/>
<path d="M196.008 97.9714L317.533 168.366C318.863 169.137 320.875 169.221 322.027 168.553L394.546 126.546C395.698 125.879 395.553 124.713 394.223 123.943L272.698 53.5475C271.368 52.7771 269.356 52.6933 268.204 53.3607L195.685 95.368C194.533 96.0353 194.678 97.2008 196.008 97.9714Z" fill="url(#paint31_linear_174_7462)"/>
<path d="M394.223 123.942L272.698 53.5474C271.842 53.0514 270.705 52.8444 269.695 52.9347C270.442 52.9934 271.194 53.1947 271.803 53.5474L393.328 123.942C394.658 124.713 394.802 125.879 393.651 126.546L321.132 168.553C320.722 168.791 320.2 168.929 319.641 168.979C320.525 169.049 321.403 168.915 322.027 168.553L394.546 126.546C395.698 125.879 395.553 124.713 394.223 123.942Z" fill="white"/>
<g opacity="0.5">
<path d="M259.663 85.852L255.768 83.5955C255.455 83.4144 254.926 83.4291 254.586 83.6284L250.257 86.1661C249.917 86.3655 249.894 86.6739 250.207 86.8551L254.103 89.1116C254.415 89.2928 254.945 89.278 255.285 89.0788L259.614 86.5409C259.954 86.3417 259.976 86.0332 259.663 85.852Z" fill="#24126A"/>
<path d="M265.679 89.3364L261.784 87.0799C261.471 86.8988 260.942 86.9135 260.602 87.1128L256.272 89.6506C255.932 89.8499 255.91 90.1584 256.223 90.3396L260.118 92.596C260.431 92.7772 260.96 92.7625 261.3 92.5631L265.63 90.0254C265.97 89.826 265.992 89.5176 265.679 89.3364Z" fill="#24126A"/>
<path d="M271.695 92.8208L267.799 90.5643C267.487 90.3831 266.957 90.3978 266.617 90.5972L262.288 93.135C261.948 93.3343 261.926 93.6428 262.238 93.824L266.134 96.0804C266.447 96.2616 266.976 96.2469 267.316 96.0475L271.645 93.5098C271.985 93.3104 272.007 93.002 271.695 92.8208Z" fill="#24126A"/>
<path d="M267.115 97.4596L263.219 95.203C262.907 95.0218 262.377 95.0365 262.037 95.2359L258.403 97.3662C258.063 97.5655 258.041 97.874 258.354 98.0552L262.249 100.312C262.562 100.493 263.091 100.478 263.431 100.279L267.065 98.1484C267.405 97.9492 267.428 97.6406 267.115 97.4596Z" fill="#24126A"/>
<path d="M273.13 100.944L269.235 98.6874C268.922 98.5062 268.393 98.5209 268.053 98.7203L264.419 100.851C264.079 101.05 264.056 101.358 264.369 101.54L268.265 103.796C268.577 103.977 269.107 103.962 269.447 103.763L273.081 101.633C273.421 101.433 273.443 101.125 273.13 100.944Z" fill="#24126A"/>
<path d="M279.146 104.428L275.251 102.172C274.938 101.991 274.409 102.005 274.069 102.205L270.434 104.335C270.094 104.534 270.072 104.843 270.385 105.024L274.28 107.28C274.593 107.462 275.122 107.447 275.462 107.247L279.097 105.117C279.437 104.918 279.459 104.609 279.146 104.428Z" fill="#24126A"/>
<path d="M285.162 107.915L281.266 105.658C280.954 105.477 280.424 105.492 280.084 105.691L276.45 107.821C276.11 108.02 276.088 108.329 276.4 108.51L280.296 110.767C280.609 110.948 281.138 110.933 281.478 110.734L285.112 108.604C285.452 108.404 285.475 108.096 285.162 107.915Z" fill="#24126A"/>
<path d="M291.178 111.397L287.282 109.14C286.97 108.959 286.44 108.974 286.1 109.173L282.466 111.304C282.126 111.503 282.104 111.811 282.417 111.993L286.312 114.249C286.625 114.43 287.154 114.416 287.494 114.216L291.128 112.086C291.468 111.887 291.491 111.578 291.178 111.397Z" fill="#24126A"/>
<path d="M297.193 114.883L293.297 112.627C292.985 112.446 292.456 112.46 292.115 112.66L288.481 114.79C288.141 114.989 288.119 115.298 288.432 115.479L292.327 117.735C292.64 117.917 293.169 117.902 293.509 117.703L297.144 115.572C297.484 115.373 297.506 115.064 297.193 114.883Z" fill="#24126A"/>
<path d="M303.209 118.368L299.313 116.111C299 115.93 298.471 115.945 298.131 116.144L294.497 118.274C294.157 118.474 294.135 118.782 294.447 118.963L298.343 121.22C298.656 121.401 299.185 121.386 299.525 121.187L303.159 119.057C303.499 118.857 303.521 118.549 303.209 118.368Z" fill="#24126A"/>
<path d="M309.225 121.852L305.329 119.596C305.016 119.414 304.487 119.429 304.147 119.628L300.513 121.759C300.173 121.958 300.151 122.267 300.464 122.448L304.359 124.704C304.672 124.885 305.201 124.871 305.541 124.671L309.175 122.541C309.515 122.342 309.537 122.033 309.225 121.852Z" fill="#24126A"/>
<path d="M315.24 125.336L311.345 123.08C311.032 122.899 310.503 122.913 310.163 123.113L306.529 125.243C306.189 125.442 306.166 125.751 306.479 125.932L310.375 128.189C310.687 128.37 311.217 128.355 311.557 128.156L315.191 126.025C315.531 125.826 315.553 125.518 315.24 125.336Z" fill="#24126A"/>
<path d="M321.256 128.821L317.361 126.564C317.048 126.383 316.518 126.398 316.179 126.597L312.544 128.727C312.204 128.927 312.182 129.235 312.495 129.416L316.39 131.673C316.703 131.854 317.232 131.839 317.572 131.64L321.206 129.51C321.547 129.311 321.569 129.002 321.256 128.821Z" fill="#24126A"/>
<path d="M264.608 102.434L260.713 100.178C260.4 99.9964 259.871 100.011 259.531 100.21L255.897 102.341C255.557 102.54 255.535 102.849 255.847 103.03L259.743 105.286C260.056 105.467 260.585 105.453 260.925 105.253L264.559 103.123C264.899 102.924 264.921 102.615 264.608 102.434Z" fill="#24126A"/>
<path d="M258.503 98.897L254.608 96.6405C254.295 96.4593 253.766 96.474 253.426 96.6733L249.791 98.8037C249.451 99.0029 249.429 99.3115 249.742 99.4927L253.637 101.749C253.95 101.93 254.479 101.916 254.819 101.716L258.454 99.586C258.794 99.3866 258.816 99.0782 258.503 98.897Z" fill="#24126A"/>
<path d="M252.387 95.3539L243.998 90.494C243.685 90.3128 243.156 90.3275 242.816 90.5268L239.181 92.6572C238.841 92.8564 238.819 93.165 239.132 93.3462L247.522 98.206C247.834 98.3872 248.364 98.3725 248.704 98.1731L252.338 96.0429C252.678 95.8435 252.7 95.5351 252.387 95.3539Z" fill="#24126A"/>
<path d="M245.293 97.6704L238.484 93.7264C238.171 93.5452 237.642 93.56 237.302 93.7593L233.668 95.8896C233.328 96.089 233.306 96.3974 233.618 96.5786L240.427 100.523C240.74 100.704 241.269 100.689 241.609 100.49L245.243 98.3594C245.583 98.16 245.605 97.8516 245.293 97.6704Z" fill="#24126A"/>
<path d="M270.624 105.918L266.729 103.662C266.416 103.481 265.887 103.495 265.547 103.695L261.912 105.825C261.572 106.025 261.55 106.333 261.863 106.514L265.758 108.771C266.071 108.952 266.6 108.937 266.94 108.738L270.575 106.607C270.915 106.408 270.937 106.1 270.624 105.918Z" fill="#24126A"/>
<path d="M276.64 109.403L272.744 107.146C272.432 106.965 271.902 106.98 271.562 107.179L267.928 109.31C267.588 109.509 267.566 109.817 267.879 109.999L271.774 112.255C272.087 112.436 272.616 112.421 272.956 112.222L276.59 110.092C276.93 109.892 276.953 109.584 276.64 109.403Z" fill="#24126A"/>
<path d="M282.656 112.887L278.76 110.631C278.448 110.45 277.918 110.464 277.578 110.664L273.944 112.794C273.604 112.993 273.582 113.302 273.895 113.483L277.79 115.739C278.103 115.921 278.632 115.906 278.972 115.706L282.606 113.576C282.947 113.377 282.969 113.068 282.656 112.887Z" fill="#24126A"/>
<path d="M288.672 116.374L284.776 114.117C284.463 113.936 283.934 113.951 283.594 114.15L279.96 116.28C279.62 116.48 279.598 116.788 279.91 116.969L283.806 119.226C284.118 119.407 284.648 119.392 284.988 119.193L288.622 117.062C288.962 116.863 288.984 116.555 288.672 116.374Z" fill="#24126A"/>
<path d="M294.687 119.858L290.792 117.601C290.479 117.42 289.95 117.435 289.61 117.634L285.975 119.765C285.635 119.964 285.613 120.272 285.926 120.454L289.821 122.71C290.134 122.891 290.663 122.877 291.003 122.677L294.638 120.547C294.978 120.347 295 120.039 294.687 119.858Z" fill="#24126A"/>
<path d="M300.703 123.342L296.807 121.086C296.494 120.905 295.965 120.919 295.625 121.119L291.991 123.249C291.651 123.448 291.629 123.757 291.942 123.938L295.837 126.194C296.15 126.376 296.679 126.361 297.019 126.162L300.653 124.031C300.993 123.832 301.015 123.523 300.703 123.342Z" fill="#24126A"/>
<path d="M306.718 126.827L302.823 124.57C302.51 124.389 301.981 124.404 301.641 124.603L298.007 126.733C297.667 126.933 297.644 127.241 297.957 127.422L301.853 129.679C302.165 129.86 302.695 129.845 303.035 129.646L306.669 127.516C307.009 127.316 307.031 127.008 306.718 126.827Z" fill="#24126A"/>
<path d="M312.734 130.311L308.839 128.054C308.526 127.873 307.997 127.888 307.657 128.087L304.023 130.218C303.683 130.417 303.661 130.726 303.973 130.907L307.869 133.163C308.182 133.344 308.711 133.33 309.051 133.13L312.685 131C313.025 130.801 313.047 130.492 312.734 130.311Z" fill="#24126A"/>
<path d="M318.75 133.795L314.855 131.539C314.542 131.358 314.013 131.372 313.673 131.572L310.038 133.702C309.698 133.901 309.676 134.21 309.989 134.391L313.884 136.648C314.197 136.829 314.726 136.814 315.066 136.615L318.701 134.484C319.041 134.285 319.063 133.977 318.75 133.795Z" fill="#24126A"/>
<path d="M329.444 139.992L320.945 135.068C320.632 134.887 320.103 134.902 319.763 135.101L316.129 137.231C315.789 137.431 315.766 137.739 316.079 137.92L324.579 142.844C324.891 143.025 325.421 143.01 325.761 142.811L329.395 140.681C329.735 140.481 329.757 140.173 329.444 139.992Z" fill="#24126A"/>
<path d="M318.417 146.454L311.243 142.299C310.93 142.118 310.401 142.132 310.061 142.332L306.427 144.462C306.086 144.661 306.064 144.97 306.377 145.151L313.551 149.306C313.864 149.488 314.393 149.473 314.733 149.274L318.367 147.143C318.707 146.944 318.73 146.635 318.417 146.454Z" fill="#24126A"/>
<path d="M269.789 111.86L265.894 109.603C265.581 109.422 265.052 109.437 264.712 109.636L261.077 111.767C260.737 111.966 260.715 112.274 261.028 112.455L264.923 114.712C265.236 114.893 265.765 114.878 266.105 114.679L269.74 112.549C270.08 112.349 270.102 112.041 269.789 111.86Z" fill="#24126A"/>
<path d="M263.624 108.29L259.729 106.033C259.416 105.852 258.887 105.867 258.547 106.066L254.912 108.196C254.572 108.396 254.55 108.704 254.863 108.885L258.758 111.142C259.071 111.323 259.6 111.308 259.94 111.109L263.575 108.979C263.915 108.779 263.937 108.471 263.624 108.29Z" fill="#24126A"/>
<path d="M257.459 104.717L253.563 102.461C253.25 102.28 252.721 102.294 252.381 102.494L248.747 104.624C248.407 104.823 248.385 105.132 248.697 105.313L252.593 107.569C252.906 107.751 253.435 107.736 253.775 107.537L257.409 105.406C257.749 105.207 257.771 104.898 257.459 104.717Z" fill="#24126A"/>
<path d="M251.293 101.147L247.398 98.8905C247.085 98.7093 246.556 98.724 246.216 98.9234L242.582 101.054C242.242 101.253 242.22 101.561 242.532 101.743L246.428 103.999C246.741 104.18 247.27 104.166 247.61 103.966L251.244 101.836C251.584 101.637 251.606 101.328 251.293 101.147Z" fill="#24126A"/>
<path d="M275.805 115.346L271.91 113.09C271.597 112.908 271.068 112.923 270.728 113.123L267.093 115.253C266.753 115.452 266.731 115.761 267.044 115.942L270.94 118.198C271.252 118.379 271.781 118.365 272.122 118.166L275.756 116.035C276.096 115.836 276.118 115.527 275.805 115.346Z" fill="#24126A"/>
<path d="M281.82 118.831L277.925 116.574C277.612 116.393 277.083 116.408 276.743 116.607L273.109 118.737C272.769 118.937 272.746 119.245 273.059 119.426L276.955 121.683C277.267 121.864 277.797 121.849 278.137 121.65L281.771 119.52C282.111 119.32 282.133 119.012 281.82 118.831Z" fill="#24126A"/>
<path d="M287.837 122.315L283.941 120.058C283.628 119.877 283.099 119.892 282.759 120.091L279.125 122.222C278.785 122.421 278.763 122.729 279.075 122.911L282.971 125.167C283.284 125.348 283.813 125.334 284.153 125.134L287.787 123.004C288.127 122.805 288.149 122.496 287.837 122.315Z" fill="#24126A"/>
<path d="M293.852 125.799L289.957 123.543C289.644 123.362 289.115 123.376 288.775 123.576L285.14 125.706C284.8 125.905 284.778 126.214 285.091 126.395L288.986 128.651C289.299 128.833 289.828 128.818 290.168 128.619L293.803 126.488C294.143 126.289 294.165 125.98 293.852 125.799Z" fill="#24126A"/>
<path d="M299.868 129.284L295.972 127.027C295.66 126.846 295.13 126.861 294.79 127.06L291.156 129.19C290.816 129.39 290.794 129.698 291.107 129.879L295.002 132.136C295.315 132.317 295.844 132.302 296.184 132.103L299.818 129.973C300.158 129.773 300.181 129.465 299.868 129.284Z" fill="#24126A"/>
<path d="M305.883 132.77L301.988 130.514C301.675 130.332 301.146 130.347 300.806 130.546L297.172 132.677C296.832 132.876 296.809 133.185 297.122 133.366L301.018 135.622C301.33 135.803 301.86 135.789 302.2 135.589L305.834 133.459C306.174 133.26 306.196 132.951 305.883 132.77Z" fill="#24126A"/>
<path d="M311.9 136.254L308.004 133.998C307.691 133.817 307.162 133.831 306.822 134.031L303.188 136.161C302.848 136.36 302.826 136.669 303.138 136.85L307.034 139.107C307.346 139.288 307.876 139.273 308.216 139.074L311.85 136.943C312.19 136.744 312.212 136.436 311.9 136.254Z" fill="#24126A"/>
<path d="M317.915 139.739L314.02 137.482C313.707 137.301 313.178 137.316 312.838 137.515L309.203 139.645C308.863 139.845 308.841 140.153 309.154 140.334L313.049 142.591C313.362 142.772 313.891 142.757 314.231 142.558L317.866 140.428C318.206 140.228 318.228 139.92 317.915 139.739Z" fill="#24126A"/>
<path d="M323.931 143.223L320.035 140.967C319.723 140.785 319.193 140.8 318.853 140.999L315.219 143.13C314.879 143.329 314.857 143.638 315.17 143.819L319.065 146.075C319.378 146.256 319.907 146.242 320.247 146.042L323.881 143.912C324.221 143.713 324.244 143.404 323.931 143.223Z" fill="#24126A"/>
<path d="M255.252 109.866L251.357 107.609C251.044 107.428 250.515 107.443 250.175 107.642L246.54 109.772C246.2 109.972 246.178 110.28 246.491 110.461L250.386 112.718C250.699 112.899 251.228 112.884 251.568 112.685L255.203 110.555C255.543 110.355 255.565 110.047 255.252 109.866Z" fill="#24126A"/>
<path d="M249.266 106.399L245.371 104.142C245.058 103.961 244.529 103.976 244.189 104.175L240.554 106.306C240.214 106.505 240.192 106.813 240.505 106.995L244.4 109.251C244.713 109.432 245.242 109.418 245.582 109.218L249.217 107.088C249.557 106.889 249.579 106.58 249.266 106.399Z" fill="#24126A"/>
<path d="M243.28 102.93L239.385 100.674C239.072 100.492 238.543 100.507 238.203 100.707L234.569 102.837C234.229 103.036 234.206 103.345 234.519 103.526L238.415 105.782C238.727 105.963 239.257 105.949 239.597 105.749L243.231 103.619C243.571 103.42 243.593 103.111 243.28 102.93Z" fill="#24126A"/>
<path d="M237.295 99.4634L233.399 97.2069C233.086 97.0257 232.557 97.0404 232.217 97.2397L228.583 99.3701C228.243 99.5693 228.221 99.8779 228.533 100.059L232.429 102.316C232.742 102.497 233.271 102.482 233.611 102.283L237.245 100.152C237.585 99.953 237.607 99.6445 237.295 99.4634Z" fill="#24126A"/>
<path d="M231.499 102.862L227.603 100.605C227.291 100.424 226.761 100.439 226.421 100.638L225.22 101.342C224.88 101.542 224.858 101.85 225.171 102.031L229.066 104.288C229.379 104.469 229.908 104.454 230.248 104.255L231.449 103.551C231.789 103.352 231.812 103.043 231.499 102.862Z" fill="#24126A"/>
<path d="M239.31 107.387L235.415 105.131C235.102 104.95 234.573 104.964 234.233 105.164L233.032 105.868C232.691 106.067 232.669 106.376 232.982 106.557L236.877 108.813C237.19 108.994 237.72 108.98 238.059 108.78L239.261 108.076C239.601 107.877 239.623 107.568 239.31 107.387Z" fill="#24126A"/>
<path d="M245.271 110.84L241.376 108.584C241.063 108.403 240.534 108.417 240.194 108.617L238.992 109.321C238.652 109.52 238.63 109.829 238.943 110.01L242.838 112.266C243.151 112.448 243.68 112.433 244.02 112.234L245.222 111.529C245.562 111.33 245.584 111.022 245.271 110.84Z" fill="#24126A"/>
<path d="M251.232 114.291L247.337 112.035C247.024 111.854 246.495 111.869 246.155 112.068L244.953 112.772C244.613 112.971 244.591 113.28 244.904 113.461L248.799 115.718C249.112 115.899 249.641 115.884 249.981 115.685L251.183 114.98C251.523 114.781 251.545 114.473 251.232 114.291Z" fill="#24126A"/>
<path d="M257.193 117.745L253.297 115.488C252.985 115.307 252.455 115.322 252.115 115.521L250.914 116.225C250.574 116.425 250.552 116.733 250.864 116.914L254.76 119.171C255.073 119.352 255.602 119.337 255.942 119.138L257.143 118.434C257.483 118.234 257.505 117.926 257.193 117.745Z" fill="#24126A"/>
<path d="M290.471 137.022L286.576 134.765C286.263 134.584 285.734 134.599 285.393 134.798L284.192 135.503C283.852 135.702 283.83 136.01 284.143 136.192L288.038 138.448C288.351 138.629 288.88 138.615 289.22 138.415L290.422 137.711C290.762 137.512 290.784 137.203 290.471 137.022Z" fill="#24126A"/>
<path d="M296.432 140.473L292.537 138.217C292.224 138.035 291.695 138.05 291.354 138.25L290.153 138.954C289.813 139.153 289.791 139.462 290.104 139.643L293.999 141.899C294.312 142.08 294.841 142.066 295.181 141.866L296.382 141.162C296.723 140.963 296.745 140.654 296.432 140.473Z" fill="#24126A"/>
<path d="M302.393 143.926L298.497 141.67C298.185 141.489 297.655 141.503 297.315 141.703L296.114 142.407C295.774 142.606 295.752 142.915 296.065 143.096L299.96 145.352C300.273 145.534 300.802 145.519 301.142 145.319L302.343 144.615C302.684 144.416 302.706 144.107 302.393 143.926Z" fill="#24126A"/>
<path d="M308.354 147.379L304.458 145.123C304.146 144.942 303.616 144.956 303.276 145.156L302.075 145.86C301.735 146.059 301.713 146.368 302.026 146.549L305.921 148.805C306.234 148.987 306.763 148.972 307.103 148.773L308.304 148.068C308.644 147.869 308.667 147.561 308.354 147.379Z" fill="#24126A"/>
<path d="M261.268 113.35L257.372 111.094C257.06 110.912 256.53 110.927 256.19 111.127L252.556 113.257C252.216 113.456 252.194 113.765 252.506 113.946L256.402 116.202C256.715 116.383 257.244 116.369 257.584 116.169L261.218 114.039C261.558 113.84 261.581 113.531 261.268 113.35Z" fill="#24126A"/>
<path d="M267.283 116.834L263.388 114.578C263.075 114.397 262.546 114.412 262.206 114.611L258.572 116.741C258.231 116.94 258.209 117.249 258.522 117.43L262.418 119.687C262.73 119.868 263.259 119.853 263.6 119.654L267.234 117.523C267.574 117.324 267.596 117.016 267.283 116.834Z" fill="#24126A"/>
<path d="M273.299 120.321L269.403 118.064C269.091 117.883 268.562 117.898 268.221 118.097L264.587 120.227C264.247 120.427 264.225 120.735 264.538 120.916L268.433 123.173C268.746 123.354 269.275 123.339 269.615 123.14L273.249 121.01C273.59 120.811 273.612 120.502 273.299 120.321Z" fill="#24126A"/>
<path d="M279.315 123.805L275.419 121.549C275.106 121.368 274.577 121.382 274.237 121.582L270.603 123.712C270.263 123.911 270.241 124.22 270.553 124.401L274.449 126.657C274.762 126.838 275.291 126.824 275.631 126.624L279.265 124.494C279.605 124.295 279.627 123.986 279.315 123.805Z" fill="#24126A"/>
<path d="M285.331 127.29L281.435 125.033C281.122 124.852 280.593 124.867 280.253 125.066L276.619 127.196C276.279 127.396 276.257 127.704 276.57 127.885L280.465 130.142C280.778 130.323 281.307 130.308 281.647 130.109L285.281 127.979C285.621 127.779 285.643 127.471 285.331 127.29Z" fill="#24126A"/>
<path d="M291.346 130.774L287.451 128.517C287.138 128.336 286.609 128.351 286.269 128.55L282.635 130.681C282.294 130.88 282.272 131.188 282.585 131.37L286.48 133.626C286.793 133.807 287.323 133.793 287.663 133.593L291.297 131.463C291.637 131.264 291.659 130.955 291.346 130.774Z" fill="#24126A"/>
<path d="M297.362 134.258L293.467 132.002C293.154 131.821 292.624 131.835 292.284 132.035L288.65 134.165C288.31 134.364 288.288 134.673 288.601 134.854L292.496 137.11C292.809 137.292 293.338 137.277 293.678 137.078L297.312 134.947C297.653 134.748 297.675 134.44 297.362 134.258Z" fill="#24126A"/>
<path d="M303.378 137.743L299.482 135.486C299.169 135.305 298.64 135.32 298.3 135.519L294.666 137.649C294.326 137.849 294.304 138.157 294.616 138.338L298.512 140.595C298.825 140.776 299.354 140.761 299.694 140.562L303.328 138.432C303.668 138.232 303.69 137.924 303.378 137.743Z" fill="#24126A"/>
<path d="M309.393 141.227L305.498 138.971C305.185 138.789 304.656 138.804 304.316 139.003L300.681 141.134C300.341 141.333 300.319 141.642 300.632 141.823L304.527 144.079C304.84 144.26 305.369 144.246 305.709 144.046L309.344 141.916C309.684 141.717 309.706 141.408 309.393 141.227Z" fill="#24126A"/>
<path d="M260.984 93.9071L249.512 87.2616C249.199 87.0804 248.67 87.0951 248.33 87.2945L244.696 89.4248C244.355 89.6241 244.333 89.9326 244.646 90.1138L256.119 96.7593C256.431 96.9405 256.96 96.9258 257.301 96.7264L260.935 94.5961C261.275 94.3968 261.297 94.0883 260.984 93.9071Z" fill="#24126A"/>
<path d="M334.889 136.718L323.416 130.072C323.103 129.891 322.574 129.906 322.234 130.105L318.6 132.235C318.26 132.435 318.238 132.743 318.55 132.924L330.023 139.57C330.336 139.751 330.865 139.736 331.205 139.537L334.839 137.407C335.179 137.207 335.201 136.899 334.889 136.718Z" fill="#24126A"/>
<path d="M323.731 122.963L319.835 120.707C319.523 120.526 318.993 120.54 318.653 120.74L314.324 123.277C313.984 123.477 313.962 123.785 314.275 123.966L318.17 126.223C318.483 126.404 319.012 126.389 319.352 126.19L323.681 123.652C324.021 123.453 324.044 123.145 323.731 122.963Z" fill="#24126A"/>
<path d="M280.045 97.6594L273.815 94.0507C273.502 93.8695 272.973 93.8842 272.633 94.0835L268.304 96.6213C267.963 96.8205 267.941 97.1291 268.254 97.3102L274.484 100.919C274.797 101.1 275.326 101.085 275.666 100.886L279.995 98.3484C280.335 98.149 280.358 97.8406 280.045 97.6594Z" fill="#24126A"/>
<path d="M317.935 119.607L311.705 115.998C311.392 115.817 310.863 115.831 310.523 116.031L306.194 118.569C305.854 118.768 305.831 119.076 306.144 119.258L312.374 122.866C312.687 123.047 313.216 123.033 313.556 122.833L317.885 120.296C318.226 120.096 318.248 119.788 317.935 119.607Z" fill="#24126A"/>
<path d="M288.724 102.685L282.494 99.076C282.181 98.8948 281.652 98.9096 281.312 99.1089L276.983 101.647C276.643 101.846 276.62 102.154 276.933 102.336L283.163 105.944C283.476 106.126 284.005 106.111 284.345 105.912L288.675 103.374C289.015 103.174 289.037 102.866 288.724 102.685Z" fill="#24126A"/>
<path d="M276.976 102.361L304.061 118.051C304.397 118.246 304.926 118.253 305.243 118.068L309.658 115.48C309.974 115.294 309.958 114.986 309.622 114.791L282.536 99.1016L276.976 102.361Z" fill="#24126A"/>
<path d="M328.745 129.109L333.084 131.622C333.34 131.771 333.774 131.759 334.053 131.595L335.824 130.557C336.103 130.394 336.121 130.141 335.865 129.992L331.525 127.479C331.269 127.33 330.835 127.343 330.557 127.506L328.785 128.544C328.507 128.707 328.489 128.96 328.745 129.109Z" fill="#24126A"/>
<path d="M322.729 125.624L327.068 128.138C327.325 128.286 327.759 128.274 328.037 128.111L329.808 127.073C330.087 126.909 330.105 126.657 329.849 126.508L325.51 123.995C325.253 123.846 324.82 123.858 324.541 124.021L322.77 125.06C322.491 125.223 322.473 125.476 322.729 125.624Z" fill="#24126A"/>
<path d="M325.617 130.943L329.956 133.456C330.212 133.605 330.646 133.593 330.925 133.429L332.696 132.391C332.975 132.228 332.993 131.975 332.737 131.826L328.397 129.313C328.141 129.164 327.707 129.176 327.429 129.34L325.658 130.378C325.379 130.541 325.361 130.794 325.617 130.943Z" fill="#24126A"/>
</g>
</g>
</g>
<g opacity="0.8">
<path d="M174.883 134.408L171.025 132.173C170.716 131.994 170.755 131.68 171.112 131.473L175.666 128.835C176.024 128.628 176.565 128.606 176.874 128.785L180.732 131.02C181.042 131.199 181.003 131.513 180.645 131.72L176.092 134.358C175.734 134.565 175.193 134.587 174.883 134.408Z" fill="#24126A"/>
<path d="M180.841 137.857L176.983 135.622C176.673 135.443 176.712 135.13 177.07 134.922L181.623 132.285C181.981 132.077 182.522 132.055 182.832 132.234L186.69 134.469C186.999 134.649 186.961 134.962 186.603 135.169L182.049 137.807C181.692 138.014 181.151 138.037 180.841 137.857Z" fill="#24126A"/>
<path d="M186.799 141.31L182.941 139.076C182.631 138.896 182.67 138.583 183.028 138.375L187.581 135.738C187.939 135.531 188.48 135.508 188.79 135.688L192.648 137.922C192.958 138.102 192.919 138.415 192.561 138.622L188.007 141.26C187.65 141.467 187.109 141.49 186.799 141.31Z" fill="#24126A"/>
<path d="M195.039 138.461L191.181 136.226C190.871 136.047 190.91 135.733 191.268 135.526L195.09 133.312C195.448 133.105 195.989 133.082 196.299 133.262L200.156 135.496C200.466 135.676 200.427 135.989 200.07 136.196L196.247 138.411C195.889 138.618 195.348 138.64 195.039 138.461Z" fill="#24126A"/>
<path d="M200.996 141.91L197.138 139.676C196.829 139.496 196.867 139.183 197.225 138.976L201.048 136.761C201.405 136.554 201.946 136.532 202.256 136.711L206.114 138.946C206.424 139.125 206.385 139.439 206.027 139.646L202.205 141.86C201.847 142.067 201.306 142.09 200.996 141.91Z" fill="#24126A"/>
<path d="M206.954 145.361L203.096 143.127C202.787 142.947 202.825 142.634 203.183 142.427L207.006 140.212C207.363 140.005 207.904 139.983 208.214 140.162L212.072 142.397C212.382 142.576 212.343 142.89 211.985 143.097L208.163 145.311C207.805 145.518 207.264 145.541 206.954 145.361Z" fill="#24126A"/>
<path d="M212.912 148.813L209.054 146.578C208.744 146.398 208.783 146.085 209.141 145.878L212.963 143.664C213.321 143.456 213.862 143.434 214.172 143.613L218.029 145.848C218.339 146.027 218.3 146.341 217.943 146.548L214.12 148.762C213.763 148.969 213.221 148.992 212.912 148.813Z" fill="#24126A"/>
<path d="M218.87 152.264L215.012 150.029C214.702 149.85 214.741 149.536 215.099 149.329L218.921 147.115C219.279 146.908 219.82 146.885 220.13 147.064L223.988 149.299C224.297 149.479 224.258 149.792 223.901 149.999L220.078 152.214C219.721 152.421 219.179 152.443 218.87 152.264Z" fill="#24126A"/>
<path d="M224.827 155.715L220.969 153.48C220.66 153.301 220.698 152.987 221.056 152.78L224.879 150.566C225.236 150.359 225.777 150.336 226.087 150.516L229.945 152.75C230.255 152.93 230.216 153.243 229.858 153.45L226.036 155.665C225.678 155.872 225.137 155.894 224.827 155.715Z" fill="#24126A"/>
<path d="M230.785 159.166L226.927 156.931C226.617 156.752 226.656 156.439 227.014 156.231L230.836 154.017C231.194 153.81 231.735 153.787 232.045 153.967L235.902 156.202C236.212 156.381 236.173 156.694 235.816 156.902L231.993 159.116C231.636 159.323 231.095 159.345 230.785 159.166Z" fill="#24126A"/>
<path d="M236.743 162.617L232.885 160.383C232.575 160.203 232.614 159.89 232.972 159.682L236.794 157.468C237.152 157.261 237.693 157.239 238.003 157.418L241.861 159.653C242.17 159.832 242.131 160.146 241.774 160.353L237.951 162.567C237.594 162.774 237.053 162.797 236.743 162.617Z" fill="#24126A"/>
<path d="M242.7 166.068L238.842 163.834C238.533 163.654 238.571 163.341 238.929 163.134L242.752 160.919C243.109 160.712 243.65 160.69 243.96 160.869L247.818 163.104C248.128 163.283 248.089 163.597 247.731 163.804L243.909 166.018C243.551 166.225 243.01 166.248 242.7 166.068Z" fill="#24126A"/>
<path d="M248.658 169.52L244.8 167.285C244.49 167.105 244.529 166.792 244.887 166.585L248.709 164.371C249.067 164.163 249.608 164.141 249.918 164.32L253.776 166.555C254.085 166.734 254.047 167.048 253.689 167.255L249.866 169.469C249.509 169.677 248.968 169.699 248.658 169.52Z" fill="#24126A"/>
<path d="M203.817 136.826L199.959 134.592C199.649 134.412 199.688 134.099 200.046 133.892L203.868 131.677C204.226 131.47 204.767 131.448 205.077 131.627L208.935 133.862C209.245 134.041 209.206 134.355 208.848 134.562L205.025 136.776C204.668 136.983 204.127 137.006 203.817 136.826Z" fill="#24126A"/>
<path d="M197.77 133.324L193.912 131.09C193.603 130.91 193.641 130.597 193.999 130.39L197.821 128.175C198.179 127.968 198.72 127.946 199.03 128.125L202.888 130.36C203.198 130.539 203.159 130.853 202.801 131.06L198.979 133.274C198.621 133.481 198.08 133.504 197.77 133.324Z" fill="#24126A"/>
<path d="M191.714 129.815L183.405 125.002C183.095 124.822 183.134 124.509 183.492 124.302L187.314 122.087C187.672 121.88 188.213 121.858 188.523 122.037L196.832 126.85C197.141 127.03 197.102 127.343 196.745 127.55L192.922 129.764C192.565 129.972 192.024 129.994 191.714 129.815Z" fill="#24126A"/>
<path d="M195.947 125.548L189.204 121.642C188.894 121.463 188.933 121.149 189.291 120.942L193.114 118.728C193.471 118.521 194.012 118.498 194.322 118.678L201.065 122.584C201.375 122.763 201.336 123.077 200.978 123.284L197.156 125.498C196.798 125.705 196.257 125.728 195.947 125.548Z" fill="#24126A"/>
<path d="M209.775 140.277L205.917 138.043C205.607 137.863 205.646 137.55 206.003 137.343L209.826 135.128C210.184 134.921 210.725 134.899 211.034 135.078L214.892 137.313C215.202 137.492 215.163 137.806 214.805 138.013L210.983 140.227C210.625 140.434 210.084 140.457 209.775 140.277Z" fill="#24126A"/>
<path d="M215.733 143.727L211.875 141.492C211.565 141.312 211.604 140.999 211.961 140.792L215.784 138.578C216.142 138.37 216.683 138.348 216.992 138.527L220.85 140.762C221.16 140.942 221.121 141.255 220.763 141.462L216.941 143.676C216.583 143.884 216.042 143.906 215.733 143.727Z" fill="#24126A"/>
<path d="M221.69 147.18L217.832 144.945C217.522 144.766 217.561 144.452 217.919 144.245L221.741 142.031C222.099 141.824 222.64 141.801 222.95 141.98L226.808 144.215C227.118 144.395 227.079 144.708 226.721 144.915L222.899 147.13C222.541 147.337 222 147.359 221.69 147.18Z" fill="#24126A"/>
<path d="M227.648 150.631L223.79 148.396C223.48 148.217 223.519 147.903 223.876 147.696L227.699 145.482C228.057 145.275 228.598 145.252 228.907 145.432L232.765 147.666C233.075 147.846 233.036 148.159 232.679 148.366L228.856 150.581C228.498 150.788 227.957 150.81 227.648 150.631Z" fill="#24126A"/>
<path d="M233.605 154.082L229.748 151.847C229.438 151.668 229.477 151.354 229.834 151.147L233.657 148.933C234.015 148.726 234.556 148.703 234.865 148.883L238.723 151.118C239.033 151.297 238.994 151.61 238.637 151.818L234.814 154.032C234.456 154.239 233.915 154.262 233.605 154.082Z" fill="#24126A"/>
<path d="M239.563 157.531L235.705 155.297C235.395 155.117 235.434 154.804 235.792 154.597L239.615 152.382C239.972 152.175 240.513 152.153 240.823 152.332L244.681 154.567C244.991 154.746 244.952 155.06 244.594 155.267L240.772 157.481C240.414 157.688 239.873 157.711 239.563 157.531Z" fill="#24126A"/>
<path d="M245.521 160.984L241.663 158.75C241.354 158.57 241.392 158.257 241.75 158.05L245.572 155.836C245.93 155.628 246.471 155.606 246.781 155.785L250.639 158.02C250.949 158.199 250.91 158.513 250.552 158.72L246.73 160.934C246.372 161.141 245.831 161.164 245.521 160.984Z" fill="#24126A"/>
<path d="M251.479 164.434L247.621 162.199C247.311 162.02 247.35 161.706 247.708 161.499L251.53 159.285C251.888 159.077 252.429 159.055 252.738 159.234L256.596 161.469C256.906 161.649 256.867 161.962 256.51 162.169L252.687 164.383C252.329 164.591 251.788 164.613 251.479 164.434Z" fill="#24126A"/>
<path d="M257.437 167.885L253.579 165.65C253.269 165.471 253.308 165.157 253.666 164.95L257.488 162.736C257.846 162.529 258.387 162.506 258.696 162.686L262.554 164.92C262.864 165.1 262.825 165.413 262.468 165.62L258.645 167.835C258.287 168.042 257.746 168.064 257.437 167.885Z" fill="#24126A"/>
<path d="M268.028 174.02L259.61 169.144C259.301 168.965 259.34 168.651 259.697 168.444L263.52 166.23C263.877 166.023 264.418 166 264.728 166.18L273.146 171.056C273.456 171.235 273.417 171.549 273.059 171.756L269.236 173.97C268.879 174.177 268.338 174.2 268.028 174.02Z" fill="#24126A"/>
<path d="M279.627 167.303L272.522 163.187C272.212 163.008 272.251 162.694 272.609 162.487L276.431 160.273C276.789 160.066 277.33 160.043 277.64 160.223L284.745 164.338C285.054 164.518 285.016 164.831 284.658 165.038L280.835 167.253C280.478 167.46 279.937 167.482 279.627 167.303Z" fill="#24126A"/>
<path d="M220.208 139.602L216.35 137.367C216.04 137.187 216.079 136.874 216.437 136.667L220.26 134.453C220.617 134.245 221.158 134.223 221.468 134.402L225.326 136.637C225.636 136.817 225.597 137.13 225.239 137.337L221.417 139.551C221.059 139.759 220.518 139.781 220.208 139.602Z" fill="#24126A"/>
<path d="M214.102 136.065L210.244 133.83C209.935 133.65 209.973 133.337 210.331 133.13L214.154 130.916C214.511 130.708 215.052 130.686 215.362 130.865L219.22 133.1C219.53 133.279 219.491 133.593 219.133 133.8L215.311 136.014C214.953 136.222 214.412 136.244 214.102 136.065Z" fill="#24126A"/>
<path d="M207.996 132.527L204.138 130.293C203.829 130.113 203.867 129.8 204.225 129.593L208.048 127.378C208.405 127.171 208.946 127.149 209.256 127.328L213.114 129.563C213.424 129.742 213.385 130.056 213.027 130.263L209.205 132.477C208.847 132.684 208.306 132.707 207.996 132.527Z" fill="#24126A"/>
<path d="M201.89 128.99L198.032 126.756C197.723 126.576 197.761 126.263 198.119 126.055L201.942 123.841C202.299 123.634 202.84 123.612 203.15 123.791L207.008 126.026C207.318 126.205 207.279 126.519 206.921 126.726L203.099 128.94C202.741 129.147 202.2 129.17 201.89 128.99Z" fill="#24126A"/>
<path d="M226.166 143.053L222.308 140.818C221.998 140.639 222.037 140.325 222.394 140.118L226.217 137.904C226.575 137.697 227.116 137.674 227.426 137.854L231.283 140.088C231.593 140.268 231.554 140.581 231.197 140.788L227.374 143.003C227.016 143.21 226.475 143.232 226.166 143.053Z" fill="#24126A"/>
<path d="M232.123 146.504L228.265 144.269C227.956 144.09 227.994 143.776 228.352 143.569L232.174 141.355C232.532 141.148 233.073 141.125 233.383 141.305L237.241 143.539C237.551 143.719 237.512 144.032 237.154 144.24L233.332 146.454C232.974 146.661 232.433 146.683 232.123 146.504Z" fill="#24126A"/>
<path d="M238.081 149.955L234.223 147.72C233.913 147.541 233.952 147.228 234.31 147.02L238.132 144.806C238.49 144.599 239.031 144.576 239.34 144.756L243.198 146.991C243.508 147.17 243.469 147.483 243.112 147.691L239.289 149.905C238.932 150.112 238.39 150.135 238.081 149.955Z" fill="#24126A"/>
<path d="M244.039 153.406L240.181 151.172C239.871 150.992 239.91 150.679 240.268 150.472L244.09 148.257C244.448 148.05 244.989 148.028 245.299 148.207L249.156 150.442C249.466 150.621 249.427 150.935 249.07 151.142L245.247 153.356C244.889 153.563 244.349 153.586 244.039 153.406Z" fill="#24126A"/>
<path d="M249.996 156.858L246.138 154.623C245.829 154.443 245.867 154.13 246.225 153.923L250.048 151.709C250.405 151.501 250.946 151.479 251.256 151.658L255.114 153.893C255.424 154.072 255.385 154.386 255.027 154.593L251.205 156.807C250.847 157.014 250.306 157.037 249.996 156.858Z" fill="#24126A"/>
<path d="M255.954 160.309L252.096 158.074C251.787 157.895 251.825 157.581 252.183 157.374L256.006 155.16C256.363 154.952 256.904 154.93 257.214 155.109L261.072 157.344C261.382 157.524 261.343 157.837 260.985 158.044L257.163 160.258C256.805 160.466 256.264 160.488 255.954 160.309Z" fill="#24126A"/>
<path d="M261.912 163.758L258.054 161.523C257.745 161.344 257.783 161.03 258.141 160.823L261.964 158.609C262.321 158.402 262.862 158.379 263.172 158.559L267.03 160.793C267.34 160.973 267.301 161.286 266.943 161.493L263.121 163.708C262.763 163.915 262.222 163.937 261.912 163.758Z" fill="#24126A"/>
<path d="M267.87 167.211L264.012 164.976C263.702 164.797 263.741 164.483 264.099 164.276L267.921 162.062C268.279 161.855 268.82 161.832 269.13 162.012L272.987 164.247C273.297 164.426 273.258 164.739 272.901 164.947L269.078 167.161C268.721 167.368 268.179 167.391 267.87 167.211Z" fill="#24126A"/>
<path d="M273.828 170.66L269.97 168.426C269.66 168.246 269.699 167.933 270.057 167.726L273.879 165.511C274.237 165.304 274.778 165.282 275.088 165.461L278.945 167.696C279.255 167.875 279.216 168.189 278.859 168.396L275.036 170.61C274.679 170.817 274.137 170.84 273.828 170.66Z" fill="#24126A"/>
<path d="M217.07 131.066L213.213 128.832C212.903 128.652 212.942 128.339 213.299 128.132L217.122 125.917C217.48 125.71 218.021 125.688 218.33 125.867L222.188 128.102C222.498 128.281 222.459 128.595 222.101 128.802L218.279 131.016C217.921 131.223 217.38 131.246 217.07 131.066Z" fill="#24126A"/>
<path d="M211.143 127.631L207.285 125.396C206.975 125.217 207.014 124.903 207.372 124.696L211.194 122.482C211.552 122.275 212.093 122.252 212.403 122.432L216.26 124.666C216.57 124.846 216.531 125.159 216.174 125.366L212.351 127.581C211.993 127.788 211.452 127.81 211.143 127.631Z" fill="#24126A"/>
<path d="M205.215 124.199L201.357 121.965C201.047 121.785 201.086 121.472 201.443 121.265L205.266 119.05C205.623 118.843 206.165 118.821 206.474 119L210.332 121.235C210.642 121.414 210.603 121.728 210.245 121.935L206.423 124.149C206.065 124.356 205.524 124.379 205.215 124.199Z" fill="#24126A"/>
<path d="M199.287 120.764L195.429 118.529C195.119 118.35 195.158 118.036 195.516 117.829L199.338 115.615C199.696 115.408 200.237 115.385 200.547 115.564L204.404 117.799C204.714 117.979 204.675 118.292 204.318 118.499L200.495 120.714C200.138 120.921 199.596 120.943 199.287 120.764Z" fill="#24126A"/>
<path d="M205.382 117.233L201.525 114.998C201.215 114.818 201.254 114.505 201.611 114.298L202.875 113.566C203.233 113.359 203.774 113.336 204.083 113.516L207.941 115.75C208.251 115.93 208.212 116.243 207.855 116.45L206.591 117.182C206.233 117.39 205.692 117.412 205.382 117.233Z" fill="#24126A"/>
<path d="M213.119 121.713L209.261 119.478C208.951 119.299 208.99 118.986 209.348 118.778L210.611 118.046C210.969 117.839 211.51 117.817 211.82 117.996L215.678 120.231C215.987 120.41 215.949 120.724 215.591 120.931L214.327 121.663C213.97 121.87 213.428 121.893 213.119 121.713Z" fill="#24126A"/>
<path d="M219.022 125.133L215.164 122.898C214.854 122.719 214.893 122.405 215.251 122.198L216.515 121.466C216.872 121.259 217.413 121.237 217.723 121.416L221.581 123.651C221.891 123.83 221.852 124.144 221.494 124.351L220.23 125.083C219.873 125.29 219.332 125.312 219.022 125.133Z" fill="#24126A"/>
<path d="M224.925 128.553L221.067 126.318C220.758 126.139 220.797 125.825 221.154 125.618L222.418 124.886C222.776 124.679 223.317 124.656 223.626 124.836L227.484 127.071C227.794 127.25 227.755 127.564 227.397 127.771L226.134 128.503C225.776 128.71 225.235 128.732 224.925 128.553Z" fill="#24126A"/>
<path d="M230.829 131.973L226.971 129.738C226.661 129.559 226.7 129.245 227.058 129.038L228.321 128.306C228.679 128.099 229.22 128.076 229.53 128.256L233.388 130.491C233.697 130.67 233.658 130.984 233.301 131.191L232.037 131.923C231.68 132.13 231.138 132.152 230.829 131.973Z" fill="#24126A"/>
<path d="M263.786 151.063L259.928 148.828C259.619 148.649 259.657 148.335 260.015 148.128L261.279 147.396C261.636 147.189 262.177 147.166 262.487 147.346L266.345 149.58C266.655 149.76 266.616 150.073 266.258 150.281L264.995 151.012C264.637 151.22 264.096 151.242 263.786 151.063Z" fill="#24126A"/>
<path d="M269.69 154.483L265.832 152.248C265.522 152.068 265.561 151.755 265.918 151.548L267.182 150.816C267.54 150.609 268.081 150.586 268.391 150.766L272.248 153C272.558 153.18 272.519 153.493 272.162 153.7L270.898 154.432C270.54 154.64 269.999 154.662 269.69 154.483Z" fill="#24126A"/>
<path d="M275.593 157.903L271.735 155.668C271.426 155.488 271.465 155.175 271.822 154.968L273.086 154.236C273.444 154.029 273.985 154.006 274.294 154.186L278.152 156.42C278.462 156.6 278.423 156.913 278.065 157.12L276.802 157.852C276.444 158.06 275.903 158.082 275.593 157.903Z" fill="#24126A"/>
<path d="M281.496 161.322L277.638 159.088C277.329 158.908 277.367 158.595 277.725 158.388L278.989 157.656C279.346 157.449 279.887 157.426 280.197 157.606L284.055 159.84C284.365 160.02 284.326 160.333 283.968 160.54L282.705 161.272C282.347 161.479 281.806 161.502 281.496 161.322Z" fill="#24126A"/>
<path d="M223.028 134.516L219.171 132.281C218.861 132.101 218.9 131.788 219.257 131.581L223.08 129.367C223.438 129.16 223.979 129.137 224.288 129.316L228.146 131.551C228.456 131.731 228.417 132.044 228.059 132.251L224.237 134.465C223.879 134.673 223.338 134.695 223.028 134.516Z" fill="#24126A"/>
<path d="M228.986 137.967L225.129 135.732C224.819 135.553 224.858 135.239 225.215 135.032L229.038 132.818C229.396 132.611 229.936 132.588 230.246 132.768L234.104 135.002C234.414 135.182 234.375 135.495 234.017 135.702L230.195 137.917C229.837 138.124 229.296 138.146 228.986 137.967Z" fill="#24126A"/>
<path d="M234.944 141.418L231.086 139.183C230.776 139.004 230.815 138.69 231.173 138.483L234.995 136.269C235.353 136.062 235.894 136.039 236.204 136.219L240.062 138.454C240.371 138.633 240.333 138.946 239.975 139.154L236.152 141.368C235.795 141.575 235.254 141.598 234.944 141.418Z" fill="#24126A"/>
<path d="M240.902 144.869L237.044 142.635C236.734 142.455 236.773 142.142 237.131 141.935L240.953 139.72C241.311 139.513 241.852 139.491 242.162 139.67L246.02 141.905C246.329 142.084 246.291 142.398 245.933 142.605L242.11 144.819C241.753 145.026 241.212 145.049 240.902 144.869Z" fill="#24126A"/>
<path d="M246.859 148.32L243.002 146.086C242.692 145.906 242.731 145.593 243.088 145.386L246.911 143.171C247.269 142.964 247.81 142.942 248.119 143.121L251.977 145.356C252.287 145.535 252.248 145.849 251.89 146.056L248.068 148.27C247.71 148.477 247.169 148.5 246.859 148.32Z" fill="#24126A"/>
<path d="M252.817 151.773L248.959 149.539C248.649 149.359 248.688 149.046 249.046 148.839L252.868 146.625C253.226 146.417 253.767 146.395 254.077 146.574L257.935 148.809C258.244 148.988 258.206 149.302 257.848 149.509L254.025 151.723C253.668 151.93 253.127 151.953 252.817 151.773Z" fill="#24126A"/>
<path d="M258.775 155.223L254.917 152.988C254.607 152.809 254.646 152.495 255.003 152.288L258.826 150.074C259.184 149.867 259.725 149.844 260.034 150.023L263.892 152.258C264.202 152.438 264.163 152.751 263.806 152.958L259.983 155.172C259.625 155.38 259.084 155.402 258.775 155.223Z" fill="#24126A"/>
<path d="M264.733 158.674L260.875 156.439C260.565 156.26 260.604 155.946 260.961 155.739L264.784 153.525C265.142 153.318 265.683 153.295 265.992 153.475L269.85 155.709C270.16 155.889 270.121 156.202 269.763 156.409L265.941 158.624C265.583 158.831 265.042 158.853 264.733 158.674Z" fill="#24126A"/>
<path d="M270.69 162.125L266.832 159.89C266.522 159.711 266.561 159.398 266.919 159.19L270.741 156.976C271.099 156.769 271.64 156.746 271.95 156.926L275.808 159.16C276.118 159.34 276.079 159.653 275.721 159.861L271.899 162.075C271.541 162.282 271 162.304 270.69 162.125Z" fill="#24126A"/>
<path d="M188.967 134.943L177.606 128.361C177.296 128.182 177.335 127.868 177.692 127.661L181.515 125.447C181.873 125.24 182.414 125.217 182.723 125.396L194.085 131.978C194.395 132.157 194.356 132.471 193.998 132.678L190.176 134.892C189.818 135.1 189.277 135.122 188.967 134.943Z" fill="#24126A"/>
<path d="M262.159 177.341L250.798 170.76C250.488 170.58 250.527 170.267 250.884 170.059L254.707 167.845C255.064 167.638 255.606 167.616 255.915 167.795L267.277 174.376C267.587 174.556 267.548 174.869 267.19 175.077L263.368 177.291C263.01 177.498 262.469 177.52 262.159 177.341Z" fill="#24126A"/>
<path d="M238.334 171.162L234.476 168.927C234.166 168.748 234.205 168.434 234.562 168.227L239.116 165.589C239.474 165.382 240.015 165.36 240.325 165.539L244.182 167.774C244.492 167.953 244.453 168.267 244.096 168.474L239.542 171.112C239.184 171.319 238.643 171.341 238.334 171.162Z" fill="#24126A"/>
<path d="M195.068 146.099L188.899 142.525C188.589 142.345 188.628 142.032 188.985 141.825L193.539 139.187C193.897 138.98 194.438 138.957 194.747 139.137L200.917 142.711C201.227 142.89 201.188 143.204 200.83 143.411L196.277 146.048C195.919 146.256 195.378 146.278 195.068 146.099Z" fill="#24126A"/>
<path d="M232.593 167.837L226.424 164.263C226.114 164.084 226.153 163.77 226.51 163.563L231.064 160.925C231.422 160.718 231.963 160.696 232.272 160.875L238.442 164.449C238.752 164.628 238.713 164.942 238.355 165.149L233.802 167.787C233.444 167.994 232.903 168.016 232.593 167.837Z" fill="#24126A"/>
<path d="M203.664 151.079L197.494 147.505C197.185 147.326 197.223 147.012 197.581 146.805L202.135 144.167C202.492 143.96 203.033 143.938 203.343 144.117L209.513 147.691C209.823 147.871 209.784 148.184 209.426 148.391L204.872 151.029C204.515 151.236 203.974 151.259 203.664 151.079Z" fill="#24126A"/>
<path d="M203.385 144.141L230.21 159.679C230.542 159.872 230.542 160.185 230.21 160.377L225.566 163.067C225.233 163.26 224.694 163.26 224.361 163.067L197.536 147.529L203.385 144.141Z" fill="#24126A"/>
<path d="M254.984 177.42L259.281 179.909C259.535 180.056 259.503 180.313 259.21 180.483L257.347 181.562C257.054 181.731 256.611 181.75 256.357 181.603L252.06 179.114C251.806 178.967 251.838 178.71 252.131 178.54L253.993 177.461C254.287 177.291 254.73 177.273 254.984 177.42Z" fill="#24126A"/>
<path d="M248.977 173.939L253.275 176.428C253.528 176.575 253.497 176.832 253.203 177.002L251.341 178.081C251.047 178.251 250.604 178.269 250.35 178.122L246.053 175.633C245.799 175.486 245.831 175.229 246.124 175.059L247.987 173.98C248.28 173.81 248.723 173.792 248.977 173.939Z" fill="#24126A"/>
<path d="M243.02 170.488L247.317 172.977C247.571 173.124 247.539 173.381 247.246 173.551L245.383 174.63C245.09 174.8 244.646 174.818 244.392 174.671L240.095 172.182C239.841 172.035 239.873 171.778 240.166 171.608L242.029 170.529C242.322 170.359 242.766 170.341 243.02 170.488Z" fill="#24126A"/>
<path d="M252.267 172.033L256.565 174.522C256.818 174.669 256.787 174.926 256.493 175.096L254.631 176.175C254.337 176.345 253.894 176.363 253.64 176.216L249.343 173.727C249.089 173.58 249.121 173.323 249.414 173.153L251.277 172.074C251.57 171.904 252.013 171.886 252.267 172.033Z" fill="#24126A"/>
</g>
<path d="M313.047 79.0323C312.754 79.0323 312.445 78.9448 312.148 78.7731C311.222 78.2348 310.668 77.0633 310.889 76.1056C310.993 75.6512 311.262 75.3101 311.644 75.1432C312.067 74.9574 312.589 75.0135 313.074 75.2938C313.986 75.8229 314.55 77.0189 314.333 77.9614C314.228 78.4157 313.96 78.758 313.577 78.925C313.412 78.9962 313.233 79.0323 313.047 79.0323ZM312.176 75.4503C312.046 75.4503 311.921 75.4737 311.809 75.524C311.549 75.636 311.366 75.8767 311.291 76.199C311.112 76.9768 311.589 77.9696 312.355 78.4134C312.726 78.6294 313.111 78.6762 313.412 78.5441C313.672 78.4309 313.856 78.1915 313.93 77.8679C314.11 77.0901 313.633 76.0973 312.867 75.6535C312.635 75.5192 312.396 75.4503 312.176 75.4503Z" fill="#42E8E0"/>
<path d="M317.96 81.879C317.667 81.879 317.358 81.7914 317.061 81.6197C316.149 81.0917 315.584 79.8957 315.801 78.9533C315.906 78.499 316.174 78.1567 316.557 77.9897C316.979 77.8064 317.5 77.8601 317.987 78.1416C318.898 78.6695 319.463 79.8655 319.246 80.8079C319.141 81.2622 318.873 81.6045 318.49 81.7715C318.326 81.8428 318.146 81.879 317.96 81.879ZM317.088 78.2968C316.957 78.2968 316.834 78.3213 316.722 78.3705C316.462 78.4826 316.279 78.7232 316.204 79.0467C316.025 79.8246 316.502 80.8174 317.267 81.26C317.638 81.476 318.024 81.5227 318.326 81.3907C318.585 81.2786 318.769 81.038 318.843 80.7145C319.022 79.9366 318.546 78.9439 317.78 78.5012C317.547 78.3658 317.308 78.2968 317.088 78.2968Z" fill="#42E8E0"/>
<path d="M323.957 83.606C323.758 84.4674 322.916 84.7712 322.076 84.2846C321.236 83.7981 320.716 82.7055 320.915 81.8441C321.113 80.9828 321.955 80.679 322.795 81.1655C323.635 81.652 324.155 82.7448 323.957 83.606Z" fill="#FE9D3E"/>
<path d="M229.767 29.2209L227.14 27.6991L227.344 26.4805L229.971 28.0024L229.767 29.2209Z" fill="#42E8E0"/>
<path d="M233.587 31.4338L230.959 29.9119L231.163 28.6934L233.79 30.2152L233.587 31.4338Z" fill="#FE9D3E"/>
<path d="M225.988 27.0327L220.227 23.6951L220.43 22.4766L226.192 25.814L225.988 27.0327Z" fill="#42E8E0"/>
<path d="M226.252 39.0137L219.972 35.3761L220.215 33.9199L226.495 37.5574L226.252 39.0137Z" fill="#FE9D3E"/>
<path d="M231.61 42.1188L228.471 40.3001L228.714 38.8438L231.854 40.6625L231.61 42.1188Z" fill="#FE9D3E"/>
<path d="M227.534 43.5022L224.858 41.9524L225.102 40.4961L227.777 42.046L227.534 43.5022Z" fill="#FE9D3E"/>
<path d="M232.015 46.0993L228.875 44.2806L229.119 42.8242L232.259 44.6429L232.015 46.0993Z" fill="#FE9D3E"/>
<path d="M236.626 52.5138L224.288 45.3665L224.531 43.9102L236.869 51.0575L236.626 52.5138Z" fill="#FE9D3E"/>
<path d="M225.93 81.0997L213.592 73.9524L213.835 72.4961L226.174 79.6435L225.93 81.0997Z" fill="#FE9D3E"/>
<path d="M230.675 83.8492L227.536 82.0304L227.779 80.5742L230.919 82.3929L230.675 83.8492Z" fill="#FE9D3E"/>
<path d="M226.392 50.3323L223.717 48.7824L223.96 47.3262L226.636 48.8759L226.392 50.3323Z" fill="#FE9D3E"/>
<path d="M230.874 52.9273L227.734 51.1086L227.977 49.6523L231.117 51.4711L230.874 52.9273Z" fill="#FE9D3E"/>
<path d="M229.93 56.1257L223.146 52.1965L223.39 50.7402L230.173 54.6694L229.93 56.1257Z" fill="#42E8E0"/>
<path d="M234.47 58.7555L231.33 56.9368L231.573 55.4805L234.713 57.2993L234.47 58.7555Z" fill="#42E8E0"/>
<path d="M239.034 61.4001L235.894 59.5813L236.137 58.125L239.277 59.9437L239.034 61.4001Z" fill="#42E8E0"/>
<path d="M246.399 65.6653L240.458 62.2238L240.701 60.7676L246.643 64.209L246.399 65.6653Z" fill="#42E8E0"/>
<path d="M241.697 70.4313L238.558 68.6126L238.801 67.1562L241.941 68.9751L241.697 70.4313Z" fill="#42E8E0"/>
<path d="M249.063 74.6985L243.122 71.2571L243.365 69.8008L249.306 73.2423L249.063 74.6985Z" fill="#42E8E0"/>
<path d="M225.145 60.8434L222.005 59.0247L222.248 57.5684L225.388 59.3872L225.145 60.8434Z" fill="#42E8E0"/>
<path d="M229.709 63.4879L226.569 61.6692L226.812 60.2129L229.952 62.0316L229.709 63.4879Z" fill="#42E8E0"/>
<path d="M237.074 67.7552L231.133 64.3136L231.376 62.8574L237.317 66.2988L237.074 67.7552Z" fill="#42E8E0"/>
<path d="M246.726 69.5992L243.586 67.7804L243.829 66.3242L246.969 68.1429L246.726 69.5992Z" fill="#42E8E0"/>
<path d="M251.29 72.2438L248.15 70.4251L248.393 68.9688L251.533 70.7876L251.29 72.2438Z" fill="#42E8E0"/>
<path d="M258.655 76.511L252.714 73.0696L252.957 71.6133L258.898 75.0547L258.655 76.511Z" fill="#42E8E0"/>
<path d="M235.588 86.695L232.448 84.8761L232.692 83.4199L235.831 85.2386L235.588 86.695Z" fill="#FE9D3E"/>
<path d="M242.953 90.9603L237.012 87.5189L237.256 86.0625L243.197 89.504L242.953 90.9603Z" fill="#FE9D3E"/>
<path d="M224.004 67.6735L220.864 65.8548L221.107 64.3984L224.247 66.2172L224.004 67.6735Z" fill="#42E8E0"/>
<path d="M231.369 71.9407L225.428 68.4992L225.671 67.043L231.612 70.4844L231.369 71.9407Z" fill="#42E8E0"/>
<path d="M239.007 92.4215L235.868 90.6027L236.111 89.1465L239.251 90.9652L239.007 92.4215Z" fill="#FE9D3E"/>
<path d="M246.373 96.6868L240.432 93.2453L240.676 91.7891L246.617 95.2305L246.373 96.6868Z" fill="#FE9D3E"/>
<path d="M246.012 57.9508L242.873 56.132L243.116 54.6758L246.256 56.4945L246.012 57.9508Z" fill="#FE9D3E"/>
<path d="M241.265 55.2008L238.125 53.3821L238.369 51.9258L241.509 53.7445L241.265 55.2008Z" fill="#FE9D3E"/>
<path d="M253.377 62.2179L247.436 58.7765L247.679 57.3203L253.62 60.7617L253.377 62.2179Z" fill="#FE9D3E"/>
<path d="M225.409 57.2515L222.576 55.6105L222.819 54.1543L225.652 55.7952L225.409 57.2515Z" fill="#42E8E0"/>
<path d="M233.809 62.1167L226.923 58.1282L227.167 56.6719L234.052 60.6603L233.809 62.1167Z" fill="#42E8E0"/>
<path d="M242.209 66.9837L235.324 62.9953L235.567 61.5391L242.453 65.5275L242.209 66.9837Z" fill="#42E8E0"/>
<path d="M257.741 64.7457L254.908 63.1047L255.152 61.6484L257.984 63.2894L257.741 64.7457Z" fill="#FE9D3E"/>
<path d="M266.141 69.6107L259.256 65.6222L259.499 64.166L266.385 68.1545L266.141 69.6107Z" fill="#FE9D3E"/>
<path d="M274.541 74.478L267.656 70.4895L267.899 69.0332L274.785 73.0217L274.541 74.478Z" fill="#FE9D3E"/>
<path d="M228.38 66.4642L221.495 62.4758L221.739 61.0195L228.624 65.008L228.38 66.4642Z" fill="#42E8E0"/>
<path d="M232.01 68.5661L229.896 67.3411L230.139 65.8848L232.254 67.1098L232.01 68.5661Z" fill="#42E8E0"/>
<path d="M235.648 70.6736L233.533 69.4485L233.777 67.9922L235.891 69.2172L235.648 70.6736Z" fill="#42E8E0"/>
<path d="M242.373 74.5694L237.17 71.5559L237.414 70.0996L242.616 73.1132L242.373 74.5694Z" fill="#42E8E0"/>
<path d="M249.911 67.7009L247.796 66.4759L248.039 65.0195L250.154 66.2446L249.911 67.7009Z" fill="#42E8E0"/>
<path d="M256.636 71.5948L251.434 68.5813L251.677 67.125L256.879 70.1386L256.636 71.5948Z" fill="#42E8E0"/>
<path d="M258.05 72.4151L252.847 69.4016L253.091 67.9453L258.293 70.9589L258.05 72.4151Z" fill="#42E8E0"/>
<path d="M230.353 91.1511L223.57 87.2219L223.813 85.7656L230.596 89.6948L230.353 91.1511Z" fill="#42E8E0"/>
<path d="M234.893 93.7827L231.753 91.964L231.997 90.5078L235.137 92.3265L234.893 93.7827Z" fill="#42E8E0"/>
<path d="M239.457 96.4255L236.317 94.6067L236.561 93.1504L239.7 94.9691L239.457 96.4255Z" fill="#42E8E0"/>
<path d="M246.823 100.693L240.881 97.2511L241.125 95.7949L247.066 99.2363L246.823 100.693Z" fill="#42E8E0"/>
<path d="M251.534 103.422L248.395 101.603L248.638 100.146L251.778 101.965L251.534 103.422Z" fill="#42E8E0"/>
<path d="M258.9 107.689L252.958 104.247L253.202 102.791L259.143 106.233L258.9 107.689Z" fill="#42E8E0"/>
<path d="M236.305 102.091L233.166 100.273L233.409 98.8164L236.549 100.635L236.305 102.091Z" fill="#42E8E0"/>
<path d="M243.671 106.359L237.729 102.917L237.973 101.461L243.914 104.902L243.671 106.359Z" fill="#42E8E0"/>
<path d="M219.906 92.5915L216.766 90.7726L217.009 89.3164L220.149 91.1351L219.906 92.5915Z" fill="#42E8E0"/>
<path d="M224.47 95.2359L221.33 93.4172L221.574 91.9609L224.713 93.7797L224.47 95.2359Z" fill="#42E8E0"/>
<path d="M231.836 99.5032L225.895 96.0618L226.138 94.6055L232.079 98.047L231.836 99.5032Z" fill="#42E8E0"/>
<path d="M225.832 92.2788L222.999 90.6378L223.242 89.1816L226.075 90.8225L225.832 92.2788Z" fill="#42E8E0"/>
<path d="M234.232 97.144L227.347 93.1556L227.59 91.6992L234.475 95.6877L234.232 97.144Z" fill="#42E8E0"/>
<path d="M242.632 102.011L235.747 98.0227L235.99 96.5664L242.875 100.555L242.632 102.011Z" fill="#42E8E0"/>
<path d="M217.588 94.9955L210.703 91.007L210.946 89.5508L217.832 93.5392L217.588 94.9955Z" fill="#42E8E0"/>
<path d="M221.218 97.0973L219.103 95.8722L219.346 94.416L221.461 95.641L221.218 97.0973Z" fill="#42E8E0"/>
<path d="M224.856 99.2048L222.741 97.9798L222.984 96.5234L225.099 97.7485L224.856 99.2048Z" fill="#42E8E0"/>
<path d="M231.58 103.099L226.378 100.085L226.621 98.6289L231.824 101.643L231.58 103.099Z" fill="#42E8E0"/>
<path d="M232.994 103.919L227.792 100.906L228.035 99.4492L233.237 102.463L232.994 103.919Z" fill="#42E8E0"/>
<path d="M220.689 81.8103L218.575 80.5853L218.818 79.1289L220.933 80.354L220.689 81.8103Z" fill="#FE9D3E"/>
<path d="M227.415 85.7042L222.212 82.6907L222.456 81.2344L227.658 84.248L227.415 85.7042Z" fill="#FE9D3E"/>
<path d="M234.285 89.6847L229.083 86.6711L229.326 85.2148L234.528 88.2284L234.285 89.6847Z" fill="#FE9D3E"/>
<path d="M260.762 112.513L257.622 110.695L257.865 109.238L261.005 111.057L260.762 112.513Z" fill="#42E8E0"/>
<path d="M268.127 116.779L262.186 113.337L262.429 111.881L268.371 115.322L268.127 116.779Z" fill="#42E8E0"/>
<path d="M249.169 105.798L243.966 102.784L244.21 101.328L249.412 104.342L249.169 105.798Z" fill="#42E8E0"/>
<path d="M256.039 109.776L250.837 106.763L251.08 105.307L256.283 108.32L256.039 109.776Z" fill="#42E8E0"/>
<path d="M217.012 67.3687L214.897 66.1437L215.14 64.6875L217.255 65.9125L217.012 67.3687Z" fill="#42E8E0"/>
<path d="M223.737 71.2648L218.534 68.2511L218.778 66.7949L223.98 69.8084L223.737 71.2648Z" fill="#42E8E0"/>
<path d="M230.607 75.2452L225.405 72.2317L225.648 70.7754L230.851 73.789L230.607 75.2452Z" fill="#42E8E0"/>
<path d="M310.923 113.149C310.589 113.149 310.243 113.05 309.904 112.854L281.125 96.1841C279.937 95.4951 279.167 93.7524 279.41 92.2996L281.252 81.2823C281.378 80.5197 281.773 79.9298 282.331 79.6647C282.851 79.4195 283.457 79.4708 284.038 79.806L312.816 96.4761C314.005 97.1653 314.775 98.9078 314.532 100.361L312.691 111.378C312.563 112.142 312.17 112.732 311.61 112.996C311.394 113.098 311.161 113.149 310.923 113.149ZM283.019 80.0082C282.852 80.0082 282.69 80.0431 282.542 80.1132C282.132 80.3071 281.839 80.7638 281.738 81.364L279.897 92.3814C279.685 93.6473 280.347 95.161 281.372 95.7544L310.151 112.424C310.588 112.679 311.032 112.72 311.4 112.547C311.811 112.353 312.103 111.898 312.204 111.296L314.045 100.279C314.256 99.0129 313.595 97.4993 312.57 96.906L283.791 80.2359C283.53 80.084 283.267 80.0082 283.019 80.0082Z" fill="#42E8E0"/>
<path d="M307.759 132.08C307.425 132.08 307.079 131.982 306.74 131.786L277.962 115.116C276.773 114.427 276.003 112.684 276.247 111.231L278.088 100.215C278.215 99.4515 278.609 98.8616 279.168 98.5965C279.687 98.3501 280.293 98.4038 280.874 98.7378L309.652 115.409C310.841 116.098 311.611 117.841 311.368 119.292L309.527 130.31C309.399 131.074 309.006 131.663 308.446 131.927C308.23 132.03 307.998 132.08 307.759 132.08ZM279.855 98.9399C279.688 98.9399 279.527 98.9749 279.379 99.0449C278.968 99.2389 278.675 99.6956 278.574 100.297L276.733 111.313C276.522 112.579 277.184 114.093 278.209 114.686L306.987 131.356C307.424 131.611 307.868 131.653 308.236 131.479C308.647 131.285 308.939 130.829 309.04 130.228L310.881 119.211C311.092 117.945 310.431 116.432 309.406 115.839L280.627 99.1677C280.366 99.0158 280.103 98.9399 279.855 98.9399Z" fill="#42E8E0"/>
<path opacity="0.5" d="M283.733 94.958C284.243 95.2532 284.697 95.1426 284.865 94.6823L288.221 85.4824C288.604 84.4316 290.17 85.3815 290.501 86.8656L292.568 96.1246C292.719 96.8014 293.186 97.4762 293.717 97.7836L294.21 98.0694C294.69 98.3472 295.123 98.2671 295.312 97.8657L295.996 96.4122C296.419 95.5115 297.832 96.3612 298.217 97.7488C298.394 98.3888 298.839 99.0014 299.336 99.2889L299.767 99.5387C300.29 99.8415 300.752 99.7169 300.91 99.2308L301.533 97.31C301.884 96.2257 303.455 97.1285 303.815 98.6218L305.883 107.193C306.046 107.867 306.515 108.528 307.041 108.823L283.733 94.958Z" fill="url(#paint32_linear_174_7462)"/>
<path d="M303.378 127.719C302.792 127.39 302.279 126.672 302.1 125.932L300.032 117.36C299.799 116.394 299.043 115.777 298.603 115.76C298.482 115.762 298.316 115.782 298.224 116.066L297.601 117.987C297.51 118.27 297.324 118.478 297.079 118.572C296.794 118.682 296.444 118.632 296.1 118.433L295.669 118.183C295.116 117.863 294.632 117.2 294.435 116.495C294.197 115.633 293.528 115.01 293.055 114.969C292.869 114.959 292.756 115.026 292.676 115.198L291.992 116.651C291.881 116.886 291.701 117.048 291.472 117.121C291.193 117.208 290.872 117.153 290.544 116.964L290.05 116.678C289.459 116.335 288.95 115.605 288.784 114.858L286.717 105.599C286.518 104.704 285.802 103.999 285.295 103.966C285.105 103.945 284.985 104.042 284.909 104.248L281.553 113.447C281.455 113.718 281.275 113.908 281.033 113.996C280.75 114.1 280.408 114.048 280.067 113.853L280.314 113.423C280.524 113.544 280.72 113.584 280.864 113.53C280.966 113.493 281.042 113.408 281.09 113.277L284.446 104.077C284.596 103.666 284.929 103.466 285.327 103.471C286.024 103.516 286.942 104.34 287.199 105.491L289.265 114.751C289.401 115.359 289.825 115.975 290.297 116.248L290.79 116.534C290.994 116.652 291.184 116.694 291.325 116.648C291.42 116.618 291.495 116.547 291.545 116.438L292.229 114.986C292.396 114.628 292.708 114.447 293.097 114.475C293.839 114.539 294.635 115.368 294.911 116.361C295.072 116.94 295.476 117.499 295.916 117.754L296.347 118.004C296.561 118.129 296.759 118.165 296.902 118.11C297.008 118.069 297.086 117.976 297.132 117.834L297.755 115.912C297.893 115.484 298.224 115.261 298.622 115.265C299.311 115.292 300.235 116.093 300.512 117.243L302.58 125.815C302.726 126.42 303.153 127.025 303.619 127.286L303.378 127.719Z" fill="#FE9D3E"/>
</g>
</g>
<defs>
<radialGradient id="paint0_radial_174_7462" cx="0" cy="0" r="1" gradientUnits="userSpaceOnUse" gradientTransform="translate(322.621 313.143) rotate(-2.08814) scale(240.774 241.902)">
<stop stop-color="#42E8E0"/>
<stop offset="1" stop-color="#180D5B"/>
</radialGradient>
<radialGradient id="paint1_radial_174_7462" cx="0" cy="0" r="1" gradientUnits="userSpaceOnUse" gradientTransform="translate(250.262 91.0036) scale(219.671 219.593)">
<stop stop-color="#2B237C"/>
<stop offset="1" stop-color="#180D5B"/>
</radialGradient>
<linearGradient id="paint2_linear_174_7462" x1="38.3257" y1="187.073" x2="360.709" y2="187.073" gradientUnits="userSpaceOnUse">
<stop stop-color="#180D5B"/>
<stop offset="0.0960556" stop-color="#2E1949"/>
<stop offset="0.261623" stop-color="#603845"/>
<stop offset="0.476771" stop-color="#9C5E40"/>
<stop offset="0.733219" stop-color="#B8703E"/>
<stop offset="1" stop-color="#FD9B38"/>
</linearGradient>
<linearGradient id="paint3_linear_174_7462" x1="45.6268" y1="114.368" x2="157.333" y2="114.368" gradientUnits="userSpaceOnUse">
<stop stop-color="#5761D7"/>
<stop offset="0.164464" stop-color="#5E67DA"/>
<stop offset="0.405065" stop-color="#727AE2"/>
<stop offset="0.692353" stop-color="#9297EE"/>
<stop offset="1" stop-color="#BCBEFF"/>
</linearGradient>
<linearGradient id="paint4_linear_174_7462" x1="77.2397" y1="99.6202" x2="144.289" y2="99.6202" gradientUnits="userSpaceOnUse">
<stop stop-color="#42E8E0"/>
<stop offset="0.150735" stop-color="#43E3E0"/>
<stop offset="0.328491" stop-color="#45D5DF"/>
<stop offset="0.519898" stop-color="#49BDDD"/>
<stop offset="0.720931" stop-color="#4E9CDB"/>
<stop offset="0.927424" stop-color="#5472D8"/>
<stop offset="1" stop-color="#5761D7"/>
</linearGradient>
<linearGradient id="paint5_linear_174_7462" x1="110.764" y1="87.7794" x2="144.289" y2="87.7794" gradientUnits="userSpaceOnUse">
<stop stop-color="#42E8E0"/>
<stop offset="0.150735" stop-color="#43E3E0"/>
<stop offset="0.328491" stop-color="#45D5DF"/>
<stop offset="0.519898" stop-color="#49BDDD"/>
<stop offset="0.720931" stop-color="#4E9CDB"/>
<stop offset="0.927424" stop-color="#5472D8"/>
<stop offset="1" stop-color="#5761D7"/>
</linearGradient>
<linearGradient id="paint6_linear_174_7462" x1="77.2397" y1="87.7792" x2="110.765" y2="87.7792" gradientUnits="userSpaceOnUse">
<stop stop-color="#42E8E0"/>
<stop offset="0.150735" stop-color="#43E3E0"/>
<stop offset="0.328491" stop-color="#45D5DF"/>
<stop offset="0.519898" stop-color="#49BDDD"/>
<stop offset="0.720931" stop-color="#4E9CDB"/>
<stop offset="0.927424" stop-color="#5472D8"/>
<stop offset="1" stop-color="#5761D7"/>
</linearGradient>
<linearGradient id="paint7_linear_174_7462" x1="77.2397" y1="94.8507" x2="144.289" y2="94.8507" gradientUnits="userSpaceOnUse">
<stop stop-color="#42E8E0"/>
<stop offset="0.150735" stop-color="#43E3E0"/>
<stop offset="0.328491" stop-color="#45D5DF"/>
<stop offset="0.519898" stop-color="#49BDDD"/>
<stop offset="0.720931" stop-color="#4E9CDB"/>
<stop offset="0.927424" stop-color="#5472D8"/>
<stop offset="1" stop-color="#5761D7"/>
</linearGradient>
<linearGradient id="paint8_linear_174_7462" x1="110.765" y1="106.691" x2="144.289" y2="106.691" gradientUnits="userSpaceOnUse">
<stop stop-color="#42E8E0"/>
<stop offset="0.150735" stop-color="#43E3E0"/>
<stop offset="0.328491" stop-color="#45D5DF"/>
<stop offset="0.519898" stop-color="#49BDDD"/>
<stop offset="0.720931" stop-color="#4E9CDB"/>
<stop offset="0.927424" stop-color="#5472D8"/>
<stop offset="1" stop-color="#5761D7"/>
</linearGradient>
<linearGradient id="paint9_linear_174_7462" x1="77.2397" y1="106.692" x2="110.765" y2="106.692" gradientUnits="userSpaceOnUse">
<stop stop-color="#42E8E0"/>
<stop offset="0.150735" stop-color="#43E3E0"/>
<stop offset="0.328491" stop-color="#45D5DF"/>
<stop offset="0.519898" stop-color="#49BDDD"/>
<stop offset="0.720931" stop-color="#4E9CDB"/>
<stop offset="0.927424" stop-color="#5472D8"/>
<stop offset="1" stop-color="#5761D7"/>
</linearGradient>
<linearGradient id="paint10_linear_174_7462" x1="45.6268" y1="226.071" x2="157.333" y2="226.071" gradientUnits="userSpaceOnUse">
<stop stop-color="#5761D7"/>
<stop offset="0.164464" stop-color="#5E67DA"/>
<stop offset="0.405065" stop-color="#727AE2"/>
<stop offset="0.692353" stop-color="#9297EE"/>
<stop offset="1" stop-color="#BCBEFF"/>
</linearGradient>
<linearGradient id="paint11_linear_174_7462" x1="77.2397" y1="211.323" x2="144.289" y2="211.323" gradientUnits="userSpaceOnUse">
<stop stop-color="#42E8E0"/>
<stop offset="0.150735" stop-color="#43E3E0"/>
<stop offset="0.328491" stop-color="#45D5DF"/>
<stop offset="0.519898" stop-color="#49BDDD"/>
<stop offset="0.720931" stop-color="#4E9CDB"/>
<stop offset="0.927424" stop-color="#5472D8"/>
<stop offset="1" stop-color="#5761D7"/>
</linearGradient>
<linearGradient id="paint12_linear_174_7462" x1="110.764" y1="199.483" x2="144.289" y2="199.483" gradientUnits="userSpaceOnUse">
<stop stop-color="#42E8E0"/>
<stop offset="0.150735" stop-color="#43E3E0"/>
<stop offset="0.328491" stop-color="#45D5DF"/>
<stop offset="0.519898" stop-color="#49BDDD"/>
<stop offset="0.720931" stop-color="#4E9CDB"/>
<stop offset="0.927424" stop-color="#5472D8"/>
<stop offset="1" stop-color="#5761D7"/>
</linearGradient>
<linearGradient id="paint13_linear_174_7462" x1="77.2397" y1="199.482" x2="110.765" y2="199.482" gradientUnits="userSpaceOnUse">
<stop stop-color="#42E8E0"/>
<stop offset="0.150735" stop-color="#43E3E0"/>
<stop offset="0.328491" stop-color="#45D5DF"/>
<stop offset="0.519898" stop-color="#49BDDD"/>
<stop offset="0.720931" stop-color="#4E9CDB"/>
<stop offset="0.927424" stop-color="#5472D8"/>
<stop offset="1" stop-color="#5761D7"/>
</linearGradient>
<linearGradient id="paint14_linear_174_7462" x1="77.2397" y1="206.554" x2="144.289" y2="206.554" gradientUnits="userSpaceOnUse">
<stop stop-color="#42E8E0"/>
<stop offset="0.150735" stop-color="#43E3E0"/>
<stop offset="0.328491" stop-color="#45D5DF"/>
<stop offset="0.519898" stop-color="#49BDDD"/>
<stop offset="0.720931" stop-color="#4E9CDB"/>
<stop offset="0.927424" stop-color="#5472D8"/>
<stop offset="1" stop-color="#5761D7"/>
</linearGradient>
<linearGradient id="paint15_linear_174_7462" x1="110.765" y1="218.394" x2="144.289" y2="218.394" gradientUnits="userSpaceOnUse">
<stop stop-color="#42E8E0"/>
<stop offset="0.150735" stop-color="#43E3E0"/>
<stop offset="0.328491" stop-color="#45D5DF"/>
<stop offset="0.519898" stop-color="#49BDDD"/>
<stop offset="0.720931" stop-color="#4E9CDB"/>
<stop offset="0.927424" stop-color="#5472D8"/>
<stop offset="1" stop-color="#5761D7"/>
</linearGradient>
<linearGradient id="paint16_linear_174_7462" x1="77.2397" y1="218.393" x2="110.765" y2="218.393" gradientUnits="userSpaceOnUse">
<stop stop-color="#42E8E0"/>
<stop offset="0.150735" stop-color="#43E3E0"/>
<stop offset="0.328491" stop-color="#45D5DF"/>
<stop offset="0.519898" stop-color="#49BDDD"/>
<stop offset="0.720931" stop-color="#4E9CDB"/>
<stop offset="0.927424" stop-color="#5472D8"/>
<stop offset="1" stop-color="#5761D7"/>
</linearGradient>
<linearGradient id="paint17_linear_174_7462" x1="264.11" y1="242.62" x2="375.816" y2="242.62" gradientUnits="userSpaceOnUse">
<stop stop-color="#5761D7"/>
<stop offset="0.164464" stop-color="#5E67DA"/>
<stop offset="0.405065" stop-color="#727AE2"/>
<stop offset="0.692353" stop-color="#9297EE"/>
<stop offset="1" stop-color="#BCBEFF"/>
</linearGradient>
<linearGradient id="paint18_linear_174_7462" x1="295.723" y1="227.872" x2="362.772" y2="227.872" gradientUnits="userSpaceOnUse">
<stop stop-color="#42E8E0"/>
<stop offset="0.150735" stop-color="#43E3E0"/>
<stop offset="0.328491" stop-color="#45D5DF"/>
<stop offset="0.519898" stop-color="#49BDDD"/>
<stop offset="0.720931" stop-color="#4E9CDB"/>
<stop offset="0.927424" stop-color="#5472D8"/>
<stop offset="1" stop-color="#5761D7"/>
</linearGradient>
<linearGradient id="paint19_linear_174_7462" x1="329.247" y1="216.031" x2="362.772" y2="216.031" gradientUnits="userSpaceOnUse">
<stop stop-color="#42E8E0"/>
<stop offset="0.150735" stop-color="#43E3E0"/>
<stop offset="0.328491" stop-color="#45D5DF"/>
<stop offset="0.519898" stop-color="#49BDDD"/>
<stop offset="0.720931" stop-color="#4E9CDB"/>
<stop offset="0.927424" stop-color="#5472D8"/>
<stop offset="1" stop-color="#5761D7"/>
</linearGradient>
<linearGradient id="paint20_linear_174_7462" x1="295.723" y1="216.031" x2="329.248" y2="216.031" gradientUnits="userSpaceOnUse">
<stop stop-color="#42E8E0"/>
<stop offset="0.150735" stop-color="#43E3E0"/>
<stop offset="0.328491" stop-color="#45D5DF"/>
<stop offset="0.519898" stop-color="#49BDDD"/>
<stop offset="0.720931" stop-color="#4E9CDB"/>
<stop offset="0.927424" stop-color="#5472D8"/>
<stop offset="1" stop-color="#5761D7"/>
</linearGradient>
<linearGradient id="paint21_linear_174_7462" x1="295.723" y1="223.103" x2="362.772" y2="223.103" gradientUnits="userSpaceOnUse">
<stop stop-color="#42E8E0"/>
<stop offset="0.150735" stop-color="#43E3E0"/>
<stop offset="0.328491" stop-color="#45D5DF"/>
<stop offset="0.519898" stop-color="#49BDDD"/>
<stop offset="0.720931" stop-color="#4E9CDB"/>
<stop offset="0.927424" stop-color="#5472D8"/>
<stop offset="1" stop-color="#5761D7"/>
</linearGradient>
<linearGradient id="paint22_linear_174_7462" x1="329.248" y1="234.941" x2="362.772" y2="234.941" gradientUnits="userSpaceOnUse">
<stop stop-color="#42E8E0"/>
<stop offset="0.150735" stop-color="#43E3E0"/>
<stop offset="0.328491" stop-color="#45D5DF"/>
<stop offset="0.519898" stop-color="#49BDDD"/>
<stop offset="0.720931" stop-color="#4E9CDB"/>
<stop offset="0.927424" stop-color="#5472D8"/>
<stop offset="1" stop-color="#5761D7"/>
</linearGradient>
<linearGradient id="paint23_linear_174_7462" x1="295.723" y1="234.942" x2="329.248" y2="234.942" gradientUnits="userSpaceOnUse">
<stop stop-color="#42E8E0"/>
<stop offset="0.150735" stop-color="#43E3E0"/>
<stop offset="0.328491" stop-color="#45D5DF"/>
<stop offset="0.519898" stop-color="#49BDDD"/>
<stop offset="0.720931" stop-color="#4E9CDB"/>
<stop offset="0.927424" stop-color="#5472D8"/>
<stop offset="1" stop-color="#5761D7"/>
</linearGradient>
<linearGradient id="paint24_linear_174_7462" x1="314.535" y1="177.261" x2="114.12" y2="177.261" gradientUnits="userSpaceOnUse">
<stop stop-color="#5761D7"/>
<stop offset="0.177894" stop-color="#5C66D9"/>
<stop offset="0.387598" stop-color="#6A73DF"/>
<stop offset="0.6134" stop-color="#8289E8"/>
<stop offset="0.84896" stop-color="#A3A7F5"/>
<stop offset="1" stop-color="#BCBEFF"/>
</linearGradient>
<linearGradient id="paint25_linear_174_7462" x1="250.952" y1="172.58" x2="50.5362" y2="172.58" gradientUnits="userSpaceOnUse">
<stop stop-color="#C0BFF6"/>
<stop offset="0.293761" stop-color="#C5C4F7"/>
<stop offset="0.639919" stop-color="#D3D2F9"/>
<stop offset="1" stop-color="#E9E9FD"/>
</linearGradient>
<linearGradient id="paint26_linear_174_7462" x1="337.258" y1="84.3731" x2="195.429" y2="84.3731" gradientUnits="userSpaceOnUse">
<stop stop-color="#C0BFF6"/>
<stop offset="0.293761" stop-color="#C5C4F7"/>
<stop offset="0.639919" stop-color="#D3D2F9"/>
<stop offset="1" stop-color="#E9E9FD"/>
</linearGradient>
<linearGradient id="paint27_linear_174_7462" x1="337.257" y1="120.866" x2="312.904" y2="120.866" gradientUnits="userSpaceOnUse">
<stop stop-color="#5761D7"/>
<stop offset="0.177894" stop-color="#5C66D9"/>
<stop offset="0.387598" stop-color="#6A73DF"/>
<stop offset="0.6134" stop-color="#8289E8"/>
<stop offset="0.84896" stop-color="#A3A7F5"/>
<stop offset="1" stop-color="#BCBEFF"/>
</linearGradient>
<linearGradient id="paint28_linear_174_7462" x1="318.256" y1="160.682" x2="117.947" y2="160.682" gradientUnits="userSpaceOnUse">
<stop stop-color="#5761D7"/>
<stop offset="0.177894" stop-color="#5C66D9"/>
<stop offset="0.387598" stop-color="#6A73DF"/>
<stop offset="0.6134" stop-color="#8289E8"/>
<stop offset="0.84896" stop-color="#A3A7F5"/>
<stop offset="1" stop-color="#BCBEFF"/>
</linearGradient>
<linearGradient id="paint29_linear_174_7462" x1="250.952" y1="155.187" x2="50.5362" y2="155.187" gradientUnits="userSpaceOnUse">
<stop stop-color="#C0BFF6"/>
<stop offset="0.293761" stop-color="#C5C4F7"/>
<stop offset="0.639919" stop-color="#D3D2F9"/>
<stop offset="1" stop-color="#E9E9FD"/>
</linearGradient>
<linearGradient id="paint30_linear_174_7462" x1="395.281" y1="116.452" x2="194.972" y2="116.452" gradientUnits="userSpaceOnUse">
<stop stop-color="#5761D7"/>
<stop offset="0.177894" stop-color="#5C66D9"/>
<stop offset="0.387598" stop-color="#6A73DF"/>
<stop offset="0.6134" stop-color="#8289E8"/>
<stop offset="0.84896" stop-color="#A3A7F5"/>
<stop offset="1" stop-color="#BCBEFF"/>
</linearGradient>
<linearGradient id="paint31_linear_174_7462" x1="327.977" y1="110.957" x2="127.561" y2="110.957" gradientUnits="userSpaceOnUse">
<stop stop-color="#C0BFF6"/>
<stop offset="0.293761" stop-color="#C5C4F7"/>
<stop offset="0.639919" stop-color="#D3D2F9"/>
<stop offset="1" stop-color="#E9E9FD"/>
</linearGradient>
<linearGradient id="paint32_linear_174_7462" x1="285.943" y1="91.7489" x2="327.335" y2="109.399" gradientUnits="userSpaceOnUse">
<stop stop-color="#42E8E0"/>
<stop offset="0.105539" stop-color="#37B6BF"/>
<stop offset="0.219661" stop-color="#2C87A1"/>
<stop offset="0.337969" stop-color="#235F87"/>
<stop offset="0.458668" stop-color="#1C3F72"/>
<stop offset="0.582439" stop-color="#162561"/>
<stop offset="0.710541" stop-color="#121355"/>
<stop offset="0.845774" stop-color="#10084E"/>
<stop offset="1" stop-color="#0F054C"/>
</linearGradient>
<clipPath id="clip0_174_7462">
<rect width="376.283" height="325" fill="white" transform="translate(0.716797)"/>
</clipPath>
<clipPath id="clip1_174_7462">
<rect width="223.669" height="236.027" fill="white" transform="translate(118.112)"/>
</clipPath>
</defs>
</svg>
