<svg width="1920" height="613" viewBox="0 0 1920 613" fill="none" xmlns="http://www.w3.org/2000/svg">
<g opacity="0.2" clip-path="url(#clip0_174_4802)">
<mask id="mask0_174_4802" style="mask-type:luminance" maskUnits="userSpaceOnUse" x="-5" y="-123" width="1926" height="1285">
<path d="M1920.72 -122.672H-4.41431V1161.33H1920.72V-122.672Z" fill="white"/>
</mask>
<g mask="url(#mask0_174_4802)">
<path d="M449.747 581.264C772.978 581.264 1035.01 319.116 1035.01 -4.2605C1035.01 -327.637 772.978 -589.785 449.747 -589.785C126.516 -589.785 -135.514 -327.637 -135.514 -4.2605C-135.514 319.116 126.516 581.264 449.747 581.264Z" fill="url(#paint0_radial_174_4802)"/>
</g>
<mask id="mask1_174_4802" style="mask-type:luminance" maskUnits="userSpaceOnUse" x="-5" y="-123" width="1926" height="1285">
<path d="M1920.72 -122.672H-4.41431V1161.33H1920.72V-122.672Z" fill="white"/>
</mask>
<g mask="url(#mask1_174_4802)">
<path d="M1247.45 1821.56C1611.92 1821.56 1907.38 1525.96 1907.38 1161.33C1907.38 796.694 1611.92 501.1 1247.45 501.1C882.983 501.1 587.521 796.694 587.521 1161.33C587.521 1525.96 882.983 1821.56 1247.45 1821.56Z" fill="url(#paint1_radial_174_4802)"/>
</g>
<g opacity="0.3">
<mask id="mask2_174_4802" style="mask-type:luminance" maskUnits="userSpaceOnUse" x="-5" y="-123" width="1926" height="1285">
<path d="M1920.72 -122.672H-4.41431V1161.33H1920.72V-122.672Z" fill="white"/>
</mask>
<g mask="url(#mask2_174_4802)">
<path d="M699.948 529.712C913.468 529.712 1086.56 356.542 1086.56 142.926C1086.56 -70.6909 913.468 -243.861 699.948 -243.861C486.427 -243.861 313.335 -70.6909 313.335 142.926C313.335 356.542 486.427 529.712 699.948 529.712Z" fill="url(#paint2_radial_174_4802)"/>
</g>
</g>
<mask id="mask3_174_4802" style="mask-type:luminance" maskUnits="userSpaceOnUse" x="-5" y="-123" width="1926" height="1285">
<path d="M1920.72 -122.672H-4.41431V1161.33H1920.72V-122.672Z" fill="white"/>
</mask>
<g mask="url(#mask3_174_4802)">
<path d="M-51.0194 1235.69C162.501 1235.69 335.593 1062.52 335.593 848.904C335.593 635.287 162.501 462.117 -51.0194 462.117C-264.54 462.117 -437.632 635.287 -437.632 848.904C-437.632 1062.52 -264.54 1235.69 -51.0194 1235.69Z" fill="url(#paint3_radial_174_4802)"/>
</g>
<mask id="mask4_174_4802" style="mask-type:luminance" maskUnits="userSpaceOnUse" x="-5" y="-123" width="1926" height="1285">
<path d="M1920.72 -122.672H-4.41431V1161.33H1920.72V-122.672Z" fill="white"/>
</mask>
<g mask="url(#mask4_174_4802)">
<path d="M1942.3 1428.83C2260.97 1428.83 2519.3 1170.39 2519.3 851.578C2519.3 532.767 2260.97 274.32 1942.3 274.32C1623.64 274.32 1365.3 532.767 1365.3 851.578C1365.3 1170.39 1623.64 1428.83 1942.3 1428.83Z" fill="url(#paint4_radial_174_4802)"/>
</g>
<mask id="mask5_174_4802" style="mask-type:luminance" maskUnits="userSpaceOnUse" x="-5" y="-123" width="1926" height="1285">
<path d="M1920.72 -122.672H-4.41431V1161.33H1920.72V-122.672Z" fill="white"/>
</mask>
<g mask="url(#mask5_174_4802)">
<path d="M-94.7299 2174.78C398.729 2174.78 798.757 1774.57 798.757 1280.89C798.757 787.212 398.729 387.004 -94.7299 387.004C-588.189 387.004 -988.217 787.212 -988.217 1280.89C-988.217 1774.57 -588.189 2174.78 -94.7299 2174.78Z" fill="url(#paint5_radial_174_4802)"/>
</g>
<mask id="mask6_174_4802" style="mask-type:luminance" maskUnits="userSpaceOnUse" x="-5" y="-123" width="1926" height="1285">
<path d="M1920.72 -122.672H-4.41431V1161.33H1920.72V-122.672Z" fill="white"/>
</mask>
<g mask="url(#mask6_174_4802)">
<path d="M1303.91 520.874C1707.1 520.874 2033.94 193.881 2033.94 -209.487C2033.94 -612.854 1707.1 -939.848 1303.91 -939.848C900.724 -939.848 573.877 -612.854 573.877 -209.487C573.877 193.881 900.724 520.874 1303.91 520.874Z" fill="url(#paint6_radial_174_4802)"/>
</g>
<mask id="mask7_174_4802" style="mask-type:luminance" maskUnits="userSpaceOnUse" x="-5" y="-123" width="1926" height="1285">
<path d="M1920.72 -122.672H-4.41431V1161.33H1920.72V-122.672Z" fill="white"/>
</mask>
<g mask="url(#mask7_174_4802)">
<path d="M1800.39 774.843C1944.55 774.843 2061.42 657.922 2061.42 513.693C2061.42 369.464 1944.55 252.543 1800.39 252.543C1656.22 252.543 1539.35 369.464 1539.35 513.693C1539.35 657.922 1656.22 774.843 1800.39 774.843Z" fill="url(#paint7_linear_174_4802)"/>
<path d="M1867.41 587.658C1950.19 587.658 2017.29 520.527 2017.29 437.716C2017.29 354.905 1950.19 287.773 1867.41 287.773C1784.64 287.773 1717.54 354.905 1717.54 437.716C1717.54 520.527 1784.64 587.658 1867.41 587.658Z" fill="url(#paint8_radial_174_4802)"/>
</g>
<mask id="mask8_174_4802" style="mask-type:luminance" maskUnits="userSpaceOnUse" x="-5" y="-123" width="1926" height="1285">
<path d="M1920.72 -122.672H-4.41431V1161.33H1920.72V-122.672Z" fill="white"/>
</mask>
<g mask="url(#mask8_174_4802)">
<path d="M1869.38 204.107H1862.4V211.088H1869.38V204.107Z" fill="#F8EEE0"/>
<path d="M1869.38 173.508H1862.4V180.489H1869.38V173.508Z" fill="#F8EEE0"/>
<path d="M1869.38 142.906H1862.4V149.887H1869.38V142.906Z" fill="#F8EEE0"/>
<path d="M1869.38 112.305H1862.4V119.285H1869.38V112.305Z" fill="#F8EEE0"/>
<path d="M1869.38 81.6992H1862.4V88.68H1869.38V81.6992Z" fill="#F8EEE0"/>
<path d="M1869.38 51.0977H1862.4V58.0785H1869.38V51.0977Z" fill="#F8EEE0"/>
<path d="M1869.38 20.4961H1862.4V27.4769H1869.38V20.4961Z" fill="#F8EEE0"/>
<path d="M1838.79 204.107H1831.81V211.088H1838.79V204.107Z" fill="#F8EEE0"/>
<path d="M1838.79 173.508H1831.81V180.489H1838.79V173.508Z" fill="#F8EEE0"/>
<path d="M1838.79 142.906H1831.81V149.887H1838.79V142.906Z" fill="#F8EEE0"/>
<path d="M1838.79 112.305H1831.81V119.285H1838.79V112.305Z" fill="#F8EEE0"/>
<path d="M1838.79 81.6992H1831.81V88.68H1838.79V81.6992Z" fill="#F8EEE0"/>
<path d="M1838.79 51.0977H1831.81V58.0785H1838.79V51.0977Z" fill="#F8EEE0"/>
<path d="M1838.79 20.4961H1831.81V27.4769H1838.79V20.4961Z" fill="#F8EEE0"/>
<path d="M1808.2 204.107H1801.23V211.088H1808.2V204.107Z" fill="#F8EEE0"/>
<path d="M1808.2 173.506H1801.23V180.487H1808.2V173.506Z" fill="#F8EEE0"/>
<path d="M1808.2 142.904H1801.23V149.885H1808.2V142.904Z" fill="#F8EEE0"/>
<path d="M1808.2 112.303H1801.23V119.284H1808.2V112.303Z" fill="#F8EEE0"/>
<path d="M1808.2 81.7012H1801.23V88.682H1808.2V81.7012Z" fill="#F8EEE0"/>
<path d="M1808.2 51.0996H1801.23V58.0804H1808.2V51.0996Z" fill="#F8EEE0"/>
<path d="M1808.2 20.4961H1801.23V27.4769H1808.2V20.4961Z" fill="#F8EEE0"/>
<path d="M1777.61 51.0977H1770.64V58.0785H1777.61V51.0977Z" fill="#F8EEE0"/>
<path d="M1777.61 20.498H1770.64V27.4789H1777.61V20.498Z" fill="#F8EEE0"/>
<path d="M1747.03 51.0977H1740.05V58.0785H1747.03V51.0977Z" fill="#F8EEE0"/>
<path d="M1747.03 20.4961H1740.05V27.4769H1747.03V20.4961Z" fill="#F8EEE0"/>
<path d="M1716.44 51.0977H1709.46V58.0785H1716.44V51.0977Z" fill="#F8EEE0"/>
<path d="M1716.44 20.4961H1709.46V27.4769H1716.44V20.4961Z" fill="#F8EEE0"/>
<path d="M1685.85 51.0977H1678.87V58.0785H1685.85V51.0977Z" fill="#F8EEE0"/>
<path d="M1685.85 20.498H1678.87V27.4789H1685.85V20.498Z" fill="#F8EEE0"/>
<path d="M1869.38 418.32H1862.4V425.301H1869.38V418.32Z" fill="#F8EEE0"/>
<path d="M1869.38 387.719H1862.4V394.7H1869.38V387.719Z" fill="#F8EEE0"/>
<path d="M1869.38 357.117H1862.4V364.098H1869.38V357.117Z" fill="#F8EEE0"/>
<path d="M1869.38 326.516H1862.4V333.496H1869.38V326.516Z" fill="#F8EEE0"/>
<path d="M1869.38 295.914H1862.4V302.895H1869.38V295.914Z" fill="#F8EEE0"/>
<path d="M1869.38 265.312H1862.4V272.293H1869.38V265.312Z" fill="#F8EEE0"/>
<path d="M1869.38 234.711H1862.4V241.692H1869.38V234.711Z" fill="#F8EEE0"/>
<path d="M1838.79 326.516H1831.81V333.496H1838.79V326.516Z" fill="#F8EEE0"/>
<path d="M1838.79 295.914H1831.81V302.895H1838.79V295.914Z" fill="#F8EEE0"/>
<path d="M1838.79 265.312H1831.81V272.293H1838.79V265.312Z" fill="#F8EEE0"/>
<path d="M1838.79 234.711H1831.81V241.692H1838.79V234.711Z" fill="#F8EEE0"/>
<path d="M1808.2 326.516H1801.23V333.496H1808.2V326.516Z" fill="#F8EEE0"/>
<path d="M1808.2 295.914H1801.23V302.895H1808.2V295.914Z" fill="#F8EEE0"/>
<path d="M1808.2 265.312H1801.23V272.293H1808.2V265.312Z" fill="#F8EEE0"/>
<path d="M1808.2 234.711H1801.23V241.692H1808.2V234.711Z" fill="#F8EEE0"/>
</g>
<mask id="mask9_174_4802" style="mask-type:luminance" maskUnits="userSpaceOnUse" x="-5" y="-123" width="1926" height="1285">
<path d="M1920.72 -122.672H-4.41431V1161.33H1920.72V-122.672Z" fill="white"/>
</mask>
<g mask="url(#mask9_174_4802)">
<path d="M122.251 72.3086L265.541 494.282" stroke="#F8EEE0" stroke-width="0.75" stroke-miterlimit="10" stroke-linecap="round" stroke-linejoin="round"/>
<path d="M266 495.632C148.782 535.472 21.476 472.701 -18.3458 355.431C-58.1675 238.16 4.57433 110.797 121.792 70.957" stroke="#F8EEE0" stroke-width="0.75" stroke-miterlimit="10" stroke-linecap="round" stroke-linejoin="round"/>
<path d="M121.792 70.957C23.7319 116.235 -28.3873 235.52 9.1569 346.083C46.7011 456.646 160.664 519.484 266 495.632" stroke="#F8EEE0" stroke-width="0.75" stroke-miterlimit="10" stroke-linecap="round" stroke-linejoin="round"/>
<path d="M121.792 70.957C47.1844 120.213 9.07879 230.267 44.3452 334.123C79.6118 437.979 176.841 502.036 266 495.632" stroke="#F8EEE0" stroke-width="0.75" stroke-miterlimit="10" stroke-linecap="round" stroke-linejoin="round"/>
<path d="M121.792 70.957C73.4613 123.232 51.5297 223.321 84.5188 320.469C117.508 417.618 195.842 483.629 266 495.632" stroke="#F8EEE0" stroke-width="0.75" stroke-miterlimit="10" stroke-linecap="round" stroke-linejoin="round"/>
<path d="M121.793 70.957C121.793 70.957 78.55 131.439 136.715 302.729C194.88 474.019 266 495.632 266 495.632" stroke="#F8EEE0" stroke-width="0.75" stroke-miterlimit="10" stroke-linecap="round" stroke-linejoin="round"/>
<path d="M266 495.631C383.218 455.791 445.96 328.428 406.138 211.157C366.316 93.8868 239.011 31.1164 121.792 70.9564" stroke="#F8EEE0" stroke-width="0.75" stroke-miterlimit="10" stroke-linecap="round" stroke-linejoin="round"/>
<path d="M121.792 70.9572C219.069 49.8444 326.451 114.918 363.995 225.482C401.539 336.045 356.001 453.094 266 495.632" stroke="#F8EEE0" stroke-width="0.75" stroke-miterlimit="10" stroke-linecap="round" stroke-linejoin="round"/>
<path d="M121.792 70.9559C199.127 68.5702 286.585 135.948 321.851 239.804C357.118 343.66 328.784 450.393 266 495.631" stroke="#F8EEE0" stroke-width="0.75" stroke-miterlimit="10" stroke-linecap="round" stroke-linejoin="round"/>
<path d="M121.792 70.957C179.186 87.2982 246.719 156.98 279.708 254.129C312.697 351.277 301.567 447.696 266 495.632" stroke="#F8EEE0" stroke-width="0.75" stroke-miterlimit="10" stroke-linecap="round" stroke-linejoin="round"/>
<path d="M121.792 70.957C159.245 106.025 206.853 178.011 237.565 268.453C268.276 358.894 274.35 444.997 266 495.632" stroke="#F8EEE0" stroke-width="0.75" stroke-miterlimit="10" stroke-linecap="round" stroke-linejoin="round"/>
<path d="M-18.3457 355.429L406.138 211.156" stroke="#F8EEE0" stroke-width="0.75" stroke-miterlimit="10" stroke-linecap="round" stroke-linejoin="round"/>
<path d="M8.84766 156.712L264.168 69.9336" stroke="#F8EEE0" stroke-width="0.75" stroke-miterlimit="10" stroke-linecap="round" stroke-linejoin="round"/>
<path d="M-19.1748 213.605L320.733 98.0781" stroke="#F8EEE0" stroke-width="0.75" stroke-miterlimit="10" stroke-linecap="round" stroke-linejoin="round"/>
<path d="M-29.5266 264.49L359.636 132.223" stroke="#F8EEE0" stroke-width="0.75" stroke-miterlimit="10" stroke-linecap="round" stroke-linejoin="round"/>
<path d="M-28.5205 311.519L387.472 170.133" stroke="#F8EEE0" stroke-width="0.75" stroke-miterlimit="10" stroke-linecap="round" stroke-linejoin="round"/>
<path d="M378.944 409.875L123.624 496.653" stroke="#F8EEE0" stroke-width="0.75" stroke-miterlimit="10" stroke-linecap="round" stroke-linejoin="round"/>
<path d="M406.967 352.982L67.0596 468.509" stroke="#F8EEE0" stroke-width="0.75" stroke-miterlimit="10" stroke-linecap="round" stroke-linejoin="round"/>
<path d="M417.319 302.094L28.1562 434.361" stroke="#F8EEE0" stroke-width="0.75" stroke-miterlimit="10" stroke-linecap="round" stroke-linejoin="round"/>
<path d="M416.313 255.068L0.320312 396.455" stroke="#F8EEE0" stroke-width="0.75" stroke-miterlimit="10" stroke-linecap="round" stroke-linejoin="round"/>
<path d="M529.136 21.3527C581.979 21.3527 624.816 -21.5041 624.816 -74.3705C624.816 -127.237 581.979 -170.094 529.136 -170.094C476.294 -170.094 433.456 -127.237 433.456 -74.3705C433.456 -21.5041 476.294 21.3527 529.136 21.3527Z" stroke="#F8EEE0" stroke-width="0.75" stroke-miterlimit="10" stroke-linecap="round" stroke-linejoin="round"/>
<path d="M882.755 1718.62C1103.28 1498 1007.7 1044.66 669.254 706.065C330.812 367.471 -122.322 271.84 -342.851 492.468C-563.379 713.095 -467.791 1166.43 -129.35 1505.03C209.092 1843.62 662.227 1939.25 882.755 1718.62Z" stroke="#F8EEE0" stroke-width="0.5" stroke-miterlimit="10" stroke-linecap="round" stroke-linejoin="round"/>
<path d="M981.283 23.2937C1201.81 243.921 1654.95 148.291 1993.39 -190.303C2331.83 -528.898 2427.42 -982.236 2206.89 -1202.86C1986.36 -1423.49 1533.23 -1327.86 1194.78 -989.267C856.342 -650.673 760.754 -197.334 981.283 23.2937Z" stroke="#F8EEE0" stroke-width="0.5" stroke-miterlimit="10" stroke-linecap="round" stroke-linejoin="round"/>
</g>
</g>
<defs>
<radialGradient id="paint0_radial_174_4802" cx="0" cy="0" r="1" gradientUnits="userSpaceOnUse" gradientTransform="translate(449.747 -4.2604) scale(585.273 585.537)">
<stop offset="0.433036" stop-color="#160A5B"/>
<stop offset="1" stop-color="#AAA9FC" stop-opacity="0"/>
</radialGradient>
<radialGradient id="paint1_radial_174_4802" cx="0" cy="0" r="1" gradientUnits="userSpaceOnUse" gradientTransform="translate(1247.45 1161.33) scale(659.945 660.242)">
<stop stop-color="#F8EEE0"/>
<stop offset="0.043321" stop-color="#F1E8E1"/>
<stop offset="0.106467" stop-color="#DED8E3"/>
<stop offset="0.181764" stop-color="#BEBEE6"/>
<stop offset="0.266415" stop-color="#9199EB"/>
<stop offset="0.35767" stop-color="#596AF1"/>
<stop offset="0.433036" stop-color="#253FF6"/>
<stop offset="1" stop-color="#AAA9FC" stop-opacity="0"/>
</radialGradient>
<radialGradient id="paint2_radial_174_4802" cx="0" cy="0" r="1" gradientUnits="userSpaceOnUse" gradientTransform="translate(699.948 142.926) scale(386.621 386.795)">
<stop stop-color="#E2E8EB" stop-opacity="0.69"/>
<stop offset="0.254216" stop-color="#97EFEB" stop-opacity="0.65"/>
<stop offset="0.532974" stop-color="#BCF5F4" stop-opacity="0.69"/>
<stop offset="0.823381" stop-color="#EFECE4" stop-opacity="0.236823"/>
<stop offset="1" stop-color="white" stop-opacity="0"/>
</radialGradient>
<radialGradient id="paint3_radial_174_4802" cx="0" cy="0" r="1" gradientUnits="userSpaceOnUse" gradientTransform="translate(-51.0194 848.904) scale(386.621 386.795)">
<stop stop-color="#E2E8EB"/>
<stop offset="0.254216" stop-color="#B8DEFF"/>
<stop offset="0.532974" stop-color="#D6E5F1" stop-opacity="0.626222"/>
<stop offset="0.823381" stop-color="#EFECE4" stop-opacity="0.236823"/>
<stop offset="1" stop-color="#F8EEE0" stop-opacity="0"/>
</radialGradient>
<radialGradient id="paint4_radial_174_4802" cx="0" cy="0" r="1" gradientUnits="userSpaceOnUse" gradientTransform="translate(1942.3 851.578) scale(577.01 577.269)">
<stop offset="0.254216" stop-color="#B8DEFF"/>
<stop offset="0.532974" stop-color="#D6E5F1" stop-opacity="0.626222"/>
<stop offset="0.823381" stop-color="#EFECE4" stop-opacity="0.236823"/>
<stop offset="1" stop-color="#F8EEE0" stop-opacity="0"/>
</radialGradient>
<radialGradient id="paint5_radial_174_4802" cx="0" cy="0" r="1" gradientUnits="userSpaceOnUse" gradientTransform="translate(-94.7299 1280.89) scale(893.505 893.907)">
<stop stop-color="#F8EEE0"/>
<stop offset="1" stop-color="#F8EEE0" stop-opacity="0"/>
</radialGradient>
<radialGradient id="paint6_radial_174_4802" cx="0" cy="0" r="1" gradientUnits="userSpaceOnUse" gradientTransform="translate(1303.91 -209.487) scale(730.048 730.376)">
<stop stop-color="#F8EEE0"/>
<stop offset="1" stop-color="#F8EEE0" stop-opacity="0"/>
</radialGradient>
<linearGradient id="paint7_linear_174_4802" x1="1615.81" y1="698.354" x2="1985.13" y2="329.198" gradientUnits="userSpaceOnUse">
<stop offset="0.157924" stop-color="#0F054C"/>
<stop offset="0.160291" stop-color="#0F054C"/>
<stop offset="0.297186" stop-color="#2E1BA3"/>
<stop offset="0.41483" stop-color="#5761D7"/>
<stop offset="0.507466" stop-color="#A09FFD"/>
<stop offset="0.563575" stop-color="#A9A6FD"/>
<stop offset="0.581559" stop-color="#ADAAFB"/>
<stop offset="0.765808" stop-color="#D6CFED"/>
<stop offset="0.911622" stop-color="white"/>
<stop offset="1" stop-color="white"/>
</linearGradient>
<radialGradient id="paint8_radial_174_4802" cx="0" cy="0" r="1" gradientUnits="userSpaceOnUse" gradientTransform="translate(1867.41 437.716) scale(149.878 149.945)">
<stop offset="0.225178" stop-color="#F8EEE0"/>
<stop offset="1" stop-color="#F8EEE0" stop-opacity="0"/>
</radialGradient>
<clipPath id="clip0_174_4802">
<rect width="1920" height="616" fill="white" transform="translate(0 -3)"/>
</clipPath>
</defs>
</svg>
